G75*
%MOIN*%
%OFA0B0*%
%FSLAX25Y25*%
%IPPOS*%
%LPD*%
%AMOC8*
5,1,8,0,0,1.08239X$1,22.5*
%
%ADD10R,0.03543X0.00827*%
%ADD11R,0.00827X0.03543*%
%ADD12C,0.04800*%
%ADD13C,0.01181*%
%ADD14C,0.00591*%
%ADD15C,0.02362*%
%ADD16C,0.05600*%
D10*
X0059696Y0051787D03*
X0059696Y0053362D03*
X0059696Y0054937D03*
X0059696Y0056512D03*
X0059696Y0058087D03*
X0067570Y0058087D03*
X0067570Y0056512D03*
X0067570Y0054937D03*
X0067570Y0053362D03*
X0067570Y0051787D03*
X0098279Y0051787D03*
X0098279Y0053362D03*
X0098279Y0054937D03*
X0098279Y0056512D03*
X0098279Y0058087D03*
X0106153Y0058087D03*
X0106153Y0056512D03*
X0106153Y0054937D03*
X0106153Y0053362D03*
X0106153Y0051787D03*
X0136861Y0051787D03*
X0136861Y0053362D03*
X0136861Y0054937D03*
X0136861Y0056512D03*
X0136861Y0058087D03*
X0144735Y0058087D03*
X0144735Y0056512D03*
X0144735Y0054937D03*
X0144735Y0053362D03*
X0144735Y0051787D03*
X0175444Y0051787D03*
X0175444Y0053362D03*
X0175444Y0054937D03*
X0175444Y0056512D03*
X0175444Y0058087D03*
X0183318Y0058087D03*
X0183318Y0056512D03*
X0183318Y0054937D03*
X0183318Y0053362D03*
X0183318Y0051787D03*
X0183318Y0120685D03*
X0183318Y0122260D03*
X0183318Y0123835D03*
X0183318Y0125409D03*
X0183318Y0126984D03*
X0175444Y0126984D03*
X0175444Y0125409D03*
X0175444Y0123835D03*
X0175444Y0122260D03*
X0175444Y0120685D03*
X0144735Y0120685D03*
X0144735Y0122260D03*
X0144735Y0123835D03*
X0144735Y0125409D03*
X0144735Y0126984D03*
X0136861Y0126984D03*
X0136861Y0125409D03*
X0136861Y0123835D03*
X0136861Y0122260D03*
X0136861Y0120685D03*
X0106153Y0120685D03*
X0106153Y0122260D03*
X0106153Y0123835D03*
X0106153Y0125409D03*
X0106153Y0126984D03*
X0098279Y0126984D03*
X0098279Y0125409D03*
X0098279Y0123835D03*
X0098279Y0122260D03*
X0098279Y0120685D03*
X0067570Y0120685D03*
X0067570Y0122260D03*
X0067570Y0123835D03*
X0067570Y0125409D03*
X0067570Y0126984D03*
X0059696Y0126984D03*
X0059696Y0125409D03*
X0059696Y0123835D03*
X0059696Y0122260D03*
X0059696Y0120685D03*
D11*
X0062846Y0119504D03*
X0064420Y0119504D03*
X0064420Y0128165D03*
X0062846Y0128165D03*
X0101428Y0128165D03*
X0103003Y0128165D03*
X0103003Y0119504D03*
X0101428Y0119504D03*
X0140011Y0119504D03*
X0141586Y0119504D03*
X0141586Y0128165D03*
X0140011Y0128165D03*
X0178594Y0128165D03*
X0180168Y0128165D03*
X0180168Y0119504D03*
X0178594Y0119504D03*
X0178594Y0059268D03*
X0180168Y0059268D03*
X0180168Y0050606D03*
X0178594Y0050606D03*
X0141586Y0050606D03*
X0140011Y0050606D03*
X0140011Y0059268D03*
X0141586Y0059268D03*
X0103003Y0059268D03*
X0101428Y0059268D03*
X0101428Y0050606D03*
X0103003Y0050606D03*
X0064420Y0050606D03*
X0062846Y0050606D03*
X0062846Y0059268D03*
X0064420Y0059268D03*
D12*
X0048633Y0024937D03*
X0048633Y0034937D03*
X0048633Y0044937D03*
X0048633Y0054937D03*
X0048633Y0064937D03*
X0048633Y0074937D03*
X0048633Y0084937D03*
X0048633Y0093835D03*
X0048633Y0103835D03*
X0048633Y0113835D03*
X0048633Y0123835D03*
X0048633Y0133835D03*
X0048633Y0143835D03*
X0048633Y0153835D03*
X0078633Y0153835D03*
X0087216Y0153835D03*
X0087216Y0143835D03*
X0078633Y0143835D03*
X0078633Y0133835D03*
X0087216Y0133835D03*
X0087216Y0123835D03*
X0078633Y0123835D03*
X0078633Y0113835D03*
X0087216Y0113835D03*
X0087216Y0103835D03*
X0078633Y0103835D03*
X0078633Y0093835D03*
X0087216Y0093835D03*
X0087216Y0084937D03*
X0078633Y0084937D03*
X0078633Y0074937D03*
X0087216Y0074937D03*
X0087216Y0064937D03*
X0078633Y0064937D03*
X0078633Y0054937D03*
X0087216Y0054937D03*
X0087216Y0044937D03*
X0078633Y0044937D03*
X0078633Y0034937D03*
X0087216Y0034937D03*
X0087216Y0024937D03*
X0078633Y0024937D03*
X0117216Y0024937D03*
X0125798Y0024937D03*
X0125798Y0034937D03*
X0117216Y0034937D03*
X0117216Y0044937D03*
X0125798Y0044937D03*
X0125798Y0054937D03*
X0117216Y0054937D03*
X0117216Y0064937D03*
X0125798Y0064937D03*
X0125798Y0074937D03*
X0117216Y0074937D03*
X0117216Y0084937D03*
X0125798Y0084937D03*
X0125798Y0093835D03*
X0117216Y0093835D03*
X0117216Y0103835D03*
X0125798Y0103835D03*
X0125798Y0113835D03*
X0117216Y0113835D03*
X0117216Y0123835D03*
X0125798Y0123835D03*
X0125798Y0133835D03*
X0117216Y0133835D03*
X0117216Y0143835D03*
X0125798Y0143835D03*
X0125798Y0153835D03*
X0117216Y0153835D03*
X0155798Y0153835D03*
X0164381Y0153835D03*
X0164381Y0143835D03*
X0155798Y0143835D03*
X0155798Y0133835D03*
X0164381Y0133835D03*
X0164381Y0123835D03*
X0155798Y0123835D03*
X0155798Y0113835D03*
X0164381Y0113835D03*
X0164381Y0103835D03*
X0155798Y0103835D03*
X0155798Y0093835D03*
X0164381Y0093835D03*
X0164381Y0084937D03*
X0155798Y0084937D03*
X0155798Y0074937D03*
X0164381Y0074937D03*
X0164381Y0064937D03*
X0155798Y0064937D03*
X0155798Y0054937D03*
X0164381Y0054937D03*
X0164381Y0044937D03*
X0155798Y0044937D03*
X0155798Y0034937D03*
X0164381Y0034937D03*
X0164381Y0024937D03*
X0155798Y0024937D03*
X0194381Y0024937D03*
X0194381Y0034937D03*
X0194381Y0044937D03*
X0194381Y0054937D03*
X0194381Y0064937D03*
X0194381Y0074937D03*
X0194381Y0084937D03*
X0194381Y0093835D03*
X0194381Y0103835D03*
X0194381Y0113835D03*
X0194381Y0123835D03*
X0194381Y0133835D03*
X0194381Y0143835D03*
X0194381Y0153835D03*
D13*
X0175444Y0134898D01*
X0175444Y0127378D01*
X0155798Y0153835D02*
X0136861Y0134898D01*
X0136861Y0127378D01*
X0117216Y0153835D02*
X0098279Y0134898D01*
X0098279Y0127378D01*
X0078633Y0153835D02*
X0059696Y0134898D01*
X0059696Y0127378D01*
X0078633Y0084937D02*
X0059696Y0066000D01*
X0059696Y0058480D01*
X0098279Y0058480D02*
X0098279Y0066000D01*
X0117216Y0084937D01*
X0136861Y0066000D02*
X0155798Y0084937D01*
X0136861Y0066000D02*
X0136861Y0058480D01*
X0175444Y0058480D02*
X0175444Y0066000D01*
X0194381Y0084937D01*
D14*
X0194381Y0093835D02*
X0186074Y0102142D01*
X0186074Y0119898D01*
X0185287Y0120685D01*
X0183318Y0120685D01*
X0183318Y0122260D02*
X0180956Y0122260D01*
X0179381Y0123835D01*
X0175444Y0123835D02*
X0172294Y0123835D01*
X0171507Y0124622D01*
X0171507Y0136709D01*
X0164381Y0143835D01*
X0155798Y0143835D02*
X0150956Y0143835D01*
X0140011Y0132890D01*
X0140011Y0128165D01*
X0141586Y0128165D02*
X0141586Y0130528D01*
X0144893Y0133835D01*
X0155798Y0133835D01*
X0164381Y0133835D02*
X0170326Y0127890D01*
X0170326Y0123441D01*
X0171507Y0122260D01*
X0175444Y0122260D01*
X0175444Y0120685D02*
X0167531Y0120685D01*
X0164381Y0123835D01*
X0155798Y0123835D02*
X0151822Y0123835D01*
X0148672Y0126984D01*
X0144735Y0126984D01*
X0144735Y0125409D02*
X0147885Y0125409D01*
X0150247Y0123047D01*
X0150247Y0119386D01*
X0155798Y0113835D01*
X0164381Y0113835D02*
X0174893Y0113835D01*
X0178594Y0117535D01*
X0178594Y0119504D01*
X0180168Y0119504D02*
X0180168Y0115961D01*
X0168042Y0103835D01*
X0164381Y0103835D01*
X0155798Y0103835D02*
X0149066Y0110567D01*
X0149066Y0122260D01*
X0147491Y0123835D01*
X0144735Y0123835D01*
X0144735Y0122260D02*
X0142373Y0122260D01*
X0140798Y0123835D01*
X0136861Y0123835D02*
X0133712Y0123835D01*
X0132924Y0124622D01*
X0132924Y0136709D01*
X0125798Y0143835D01*
X0134105Y0145528D02*
X0134105Y0126197D01*
X0134893Y0125409D01*
X0136861Y0125409D01*
X0136861Y0126984D02*
X0136861Y0127378D01*
X0131743Y0127890D02*
X0131743Y0123441D01*
X0132924Y0122260D01*
X0136861Y0122260D01*
X0136861Y0120685D02*
X0128948Y0120685D01*
X0125798Y0123835D01*
X0131743Y0127890D02*
X0125798Y0133835D01*
X0117216Y0133835D02*
X0106310Y0133835D01*
X0103003Y0130528D01*
X0103003Y0128165D01*
X0101428Y0128165D02*
X0101428Y0132890D01*
X0112373Y0143835D01*
X0117216Y0143835D01*
X0125798Y0153835D02*
X0134105Y0145528D01*
X0113239Y0123835D02*
X0110090Y0126984D01*
X0106153Y0126984D01*
X0106153Y0125409D02*
X0109302Y0125409D01*
X0111665Y0123047D01*
X0111665Y0119386D01*
X0117216Y0113835D01*
X0110483Y0110567D02*
X0117216Y0103835D01*
X0108909Y0102142D02*
X0117216Y0093835D01*
X0108909Y0102142D02*
X0108909Y0119898D01*
X0108121Y0120685D01*
X0106153Y0120685D01*
X0106153Y0122260D02*
X0103790Y0122260D01*
X0102216Y0123835D01*
X0098279Y0123835D02*
X0095129Y0123835D01*
X0094342Y0124622D01*
X0094342Y0136709D01*
X0087216Y0143835D01*
X0095523Y0145528D02*
X0095523Y0126197D01*
X0096310Y0125409D01*
X0098279Y0125409D01*
X0098279Y0126984D02*
X0098279Y0127378D01*
X0098279Y0122260D02*
X0094342Y0122260D01*
X0093161Y0123441D01*
X0093161Y0127890D01*
X0087216Y0133835D01*
X0078633Y0133835D02*
X0067727Y0133835D01*
X0064420Y0130528D01*
X0064420Y0128165D01*
X0062846Y0128165D02*
X0062846Y0132890D01*
X0073790Y0143835D01*
X0078633Y0143835D01*
X0087216Y0153835D02*
X0095523Y0145528D01*
X0074657Y0123835D02*
X0071507Y0126984D01*
X0067570Y0126984D01*
X0067570Y0125409D02*
X0070720Y0125409D01*
X0073082Y0123047D01*
X0073082Y0119386D01*
X0078633Y0113835D01*
X0071901Y0110567D02*
X0078633Y0103835D01*
X0070326Y0102142D02*
X0078633Y0093835D01*
X0070326Y0102142D02*
X0070326Y0119898D01*
X0069539Y0120685D01*
X0067570Y0120685D01*
X0067570Y0122260D02*
X0065208Y0122260D01*
X0063633Y0123835D01*
X0059696Y0123835D02*
X0056546Y0123835D01*
X0055759Y0124622D01*
X0055759Y0136709D01*
X0048633Y0143835D01*
X0056940Y0145528D02*
X0056940Y0126197D01*
X0057727Y0125409D01*
X0059696Y0125409D01*
X0059696Y0126984D02*
X0059696Y0127378D01*
X0054578Y0127890D02*
X0054578Y0123441D01*
X0055759Y0122260D01*
X0059696Y0122260D01*
X0059696Y0120685D02*
X0051783Y0120685D01*
X0048633Y0123835D01*
X0054578Y0127890D02*
X0048633Y0133835D01*
X0056940Y0145528D02*
X0048633Y0153835D01*
X0067570Y0123835D02*
X0070326Y0123835D01*
X0071901Y0122260D01*
X0071901Y0110567D01*
X0064420Y0115961D02*
X0052294Y0103835D01*
X0048633Y0103835D01*
X0048633Y0113835D02*
X0059145Y0113835D01*
X0062846Y0117535D01*
X0062846Y0119504D01*
X0064420Y0119504D02*
X0064420Y0115961D01*
X0074657Y0123835D02*
X0078633Y0123835D01*
X0087216Y0123835D02*
X0090365Y0120685D01*
X0098279Y0120685D01*
X0101428Y0119504D02*
X0101428Y0117535D01*
X0097727Y0113835D01*
X0087216Y0113835D01*
X0087216Y0103835D02*
X0090877Y0103835D01*
X0103003Y0115961D01*
X0103003Y0119504D01*
X0106153Y0123835D02*
X0108909Y0123835D01*
X0110483Y0122260D01*
X0110483Y0110567D01*
X0125798Y0113835D02*
X0136310Y0113835D01*
X0140011Y0117535D01*
X0140011Y0119504D01*
X0141586Y0119504D02*
X0141586Y0115961D01*
X0129460Y0103835D01*
X0125798Y0103835D01*
X0125798Y0084937D02*
X0134105Y0076630D01*
X0134105Y0057299D01*
X0134893Y0056512D01*
X0136861Y0056512D01*
X0136861Y0058087D02*
X0136861Y0058480D01*
X0140011Y0059268D02*
X0140011Y0063992D01*
X0150956Y0074937D01*
X0155798Y0074937D01*
X0164381Y0074937D02*
X0171507Y0067811D01*
X0171507Y0055724D01*
X0172294Y0054937D01*
X0175444Y0054937D01*
X0175444Y0053362D02*
X0171507Y0053362D01*
X0170326Y0054543D01*
X0170326Y0058992D01*
X0164381Y0064937D01*
X0155798Y0064937D02*
X0144893Y0064937D01*
X0141586Y0061630D01*
X0141586Y0059268D01*
X0144735Y0058087D02*
X0148672Y0058087D01*
X0151822Y0054937D01*
X0155798Y0054937D01*
X0150247Y0054150D02*
X0150247Y0050488D01*
X0155798Y0044937D01*
X0164381Y0044937D02*
X0174893Y0044937D01*
X0178594Y0048638D01*
X0178594Y0050606D01*
X0180168Y0050606D02*
X0180168Y0047063D01*
X0168042Y0034937D01*
X0164381Y0034937D01*
X0155798Y0034937D02*
X0149066Y0041669D01*
X0149066Y0053362D01*
X0147491Y0054937D01*
X0144735Y0054937D01*
X0144735Y0053362D02*
X0142373Y0053362D01*
X0140798Y0054937D01*
X0136861Y0054937D02*
X0133712Y0054937D01*
X0132924Y0055724D01*
X0132924Y0067811D01*
X0125798Y0074937D01*
X0117216Y0074937D02*
X0112373Y0074937D01*
X0101428Y0063992D01*
X0101428Y0059268D01*
X0103003Y0059268D02*
X0103003Y0061630D01*
X0106310Y0064937D01*
X0117216Y0064937D01*
X0125798Y0064937D02*
X0131743Y0058992D01*
X0131743Y0054543D01*
X0132924Y0053362D01*
X0136861Y0053362D01*
X0136861Y0051787D02*
X0128948Y0051787D01*
X0125798Y0054937D01*
X0117216Y0054937D02*
X0113239Y0054937D01*
X0110090Y0058087D01*
X0106153Y0058087D01*
X0106153Y0056512D02*
X0109302Y0056512D01*
X0111665Y0054150D01*
X0111665Y0050488D01*
X0117216Y0044937D01*
X0110483Y0041669D02*
X0117216Y0034937D01*
X0108909Y0033244D02*
X0117216Y0024937D01*
X0108909Y0033244D02*
X0108909Y0051000D01*
X0108121Y0051787D01*
X0106153Y0051787D01*
X0106153Y0053362D02*
X0103790Y0053362D01*
X0102216Y0054937D01*
X0098279Y0054937D02*
X0095129Y0054937D01*
X0094342Y0055724D01*
X0094342Y0067811D01*
X0087216Y0074937D01*
X0095523Y0076630D02*
X0095523Y0057299D01*
X0096310Y0056512D01*
X0098279Y0056512D01*
X0098279Y0058087D02*
X0098279Y0058480D01*
X0098279Y0053362D02*
X0094342Y0053362D01*
X0093161Y0054543D01*
X0093161Y0058992D01*
X0087216Y0064937D01*
X0078633Y0064937D02*
X0067727Y0064937D01*
X0064420Y0061630D01*
X0064420Y0059268D01*
X0062846Y0059268D02*
X0062846Y0063992D01*
X0073790Y0074937D01*
X0078633Y0074937D01*
X0087216Y0084937D02*
X0095523Y0076630D01*
X0074657Y0054937D02*
X0071507Y0058087D01*
X0067570Y0058087D01*
X0067570Y0056512D02*
X0070720Y0056512D01*
X0073082Y0054150D01*
X0073082Y0050488D01*
X0078633Y0044937D01*
X0071901Y0041669D02*
X0078633Y0034937D01*
X0070326Y0033244D02*
X0078633Y0024937D01*
X0070326Y0033244D02*
X0070326Y0051000D01*
X0069539Y0051787D01*
X0067570Y0051787D01*
X0067570Y0053362D02*
X0065208Y0053362D01*
X0063633Y0054937D01*
X0059696Y0054937D02*
X0056546Y0054937D01*
X0055759Y0055724D01*
X0055759Y0067811D01*
X0048633Y0074937D01*
X0056940Y0076630D02*
X0056940Y0057299D01*
X0057727Y0056512D01*
X0059696Y0056512D01*
X0059696Y0058087D02*
X0059696Y0058480D01*
X0054578Y0058992D02*
X0054578Y0054543D01*
X0055759Y0053362D01*
X0059696Y0053362D01*
X0059696Y0051787D02*
X0051783Y0051787D01*
X0048633Y0054937D01*
X0054578Y0058992D02*
X0048633Y0064937D01*
X0056940Y0076630D02*
X0048633Y0084937D01*
X0067570Y0054937D02*
X0070326Y0054937D01*
X0071901Y0053362D01*
X0071901Y0041669D01*
X0064420Y0047063D02*
X0052294Y0034937D01*
X0048633Y0034937D01*
X0048633Y0044937D02*
X0059145Y0044937D01*
X0062846Y0048638D01*
X0062846Y0050606D01*
X0064420Y0050606D02*
X0064420Y0047063D01*
X0074657Y0054937D02*
X0078633Y0054937D01*
X0087216Y0054937D02*
X0090365Y0051787D01*
X0098279Y0051787D01*
X0101428Y0050606D02*
X0101428Y0048638D01*
X0097727Y0044937D01*
X0087216Y0044937D01*
X0087216Y0034937D02*
X0090877Y0034937D01*
X0103003Y0047063D01*
X0103003Y0050606D01*
X0106153Y0054937D02*
X0108909Y0054937D01*
X0110483Y0053362D01*
X0110483Y0041669D01*
X0125798Y0044937D02*
X0136310Y0044937D01*
X0140011Y0048638D01*
X0140011Y0050606D01*
X0141586Y0050606D02*
X0141586Y0047063D01*
X0129460Y0034937D01*
X0125798Y0034937D01*
X0144735Y0051787D02*
X0146704Y0051787D01*
X0147491Y0051000D01*
X0147491Y0033244D01*
X0155798Y0024937D01*
X0186074Y0033244D02*
X0194381Y0024937D01*
X0186074Y0033244D02*
X0186074Y0051000D01*
X0185287Y0051787D01*
X0183318Y0051787D01*
X0183318Y0053362D02*
X0180956Y0053362D01*
X0179381Y0054937D01*
X0183318Y0054937D02*
X0186074Y0054937D01*
X0187649Y0053362D01*
X0187649Y0041669D01*
X0194381Y0034937D01*
X0194381Y0044937D02*
X0188830Y0050488D01*
X0188830Y0054150D01*
X0186468Y0056512D01*
X0183318Y0056512D01*
X0183318Y0058087D02*
X0187255Y0058087D01*
X0190405Y0054937D01*
X0194381Y0054937D01*
X0194381Y0064937D02*
X0183476Y0064937D01*
X0180168Y0061630D01*
X0180168Y0059268D01*
X0178594Y0059268D02*
X0178594Y0063992D01*
X0189539Y0074937D01*
X0194381Y0074937D01*
X0175444Y0058480D02*
X0175444Y0058087D01*
X0175444Y0056512D02*
X0173476Y0056512D01*
X0172688Y0057299D01*
X0172688Y0076630D01*
X0164381Y0084937D01*
X0155798Y0093835D02*
X0147491Y0102142D01*
X0147491Y0119898D01*
X0146704Y0120685D01*
X0144735Y0120685D01*
X0172688Y0126197D02*
X0173476Y0125409D01*
X0175444Y0125409D01*
X0175444Y0126984D02*
X0175444Y0127378D01*
X0172688Y0126197D02*
X0172688Y0145528D01*
X0164381Y0153835D01*
X0178594Y0132890D02*
X0178594Y0128165D01*
X0180168Y0128165D02*
X0180168Y0130528D01*
X0183476Y0133835D01*
X0194381Y0133835D01*
X0187255Y0126984D02*
X0190405Y0123835D01*
X0194381Y0123835D01*
X0188830Y0123047D02*
X0188830Y0119386D01*
X0194381Y0113835D01*
X0187649Y0110567D02*
X0194381Y0103835D01*
X0187649Y0110567D02*
X0187649Y0122260D01*
X0186074Y0123835D01*
X0183318Y0123835D01*
X0183318Y0125409D02*
X0186468Y0125409D01*
X0188830Y0123047D01*
X0187255Y0126984D02*
X0183318Y0126984D01*
X0178594Y0132890D02*
X0189539Y0143835D01*
X0194381Y0143835D01*
X0117216Y0123835D02*
X0113239Y0123835D01*
X0144735Y0056512D02*
X0147885Y0056512D01*
X0150247Y0054150D01*
X0164381Y0054937D02*
X0167531Y0051787D01*
X0175444Y0051787D01*
D15*
X0179381Y0054937D03*
X0140798Y0054937D03*
X0102216Y0054937D03*
X0063633Y0054937D03*
X0063633Y0123835D03*
X0102216Y0123835D03*
X0140798Y0123835D03*
X0179381Y0123835D03*
D16*
X0209696Y0168323D03*
X0064027Y0168323D03*
X0182137Y0010843D03*
M02*
