G75*
%MOIN*%
%OFA0B0*%
%FSLAX25Y25*%
%IPPOS*%
%LPD*%
%AMOC8*
5,1,8,0,0,1.08239X$1,22.5*
%
%ADD10C,0.01969*%
%ADD11C,0.00000*%
%ADD12C,0.00300*%
D10*
X0024657Y0020685D02*
X0221507Y0020685D01*
X0198672Y0012811D02*
X0198672Y0166354D01*
X0221507Y0158480D02*
X0024657Y0158480D01*
X0044342Y0166354D02*
X0044342Y0012811D01*
X0082924Y0012811D02*
X0082924Y0166354D01*
X0121507Y0166354D02*
X0121507Y0012811D01*
X0160090Y0012811D02*
X0160090Y0166354D01*
X0221507Y0089583D02*
X0024657Y0089583D01*
D11*
X0024657Y0178165D02*
X0024657Y0001000D01*
X0221507Y0001000D01*
X0221507Y0178165D01*
X0024657Y0178165D01*
D12*
X0004152Y0021170D02*
X0003184Y0019235D01*
X0002217Y0021170D01*
X0005163Y0020686D02*
X0007098Y0020686D01*
X0008110Y0020686D02*
X0008110Y0019719D01*
X0008593Y0019235D01*
X0010045Y0019235D01*
X0011056Y0019719D02*
X0011540Y0019235D01*
X0012991Y0019235D01*
X0012991Y0021170D01*
X0014003Y0021170D02*
X0014970Y0021170D01*
X0014486Y0021654D02*
X0014486Y0019719D01*
X0014970Y0019235D01*
X0011056Y0019719D02*
X0011056Y0021170D01*
X0010045Y0021170D02*
X0008593Y0021170D01*
X0008110Y0020686D01*
X0018914Y0020686D02*
X0020849Y0020686D01*
X0021860Y0019235D02*
X0023795Y0020686D01*
X0021860Y0022138D01*
X0021860Y0088133D02*
X0023795Y0089584D01*
X0021860Y0091035D01*
X0020849Y0089584D02*
X0018914Y0089584D01*
X0014970Y0090068D02*
X0014003Y0090068D01*
X0014486Y0090551D02*
X0014486Y0088616D01*
X0014970Y0088133D01*
X0012991Y0088133D02*
X0012991Y0090068D01*
X0011056Y0090068D02*
X0011056Y0088616D01*
X0011540Y0088133D01*
X0012991Y0088133D01*
X0010045Y0088133D02*
X0008593Y0088133D01*
X0008110Y0088616D01*
X0008110Y0089584D01*
X0008593Y0090068D01*
X0010045Y0090068D01*
X0007098Y0089584D02*
X0005163Y0089584D01*
X0004152Y0090068D02*
X0003184Y0088133D01*
X0002217Y0090068D01*
X0003184Y0157030D02*
X0004152Y0158965D01*
X0005163Y0158482D02*
X0007098Y0158482D01*
X0008110Y0158482D02*
X0008110Y0157514D01*
X0008593Y0157030D01*
X0010045Y0157030D01*
X0011056Y0157514D02*
X0011540Y0157030D01*
X0012991Y0157030D01*
X0012991Y0158965D01*
X0014003Y0158965D02*
X0014970Y0158965D01*
X0014486Y0159449D02*
X0014486Y0157514D01*
X0014970Y0157030D01*
X0011056Y0157514D02*
X0011056Y0158965D01*
X0010045Y0158965D02*
X0008593Y0158965D01*
X0008110Y0158482D01*
X0003184Y0157030D02*
X0002217Y0158965D01*
X0018914Y0158482D02*
X0020849Y0158482D01*
X0021860Y0159933D02*
X0023795Y0158482D01*
X0021860Y0157030D01*
M02*
