G75*
%MOIN*%
%OFA0B0*%
%FSLAX25Y25*%
%IPPOS*%
%LPD*%
%AMOC8*
5,1,8,0,0,1.08239X$1,22.5*
%
%ADD10C,0.00787*%
D10*
X0058416Y0051787D02*
X0060976Y0051787D01*
X0060976Y0053362D02*
X0058416Y0053362D01*
X0058416Y0054937D02*
X0060976Y0054937D01*
X0060976Y0056512D02*
X0058416Y0056512D01*
X0058416Y0058087D02*
X0060976Y0058087D01*
X0062846Y0057988D02*
X0062846Y0060547D01*
X0064420Y0060547D02*
X0064420Y0057988D01*
X0066290Y0058087D02*
X0068850Y0058087D01*
X0068850Y0056512D02*
X0066290Y0056512D01*
X0066290Y0054937D02*
X0068850Y0054937D01*
X0068850Y0053362D02*
X0066290Y0053362D01*
X0066290Y0051787D02*
X0068850Y0051787D01*
X0064420Y0051886D02*
X0064420Y0049327D01*
X0062846Y0049327D02*
X0062846Y0051886D01*
X0096999Y0051787D02*
X0099558Y0051787D01*
X0099558Y0053362D02*
X0096999Y0053362D01*
X0096999Y0054937D02*
X0099558Y0054937D01*
X0099558Y0056512D02*
X0096999Y0056512D01*
X0096999Y0058087D02*
X0099558Y0058087D01*
X0101428Y0057988D02*
X0101428Y0060547D01*
X0103003Y0060547D02*
X0103003Y0057988D01*
X0104873Y0058087D02*
X0107432Y0058087D01*
X0107432Y0056512D02*
X0104873Y0056512D01*
X0104873Y0054937D02*
X0107432Y0054937D01*
X0107432Y0053362D02*
X0104873Y0053362D01*
X0104873Y0051787D02*
X0107432Y0051787D01*
X0103003Y0051886D02*
X0103003Y0049327D01*
X0101428Y0049327D02*
X0101428Y0051886D01*
X0135582Y0051787D02*
X0138141Y0051787D01*
X0138141Y0053362D02*
X0135582Y0053362D01*
X0135582Y0054937D02*
X0138141Y0054937D01*
X0138141Y0056512D02*
X0135582Y0056512D01*
X0135582Y0058087D02*
X0138141Y0058087D01*
X0140011Y0057988D02*
X0140011Y0060547D01*
X0141586Y0060547D02*
X0141586Y0057988D01*
X0143456Y0058087D02*
X0146015Y0058087D01*
X0146015Y0056512D02*
X0143456Y0056512D01*
X0143456Y0054937D02*
X0146015Y0054937D01*
X0146015Y0053362D02*
X0143456Y0053362D01*
X0143456Y0051787D02*
X0146015Y0051787D01*
X0141586Y0051886D02*
X0141586Y0049327D01*
X0140011Y0049327D02*
X0140011Y0051886D01*
X0174165Y0051787D02*
X0176724Y0051787D01*
X0176724Y0053362D02*
X0174165Y0053362D01*
X0174165Y0054937D02*
X0176724Y0054937D01*
X0176724Y0056512D02*
X0174165Y0056512D01*
X0174165Y0058087D02*
X0176724Y0058087D01*
X0178594Y0057988D02*
X0178594Y0060547D01*
X0180168Y0060547D02*
X0180168Y0057988D01*
X0182039Y0058087D02*
X0184598Y0058087D01*
X0184598Y0056512D02*
X0182039Y0056512D01*
X0182039Y0054937D02*
X0184598Y0054937D01*
X0184598Y0053362D02*
X0182039Y0053362D01*
X0182039Y0051787D02*
X0184598Y0051787D01*
X0180168Y0051886D02*
X0180168Y0049327D01*
X0178594Y0049327D02*
X0178594Y0051886D01*
X0178594Y0118224D02*
X0178594Y0120783D01*
X0180168Y0120783D02*
X0180168Y0118224D01*
X0182039Y0120685D02*
X0184598Y0120685D01*
X0184598Y0122260D02*
X0182039Y0122260D01*
X0182039Y0123835D02*
X0184598Y0123835D01*
X0184598Y0125409D02*
X0182039Y0125409D01*
X0182039Y0126984D02*
X0184598Y0126984D01*
X0180168Y0126886D02*
X0180168Y0129445D01*
X0178594Y0129445D02*
X0178594Y0126886D01*
X0176724Y0126984D02*
X0174165Y0126984D01*
X0174165Y0125409D02*
X0176724Y0125409D01*
X0176724Y0123835D02*
X0174165Y0123835D01*
X0174165Y0122260D02*
X0176724Y0122260D01*
X0176724Y0120685D02*
X0174165Y0120685D01*
X0146015Y0120685D02*
X0143456Y0120685D01*
X0143456Y0122260D02*
X0146015Y0122260D01*
X0146015Y0123835D02*
X0143456Y0123835D01*
X0143456Y0125409D02*
X0146015Y0125409D01*
X0146015Y0126984D02*
X0143456Y0126984D01*
X0141586Y0126886D02*
X0141586Y0129445D01*
X0140011Y0129445D02*
X0140011Y0126886D01*
X0138141Y0126984D02*
X0135582Y0126984D01*
X0135582Y0125409D02*
X0138141Y0125409D01*
X0138141Y0123835D02*
X0135582Y0123835D01*
X0135582Y0122260D02*
X0138141Y0122260D01*
X0138141Y0120685D02*
X0135582Y0120685D01*
X0140011Y0120783D02*
X0140011Y0118224D01*
X0141586Y0118224D02*
X0141586Y0120783D01*
X0107432Y0120685D02*
X0104873Y0120685D01*
X0104873Y0122260D02*
X0107432Y0122260D01*
X0107432Y0123835D02*
X0104873Y0123835D01*
X0104873Y0125409D02*
X0107432Y0125409D01*
X0107432Y0126984D02*
X0104873Y0126984D01*
X0103003Y0126886D02*
X0103003Y0129445D01*
X0101428Y0129445D02*
X0101428Y0126886D01*
X0099558Y0126984D02*
X0096999Y0126984D01*
X0096999Y0125409D02*
X0099558Y0125409D01*
X0099558Y0123835D02*
X0096999Y0123835D01*
X0096999Y0122260D02*
X0099558Y0122260D01*
X0099558Y0120685D02*
X0096999Y0120685D01*
X0101428Y0120783D02*
X0101428Y0118224D01*
X0103003Y0118224D02*
X0103003Y0120783D01*
X0068850Y0120685D02*
X0066290Y0120685D01*
X0066290Y0122260D02*
X0068850Y0122260D01*
X0068850Y0123835D02*
X0066290Y0123835D01*
X0066290Y0125409D02*
X0068850Y0125409D01*
X0068850Y0126984D02*
X0066290Y0126984D01*
X0064420Y0126886D02*
X0064420Y0129445D01*
X0062846Y0129445D02*
X0062846Y0126886D01*
X0060976Y0126984D02*
X0058416Y0126984D01*
X0058416Y0125409D02*
X0060976Y0125409D01*
X0060976Y0123835D02*
X0058416Y0123835D01*
X0058416Y0122260D02*
X0060976Y0122260D01*
X0060976Y0120685D02*
X0058416Y0120685D01*
X0062846Y0120783D02*
X0062846Y0118224D01*
X0064420Y0118224D02*
X0064420Y0120783D01*
M02*
