G75*
%MOIN*%
%OFA0B0*%
%FSLAX25Y25*%
%IPPOS*%
%LPD*%
%AMOC8*
5,1,8,0,0,1.08239X$1,22.5*
%
%ADD10C,0.04800*%
%ADD11C,0.00591*%
%ADD12C,0.02362*%
%ADD13C,0.01181*%
%ADD14C,0.05600*%
D10*
X0048633Y0024937D03*
X0048633Y0034937D03*
X0048633Y0044937D03*
X0048633Y0054937D03*
X0048633Y0064937D03*
X0048633Y0074937D03*
X0048633Y0084937D03*
X0048633Y0093835D03*
X0048633Y0103835D03*
X0048633Y0113835D03*
X0048633Y0123835D03*
X0048633Y0133835D03*
X0048633Y0143835D03*
X0048633Y0153835D03*
X0078633Y0153835D03*
X0087216Y0153835D03*
X0087216Y0143835D03*
X0078633Y0143835D03*
X0078633Y0133835D03*
X0087216Y0133835D03*
X0087216Y0123835D03*
X0078633Y0123835D03*
X0078633Y0113835D03*
X0087216Y0113835D03*
X0087216Y0103835D03*
X0078633Y0103835D03*
X0078633Y0093835D03*
X0087216Y0093835D03*
X0087216Y0084937D03*
X0078633Y0084937D03*
X0078633Y0074937D03*
X0087216Y0074937D03*
X0087216Y0064937D03*
X0078633Y0064937D03*
X0078633Y0054937D03*
X0087216Y0054937D03*
X0087216Y0044937D03*
X0078633Y0044937D03*
X0078633Y0034937D03*
X0087216Y0034937D03*
X0087216Y0024937D03*
X0078633Y0024937D03*
X0117216Y0024937D03*
X0125798Y0024937D03*
X0125798Y0034937D03*
X0117216Y0034937D03*
X0117216Y0044937D03*
X0125798Y0044937D03*
X0125798Y0054937D03*
X0117216Y0054937D03*
X0117216Y0064937D03*
X0125798Y0064937D03*
X0125798Y0074937D03*
X0117216Y0074937D03*
X0117216Y0084937D03*
X0125798Y0084937D03*
X0125798Y0093835D03*
X0117216Y0093835D03*
X0117216Y0103835D03*
X0125798Y0103835D03*
X0125798Y0113835D03*
X0117216Y0113835D03*
X0117216Y0123835D03*
X0125798Y0123835D03*
X0125798Y0133835D03*
X0117216Y0133835D03*
X0117216Y0143835D03*
X0125798Y0143835D03*
X0125798Y0153835D03*
X0117216Y0153835D03*
X0155798Y0153835D03*
X0164381Y0153835D03*
X0164381Y0143835D03*
X0155798Y0143835D03*
X0155798Y0133835D03*
X0164381Y0133835D03*
X0164381Y0123835D03*
X0155798Y0123835D03*
X0155798Y0113835D03*
X0164381Y0113835D03*
X0164381Y0103835D03*
X0155798Y0103835D03*
X0155798Y0093835D03*
X0164381Y0093835D03*
X0164381Y0084937D03*
X0155798Y0084937D03*
X0155798Y0074937D03*
X0164381Y0074937D03*
X0164381Y0064937D03*
X0155798Y0064937D03*
X0155798Y0054937D03*
X0164381Y0054937D03*
X0164381Y0044937D03*
X0155798Y0044937D03*
X0155798Y0034937D03*
X0164381Y0034937D03*
X0164381Y0024937D03*
X0155798Y0024937D03*
X0194381Y0024937D03*
X0194381Y0034937D03*
X0194381Y0044937D03*
X0194381Y0054937D03*
X0194381Y0064937D03*
X0194381Y0074937D03*
X0194381Y0084937D03*
X0194381Y0093835D03*
X0194381Y0103835D03*
X0194381Y0113835D03*
X0194381Y0123835D03*
X0194381Y0133835D03*
X0194381Y0143835D03*
X0194381Y0153835D03*
D11*
X0045523Y0033860D02*
X0045523Y0026934D01*
X0045763Y0027293D01*
X0046277Y0027807D01*
X0046883Y0028212D01*
X0047555Y0028490D01*
X0048269Y0028632D01*
X0048338Y0028632D01*
X0048338Y0025232D01*
X0048928Y0025232D01*
X0052328Y0025232D01*
X0052328Y0025301D01*
X0052186Y0026015D01*
X0051908Y0026687D01*
X0051503Y0027293D01*
X0050989Y0027807D01*
X0050383Y0028212D01*
X0049711Y0028490D01*
X0048997Y0028632D01*
X0048928Y0028632D01*
X0048928Y0025232D01*
X0048928Y0024642D01*
X0052328Y0024642D01*
X0052328Y0024573D01*
X0052186Y0023859D01*
X0051908Y0023187D01*
X0051503Y0022581D01*
X0050989Y0022067D01*
X0050688Y0021866D01*
X0077460Y0021866D01*
X0076772Y0022151D01*
X0075847Y0023076D01*
X0075347Y0024283D01*
X0075347Y0025591D01*
X0075847Y0026798D01*
X0076772Y0027723D01*
X0077979Y0028223D01*
X0079287Y0028223D01*
X0080494Y0027723D01*
X0081419Y0026798D01*
X0081743Y0026014D01*
X0081743Y0033860D01*
X0081419Y0033076D01*
X0080494Y0032151D01*
X0079287Y0031651D01*
X0077979Y0031651D01*
X0076772Y0032151D01*
X0075847Y0033076D01*
X0075347Y0034283D01*
X0075347Y0035591D01*
X0075847Y0036798D01*
X0076772Y0037723D01*
X0077979Y0038223D01*
X0079287Y0038223D01*
X0080494Y0037723D01*
X0081419Y0036798D01*
X0081743Y0036014D01*
X0081743Y0043860D01*
X0081419Y0043076D01*
X0080494Y0042151D01*
X0079287Y0041651D01*
X0077979Y0041651D01*
X0076772Y0042151D01*
X0075847Y0043076D01*
X0075347Y0044283D01*
X0075347Y0045591D01*
X0075847Y0046798D01*
X0076772Y0047723D01*
X0077979Y0048223D01*
X0079287Y0048223D01*
X0080494Y0047723D01*
X0081419Y0046798D01*
X0081743Y0046014D01*
X0081743Y0053860D01*
X0081419Y0053076D01*
X0080494Y0052151D01*
X0079287Y0051651D01*
X0077979Y0051651D01*
X0076772Y0052151D01*
X0075847Y0053076D01*
X0075347Y0054283D01*
X0075347Y0055591D01*
X0075847Y0056798D01*
X0076772Y0057723D01*
X0077979Y0058223D01*
X0079287Y0058223D01*
X0080494Y0057723D01*
X0081419Y0056798D01*
X0081743Y0056014D01*
X0081743Y0063860D01*
X0081419Y0063076D01*
X0080494Y0062151D01*
X0079287Y0061651D01*
X0077979Y0061651D01*
X0076772Y0062151D01*
X0075847Y0063076D01*
X0075347Y0064283D01*
X0075347Y0065591D01*
X0075847Y0066798D01*
X0076772Y0067723D01*
X0077979Y0068223D01*
X0079287Y0068223D01*
X0080494Y0067723D01*
X0081419Y0066798D01*
X0081743Y0066014D01*
X0081743Y0073860D01*
X0081419Y0073076D01*
X0080494Y0072151D01*
X0079287Y0071651D01*
X0077979Y0071651D01*
X0076772Y0072151D01*
X0075847Y0073076D01*
X0075347Y0074283D01*
X0075347Y0075591D01*
X0075847Y0076798D01*
X0076772Y0077723D01*
X0077979Y0078223D01*
X0079287Y0078223D01*
X0080494Y0077723D01*
X0081419Y0076798D01*
X0081743Y0076014D01*
X0081743Y0083860D01*
X0081419Y0083076D01*
X0080494Y0082151D01*
X0079287Y0081651D01*
X0077979Y0081651D01*
X0076772Y0082151D01*
X0075847Y0083076D01*
X0075347Y0084283D01*
X0075347Y0085591D01*
X0075847Y0086798D01*
X0076772Y0087723D01*
X0077979Y0088223D01*
X0079287Y0088223D01*
X0080494Y0087723D01*
X0081419Y0086798D01*
X0081743Y0086014D01*
X0081743Y0088402D01*
X0045523Y0088402D01*
X0045523Y0086014D01*
X0045847Y0086798D01*
X0046772Y0087723D01*
X0047979Y0088223D01*
X0049287Y0088223D01*
X0050494Y0087723D01*
X0051419Y0086798D01*
X0051919Y0085591D01*
X0051919Y0084283D01*
X0051419Y0083076D01*
X0050494Y0082151D01*
X0049287Y0081651D01*
X0047979Y0081651D01*
X0046772Y0082151D01*
X0045847Y0083076D01*
X0045523Y0083860D01*
X0045523Y0076014D01*
X0045847Y0076798D01*
X0046772Y0077723D01*
X0047979Y0078223D01*
X0049287Y0078223D01*
X0050494Y0077723D01*
X0051419Y0076798D01*
X0051919Y0075591D01*
X0051919Y0074283D01*
X0051419Y0073076D01*
X0050494Y0072151D01*
X0049287Y0071651D01*
X0047979Y0071651D01*
X0046772Y0072151D01*
X0045847Y0073076D01*
X0045523Y0073860D01*
X0045523Y0066014D01*
X0045847Y0066798D01*
X0046772Y0067723D01*
X0047979Y0068223D01*
X0049287Y0068223D01*
X0050494Y0067723D01*
X0051419Y0066798D01*
X0051919Y0065591D01*
X0051919Y0064283D01*
X0051419Y0063076D01*
X0050494Y0062151D01*
X0049287Y0061651D01*
X0047979Y0061651D01*
X0046772Y0062151D01*
X0045847Y0063076D01*
X0045523Y0063860D01*
X0045523Y0056014D01*
X0045847Y0056798D01*
X0046772Y0057723D01*
X0047979Y0058223D01*
X0049287Y0058223D01*
X0050494Y0057723D01*
X0051419Y0056798D01*
X0051919Y0055591D01*
X0051919Y0054283D01*
X0051419Y0053076D01*
X0050494Y0052151D01*
X0049287Y0051651D01*
X0047979Y0051651D01*
X0046772Y0052151D01*
X0045847Y0053076D01*
X0045523Y0053860D01*
X0045523Y0046014D01*
X0045847Y0046798D01*
X0046772Y0047723D01*
X0047979Y0048223D01*
X0049287Y0048223D01*
X0050494Y0047723D01*
X0051419Y0046798D01*
X0051919Y0045591D01*
X0051919Y0044283D01*
X0051419Y0043076D01*
X0050494Y0042151D01*
X0049287Y0041651D01*
X0047979Y0041651D01*
X0046772Y0042151D01*
X0045847Y0043076D01*
X0045523Y0043860D01*
X0045523Y0036014D01*
X0045847Y0036798D01*
X0046772Y0037723D01*
X0047979Y0038223D01*
X0049287Y0038223D01*
X0050494Y0037723D01*
X0051419Y0036798D01*
X0051919Y0035591D01*
X0051919Y0034283D01*
X0051419Y0033076D01*
X0050494Y0032151D01*
X0049287Y0031651D01*
X0047979Y0031651D01*
X0046772Y0032151D01*
X0045847Y0033076D01*
X0045523Y0033860D01*
X0045523Y0033398D02*
X0045714Y0033398D01*
X0045523Y0032809D02*
X0046114Y0032809D01*
X0046703Y0032220D02*
X0045523Y0032220D01*
X0045523Y0031631D02*
X0081743Y0031631D01*
X0081743Y0031042D02*
X0045523Y0031042D01*
X0045523Y0030453D02*
X0081743Y0030453D01*
X0081743Y0029864D02*
X0045523Y0029864D01*
X0045523Y0029275D02*
X0081743Y0029275D01*
X0081743Y0028686D02*
X0045523Y0028686D01*
X0045523Y0028097D02*
X0046711Y0028097D01*
X0045978Y0027508D02*
X0045523Y0027508D01*
X0048338Y0027508D02*
X0048928Y0027508D01*
X0048928Y0028097D02*
X0048338Y0028097D01*
X0048338Y0026919D02*
X0048928Y0026919D01*
X0048928Y0026330D02*
X0048338Y0026330D01*
X0048338Y0025741D02*
X0048928Y0025741D01*
X0048928Y0025152D02*
X0075347Y0025152D01*
X0075347Y0024562D02*
X0052326Y0024562D01*
X0052209Y0023973D02*
X0075476Y0023973D01*
X0075720Y0023384D02*
X0051990Y0023384D01*
X0051646Y0022795D02*
X0076128Y0022795D01*
X0076717Y0022206D02*
X0051128Y0022206D01*
X0052241Y0025741D02*
X0075409Y0025741D01*
X0075653Y0026330D02*
X0052056Y0026330D01*
X0051753Y0026919D02*
X0075968Y0026919D01*
X0076557Y0027508D02*
X0051288Y0027508D01*
X0050555Y0028097D02*
X0077675Y0028097D01*
X0079591Y0028097D02*
X0081743Y0028097D01*
X0081743Y0027508D02*
X0080709Y0027508D01*
X0081298Y0026919D02*
X0081743Y0026919D01*
X0081743Y0026330D02*
X0081613Y0026330D01*
X0084105Y0026934D02*
X0084105Y0033860D01*
X0084430Y0033076D01*
X0085354Y0032151D01*
X0086562Y0031651D01*
X0087869Y0031651D01*
X0089077Y0032151D01*
X0090001Y0033076D01*
X0090502Y0034283D01*
X0090502Y0035591D01*
X0090001Y0036798D01*
X0089077Y0037723D01*
X0087869Y0038223D01*
X0086562Y0038223D01*
X0085354Y0037723D01*
X0084430Y0036798D01*
X0084105Y0036014D01*
X0084105Y0043860D01*
X0084430Y0043076D01*
X0085354Y0042151D01*
X0086562Y0041651D01*
X0087869Y0041651D01*
X0089077Y0042151D01*
X0090001Y0043076D01*
X0090502Y0044283D01*
X0090502Y0045591D01*
X0090001Y0046798D01*
X0089077Y0047723D01*
X0087869Y0048223D01*
X0086562Y0048223D01*
X0085354Y0047723D01*
X0084430Y0046798D01*
X0084105Y0046014D01*
X0084105Y0053860D01*
X0084430Y0053076D01*
X0085354Y0052151D01*
X0086562Y0051651D01*
X0087869Y0051651D01*
X0089077Y0052151D01*
X0090001Y0053076D01*
X0090502Y0054283D01*
X0090502Y0055591D01*
X0090001Y0056798D01*
X0089077Y0057723D01*
X0087869Y0058223D01*
X0086562Y0058223D01*
X0085354Y0057723D01*
X0084430Y0056798D01*
X0084105Y0056014D01*
X0084105Y0063860D01*
X0084430Y0063076D01*
X0085354Y0062151D01*
X0086562Y0061651D01*
X0087869Y0061651D01*
X0089077Y0062151D01*
X0090001Y0063076D01*
X0090502Y0064283D01*
X0090502Y0065591D01*
X0090001Y0066798D01*
X0089077Y0067723D01*
X0087869Y0068223D01*
X0086562Y0068223D01*
X0085354Y0067723D01*
X0084430Y0066798D01*
X0084105Y0066014D01*
X0084105Y0073860D01*
X0084430Y0073076D01*
X0085354Y0072151D01*
X0086562Y0071651D01*
X0087869Y0071651D01*
X0089077Y0072151D01*
X0090001Y0073076D01*
X0090502Y0074283D01*
X0090502Y0075591D01*
X0090001Y0076798D01*
X0089077Y0077723D01*
X0087869Y0078223D01*
X0086562Y0078223D01*
X0085354Y0077723D01*
X0084430Y0076798D01*
X0084105Y0076014D01*
X0084105Y0083860D01*
X0084430Y0083076D01*
X0085354Y0082151D01*
X0086562Y0081651D01*
X0087869Y0081651D01*
X0089077Y0082151D01*
X0090001Y0083076D01*
X0090502Y0084283D01*
X0090502Y0085591D01*
X0090001Y0086798D01*
X0089077Y0087723D01*
X0087869Y0088223D01*
X0086562Y0088223D01*
X0085354Y0087723D01*
X0084430Y0086798D01*
X0084105Y0086014D01*
X0084105Y0088402D01*
X0120326Y0088402D01*
X0120326Y0086014D01*
X0120001Y0086798D01*
X0119077Y0087723D01*
X0117869Y0088223D01*
X0116562Y0088223D01*
X0115354Y0087723D01*
X0114430Y0086798D01*
X0113930Y0085591D01*
X0113930Y0084283D01*
X0114430Y0083076D01*
X0115354Y0082151D01*
X0116562Y0081651D01*
X0117869Y0081651D01*
X0119077Y0082151D01*
X0120001Y0083076D01*
X0120326Y0083860D01*
X0120326Y0076014D01*
X0120001Y0076798D01*
X0119077Y0077723D01*
X0117869Y0078223D01*
X0116562Y0078223D01*
X0115354Y0077723D01*
X0114430Y0076798D01*
X0113930Y0075591D01*
X0113930Y0074283D01*
X0114430Y0073076D01*
X0115354Y0072151D01*
X0116562Y0071651D01*
X0117869Y0071651D01*
X0119077Y0072151D01*
X0120001Y0073076D01*
X0120326Y0073860D01*
X0120326Y0066014D01*
X0120001Y0066798D01*
X0119077Y0067723D01*
X0117869Y0068223D01*
X0116562Y0068223D01*
X0115354Y0067723D01*
X0114430Y0066798D01*
X0113930Y0065591D01*
X0113930Y0064283D01*
X0114430Y0063076D01*
X0115354Y0062151D01*
X0116562Y0061651D01*
X0117869Y0061651D01*
X0119077Y0062151D01*
X0120001Y0063076D01*
X0120326Y0063860D01*
X0120326Y0056014D01*
X0120001Y0056798D01*
X0119077Y0057723D01*
X0117869Y0058223D01*
X0116562Y0058223D01*
X0115354Y0057723D01*
X0114430Y0056798D01*
X0113930Y0055591D01*
X0113930Y0054283D01*
X0114430Y0053076D01*
X0115354Y0052151D01*
X0116562Y0051651D01*
X0117869Y0051651D01*
X0119077Y0052151D01*
X0120001Y0053076D01*
X0120326Y0053860D01*
X0120326Y0046014D01*
X0120001Y0046798D01*
X0119077Y0047723D01*
X0117869Y0048223D01*
X0116562Y0048223D01*
X0115354Y0047723D01*
X0114430Y0046798D01*
X0113930Y0045591D01*
X0113930Y0044283D01*
X0114430Y0043076D01*
X0115354Y0042151D01*
X0116562Y0041651D01*
X0117869Y0041651D01*
X0119077Y0042151D01*
X0120001Y0043076D01*
X0120326Y0043860D01*
X0120326Y0036014D01*
X0120001Y0036798D01*
X0119077Y0037723D01*
X0117869Y0038223D01*
X0116562Y0038223D01*
X0115354Y0037723D01*
X0114430Y0036798D01*
X0113930Y0035591D01*
X0113930Y0034283D01*
X0114430Y0033076D01*
X0115354Y0032151D01*
X0116562Y0031651D01*
X0117869Y0031651D01*
X0119077Y0032151D01*
X0120001Y0033076D01*
X0120326Y0033860D01*
X0120326Y0026014D01*
X0120001Y0026798D01*
X0119077Y0027723D01*
X0117869Y0028223D01*
X0116562Y0028223D01*
X0115354Y0027723D01*
X0114430Y0026798D01*
X0113930Y0025591D01*
X0113930Y0024283D01*
X0114430Y0023076D01*
X0115354Y0022151D01*
X0116043Y0021866D01*
X0089271Y0021866D01*
X0089571Y0022067D01*
X0090086Y0022581D01*
X0090490Y0023187D01*
X0090769Y0023859D01*
X0090911Y0024573D01*
X0090911Y0024642D01*
X0087511Y0024642D01*
X0087511Y0025232D01*
X0090911Y0025232D01*
X0090911Y0025301D01*
X0090769Y0026015D01*
X0090490Y0026687D01*
X0090086Y0027293D01*
X0089571Y0027807D01*
X0088966Y0028212D01*
X0088294Y0028490D01*
X0087580Y0028632D01*
X0087511Y0028632D01*
X0087511Y0025232D01*
X0086920Y0025232D01*
X0086920Y0028632D01*
X0086852Y0028632D01*
X0086138Y0028490D01*
X0085465Y0028212D01*
X0084860Y0027807D01*
X0084345Y0027293D01*
X0084105Y0026934D01*
X0084105Y0027508D02*
X0084561Y0027508D01*
X0084105Y0028097D02*
X0085293Y0028097D01*
X0084105Y0028686D02*
X0120326Y0028686D01*
X0120326Y0029275D02*
X0084105Y0029275D01*
X0084105Y0029864D02*
X0120326Y0029864D01*
X0120326Y0030453D02*
X0084105Y0030453D01*
X0084105Y0031042D02*
X0120326Y0031042D01*
X0120326Y0031631D02*
X0084105Y0031631D01*
X0084105Y0032220D02*
X0085286Y0032220D01*
X0084696Y0032809D02*
X0084105Y0032809D01*
X0084105Y0033398D02*
X0084296Y0033398D01*
X0081743Y0033398D02*
X0081552Y0033398D01*
X0081743Y0032809D02*
X0081152Y0032809D01*
X0080563Y0032220D02*
X0081743Y0032220D01*
X0076703Y0032220D02*
X0050563Y0032220D01*
X0051152Y0032809D02*
X0076114Y0032809D01*
X0075714Y0033398D02*
X0051552Y0033398D01*
X0051796Y0033988D02*
X0075470Y0033988D01*
X0075347Y0034577D02*
X0051919Y0034577D01*
X0051919Y0035166D02*
X0075347Y0035166D01*
X0075415Y0035755D02*
X0051851Y0035755D01*
X0051607Y0036344D02*
X0075659Y0036344D01*
X0075982Y0036933D02*
X0051284Y0036933D01*
X0050695Y0037522D02*
X0076571Y0037522D01*
X0077709Y0038111D02*
X0049557Y0038111D01*
X0047709Y0038111D02*
X0045523Y0038111D01*
X0045523Y0038700D02*
X0081743Y0038700D01*
X0081743Y0039289D02*
X0045523Y0039289D01*
X0045523Y0039878D02*
X0081743Y0039878D01*
X0081743Y0040467D02*
X0045523Y0040467D01*
X0045523Y0041056D02*
X0081743Y0041056D01*
X0081743Y0041645D02*
X0045523Y0041645D01*
X0045523Y0042234D02*
X0046689Y0042234D01*
X0046100Y0042823D02*
X0045523Y0042823D01*
X0045523Y0043412D02*
X0045708Y0043412D01*
X0045665Y0046358D02*
X0045523Y0046358D01*
X0045523Y0046947D02*
X0045996Y0046947D01*
X0045523Y0047536D02*
X0046585Y0047536D01*
X0045523Y0048125D02*
X0047743Y0048125D01*
X0049523Y0048125D02*
X0077743Y0048125D01*
X0076585Y0047536D02*
X0050681Y0047536D01*
X0051270Y0046947D02*
X0075996Y0046947D01*
X0075665Y0046358D02*
X0051601Y0046358D01*
X0051845Y0045769D02*
X0075421Y0045769D01*
X0075347Y0045180D02*
X0051919Y0045180D01*
X0051919Y0044591D02*
X0075347Y0044591D01*
X0075464Y0044002D02*
X0051802Y0044002D01*
X0051558Y0043412D02*
X0075708Y0043412D01*
X0076100Y0042823D02*
X0051166Y0042823D01*
X0050577Y0042234D02*
X0076689Y0042234D01*
X0080577Y0042234D02*
X0081743Y0042234D01*
X0081743Y0042823D02*
X0081166Y0042823D01*
X0081558Y0043412D02*
X0081743Y0043412D01*
X0084105Y0043412D02*
X0084291Y0043412D01*
X0084105Y0042823D02*
X0084682Y0042823D01*
X0084105Y0042234D02*
X0085271Y0042234D01*
X0084105Y0041645D02*
X0120326Y0041645D01*
X0120326Y0041056D02*
X0084105Y0041056D01*
X0084105Y0040467D02*
X0120326Y0040467D01*
X0120326Y0039878D02*
X0084105Y0039878D01*
X0084105Y0039289D02*
X0120326Y0039289D01*
X0120326Y0038700D02*
X0084105Y0038700D01*
X0084105Y0038111D02*
X0086292Y0038111D01*
X0085154Y0037522D02*
X0084105Y0037522D01*
X0084105Y0036933D02*
X0084565Y0036933D01*
X0084242Y0036344D02*
X0084105Y0036344D01*
X0081743Y0036344D02*
X0081607Y0036344D01*
X0081743Y0036933D02*
X0081284Y0036933D01*
X0081743Y0037522D02*
X0080695Y0037522D01*
X0081743Y0038111D02*
X0079557Y0038111D01*
X0081601Y0046358D02*
X0081743Y0046358D01*
X0081743Y0046947D02*
X0081270Y0046947D01*
X0081743Y0047536D02*
X0080681Y0047536D01*
X0081743Y0048125D02*
X0079523Y0048125D01*
X0081743Y0048714D02*
X0045523Y0048714D01*
X0045523Y0049303D02*
X0081743Y0049303D01*
X0081743Y0049892D02*
X0045523Y0049892D01*
X0045523Y0050481D02*
X0081743Y0050481D01*
X0081743Y0051070D02*
X0045523Y0051070D01*
X0045523Y0051659D02*
X0047960Y0051659D01*
X0049306Y0051659D02*
X0077960Y0051659D01*
X0079306Y0051659D02*
X0081743Y0051659D01*
X0081743Y0052248D02*
X0080591Y0052248D01*
X0081180Y0052837D02*
X0081743Y0052837D01*
X0081743Y0053427D02*
X0081564Y0053427D01*
X0084105Y0053427D02*
X0084285Y0053427D01*
X0084105Y0052837D02*
X0084668Y0052837D01*
X0084105Y0052248D02*
X0085257Y0052248D01*
X0084105Y0051659D02*
X0086542Y0051659D01*
X0087889Y0051659D02*
X0116542Y0051659D01*
X0117889Y0051659D02*
X0120326Y0051659D01*
X0120326Y0051070D02*
X0084105Y0051070D01*
X0084105Y0050481D02*
X0120326Y0050481D01*
X0120326Y0049892D02*
X0084105Y0049892D01*
X0084105Y0049303D02*
X0120326Y0049303D01*
X0120326Y0048714D02*
X0084105Y0048714D01*
X0084105Y0048125D02*
X0086326Y0048125D01*
X0085168Y0047536D02*
X0084105Y0047536D01*
X0084105Y0046947D02*
X0084579Y0046947D01*
X0084248Y0046358D02*
X0084105Y0046358D01*
X0088105Y0048125D02*
X0116326Y0048125D01*
X0115168Y0047536D02*
X0089264Y0047536D01*
X0089853Y0046947D02*
X0114579Y0046947D01*
X0114248Y0046358D02*
X0090184Y0046358D01*
X0090428Y0045769D02*
X0114004Y0045769D01*
X0113930Y0045180D02*
X0090502Y0045180D01*
X0090502Y0044591D02*
X0113930Y0044591D01*
X0114047Y0044002D02*
X0090385Y0044002D01*
X0090141Y0043412D02*
X0114291Y0043412D01*
X0114682Y0042823D02*
X0089749Y0042823D01*
X0089160Y0042234D02*
X0115271Y0042234D01*
X0119160Y0042234D02*
X0120326Y0042234D01*
X0120326Y0042823D02*
X0119749Y0042823D01*
X0120141Y0043412D02*
X0120326Y0043412D01*
X0122688Y0043412D02*
X0122873Y0043412D01*
X0123013Y0043076D02*
X0123937Y0042151D01*
X0125145Y0041651D01*
X0126452Y0041651D01*
X0127660Y0042151D01*
X0128584Y0043076D01*
X0129084Y0044283D01*
X0129084Y0045591D01*
X0128584Y0046798D01*
X0127660Y0047723D01*
X0126452Y0048223D01*
X0125145Y0048223D01*
X0123937Y0047723D01*
X0123013Y0046798D01*
X0122688Y0046014D01*
X0122688Y0053860D01*
X0123013Y0053076D01*
X0123937Y0052151D01*
X0125145Y0051651D01*
X0126452Y0051651D01*
X0127660Y0052151D01*
X0128584Y0053076D01*
X0129084Y0054283D01*
X0129084Y0055591D01*
X0128584Y0056798D01*
X0127660Y0057723D01*
X0126452Y0058223D01*
X0125145Y0058223D01*
X0123937Y0057723D01*
X0123013Y0056798D01*
X0122688Y0056014D01*
X0122688Y0063860D01*
X0123013Y0063076D01*
X0123937Y0062151D01*
X0125145Y0061651D01*
X0126452Y0061651D01*
X0127660Y0062151D01*
X0128584Y0063076D01*
X0129084Y0064283D01*
X0129084Y0065591D01*
X0128584Y0066798D01*
X0127660Y0067723D01*
X0126452Y0068223D01*
X0125145Y0068223D01*
X0123937Y0067723D01*
X0123013Y0066798D01*
X0122688Y0066014D01*
X0122688Y0073860D01*
X0123013Y0073076D01*
X0123937Y0072151D01*
X0125145Y0071651D01*
X0126452Y0071651D01*
X0127660Y0072151D01*
X0128584Y0073076D01*
X0129084Y0074283D01*
X0129084Y0075591D01*
X0128584Y0076798D01*
X0127660Y0077723D01*
X0126452Y0078223D01*
X0125145Y0078223D01*
X0123937Y0077723D01*
X0123013Y0076798D01*
X0122688Y0076014D01*
X0122688Y0083860D01*
X0123013Y0083076D01*
X0123937Y0082151D01*
X0125145Y0081651D01*
X0126452Y0081651D01*
X0127660Y0082151D01*
X0128584Y0083076D01*
X0129084Y0084283D01*
X0129084Y0085591D01*
X0128584Y0086798D01*
X0127660Y0087723D01*
X0126452Y0088223D01*
X0125145Y0088223D01*
X0123937Y0087723D01*
X0123013Y0086798D01*
X0122688Y0086014D01*
X0122688Y0088402D01*
X0158909Y0088402D01*
X0158909Y0086014D01*
X0158584Y0086798D01*
X0157660Y0087723D01*
X0156452Y0088223D01*
X0155145Y0088223D01*
X0153937Y0087723D01*
X0153013Y0086798D01*
X0152513Y0085591D01*
X0152513Y0084283D01*
X0153013Y0083076D01*
X0153937Y0082151D01*
X0155145Y0081651D01*
X0156452Y0081651D01*
X0157660Y0082151D01*
X0158584Y0083076D01*
X0158909Y0083860D01*
X0158909Y0076014D01*
X0158584Y0076798D01*
X0157660Y0077723D01*
X0156452Y0078223D01*
X0155145Y0078223D01*
X0153937Y0077723D01*
X0153013Y0076798D01*
X0152513Y0075591D01*
X0152513Y0074283D01*
X0153013Y0073076D01*
X0153937Y0072151D01*
X0155145Y0071651D01*
X0156452Y0071651D01*
X0157660Y0072151D01*
X0158584Y0073076D01*
X0158909Y0073860D01*
X0158909Y0066014D01*
X0158584Y0066798D01*
X0157660Y0067723D01*
X0156452Y0068223D01*
X0155145Y0068223D01*
X0153937Y0067723D01*
X0153013Y0066798D01*
X0152513Y0065591D01*
X0152513Y0064283D01*
X0153013Y0063076D01*
X0153937Y0062151D01*
X0155145Y0061651D01*
X0156452Y0061651D01*
X0157660Y0062151D01*
X0158584Y0063076D01*
X0158909Y0063860D01*
X0158909Y0056014D01*
X0158584Y0056798D01*
X0157660Y0057723D01*
X0156452Y0058223D01*
X0155145Y0058223D01*
X0153937Y0057723D01*
X0153013Y0056798D01*
X0152513Y0055591D01*
X0152513Y0054283D01*
X0153013Y0053076D01*
X0153937Y0052151D01*
X0155145Y0051651D01*
X0156452Y0051651D01*
X0157660Y0052151D01*
X0158584Y0053076D01*
X0158909Y0053860D01*
X0158909Y0046014D01*
X0158584Y0046798D01*
X0157660Y0047723D01*
X0156452Y0048223D01*
X0155145Y0048223D01*
X0153937Y0047723D01*
X0153013Y0046798D01*
X0152513Y0045591D01*
X0152513Y0044283D01*
X0153013Y0043076D01*
X0153937Y0042151D01*
X0155145Y0041651D01*
X0156452Y0041651D01*
X0157660Y0042151D01*
X0158584Y0043076D01*
X0158909Y0043860D01*
X0158909Y0036014D01*
X0158584Y0036798D01*
X0157660Y0037723D01*
X0156452Y0038223D01*
X0155145Y0038223D01*
X0153937Y0037723D01*
X0153013Y0036798D01*
X0152513Y0035591D01*
X0152513Y0034283D01*
X0153013Y0033076D01*
X0153937Y0032151D01*
X0155145Y0031651D01*
X0156452Y0031651D01*
X0157660Y0032151D01*
X0158584Y0033076D01*
X0158909Y0033860D01*
X0158909Y0026014D01*
X0158584Y0026798D01*
X0157660Y0027723D01*
X0156452Y0028223D01*
X0155145Y0028223D01*
X0153937Y0027723D01*
X0153013Y0026798D01*
X0152513Y0025591D01*
X0152513Y0024283D01*
X0153013Y0023076D01*
X0153937Y0022151D01*
X0154626Y0021866D01*
X0127854Y0021866D01*
X0128154Y0022067D01*
X0128669Y0022581D01*
X0129073Y0023187D01*
X0129352Y0023859D01*
X0129494Y0024573D01*
X0129494Y0024642D01*
X0126094Y0024642D01*
X0126094Y0025232D01*
X0129494Y0025232D01*
X0129494Y0025301D01*
X0129352Y0026015D01*
X0129073Y0026687D01*
X0128669Y0027293D01*
X0128154Y0027807D01*
X0127549Y0028212D01*
X0126876Y0028490D01*
X0126162Y0028632D01*
X0126094Y0028632D01*
X0126094Y0025232D01*
X0125503Y0025232D01*
X0125503Y0028632D01*
X0125434Y0028632D01*
X0124720Y0028490D01*
X0124048Y0028212D01*
X0123443Y0027807D01*
X0122928Y0027293D01*
X0122688Y0026934D01*
X0122688Y0033860D01*
X0123013Y0033076D01*
X0123937Y0032151D01*
X0125145Y0031651D01*
X0126452Y0031651D01*
X0127660Y0032151D01*
X0128584Y0033076D01*
X0129084Y0034283D01*
X0129084Y0035591D01*
X0128584Y0036798D01*
X0127660Y0037723D01*
X0126452Y0038223D01*
X0125145Y0038223D01*
X0123937Y0037723D01*
X0123013Y0036798D01*
X0122688Y0036014D01*
X0122688Y0043860D01*
X0123013Y0043076D01*
X0123265Y0042823D02*
X0122688Y0042823D01*
X0122688Y0042234D02*
X0123854Y0042234D01*
X0122688Y0041645D02*
X0158909Y0041645D01*
X0158909Y0041056D02*
X0122688Y0041056D01*
X0122688Y0040467D02*
X0158909Y0040467D01*
X0158909Y0039878D02*
X0122688Y0039878D01*
X0122688Y0039289D02*
X0158909Y0039289D01*
X0158909Y0038700D02*
X0122688Y0038700D01*
X0122688Y0038111D02*
X0124875Y0038111D01*
X0123736Y0037522D02*
X0122688Y0037522D01*
X0122688Y0036933D02*
X0123147Y0036933D01*
X0122825Y0036344D02*
X0122688Y0036344D01*
X0120326Y0036344D02*
X0120190Y0036344D01*
X0120326Y0036933D02*
X0119867Y0036933D01*
X0120326Y0037522D02*
X0119278Y0037522D01*
X0120326Y0038111D02*
X0118139Y0038111D01*
X0116292Y0038111D02*
X0088139Y0038111D01*
X0089278Y0037522D02*
X0115154Y0037522D01*
X0114565Y0036933D02*
X0089867Y0036933D01*
X0090190Y0036344D02*
X0114242Y0036344D01*
X0113998Y0035755D02*
X0090434Y0035755D01*
X0090502Y0035166D02*
X0113930Y0035166D01*
X0113930Y0034577D02*
X0090502Y0034577D01*
X0090379Y0033988D02*
X0114052Y0033988D01*
X0114296Y0033398D02*
X0090135Y0033398D01*
X0089735Y0032809D02*
X0114696Y0032809D01*
X0115286Y0032220D02*
X0089146Y0032220D01*
X0089138Y0028097D02*
X0116258Y0028097D01*
X0115140Y0027508D02*
X0089871Y0027508D01*
X0090336Y0026919D02*
X0114551Y0026919D01*
X0114236Y0026330D02*
X0090639Y0026330D01*
X0090823Y0025741D02*
X0113992Y0025741D01*
X0113930Y0025152D02*
X0087511Y0025152D01*
X0087511Y0025741D02*
X0086920Y0025741D01*
X0086920Y0026330D02*
X0087511Y0026330D01*
X0087511Y0026919D02*
X0086920Y0026919D01*
X0086920Y0027508D02*
X0087511Y0027508D01*
X0087511Y0028097D02*
X0086920Y0028097D01*
X0090909Y0024562D02*
X0113930Y0024562D01*
X0114058Y0023973D02*
X0090792Y0023973D01*
X0090572Y0023384D02*
X0114302Y0023384D01*
X0114711Y0022795D02*
X0090229Y0022795D01*
X0089711Y0022206D02*
X0115300Y0022206D01*
X0120195Y0026330D02*
X0120326Y0026330D01*
X0120326Y0026919D02*
X0119881Y0026919D01*
X0120326Y0027508D02*
X0119292Y0027508D01*
X0120326Y0028097D02*
X0118173Y0028097D01*
X0119146Y0032220D02*
X0120326Y0032220D01*
X0120326Y0032809D02*
X0119735Y0032809D01*
X0120135Y0033398D02*
X0120326Y0033398D01*
X0122688Y0033398D02*
X0122879Y0033398D01*
X0122688Y0032809D02*
X0123279Y0032809D01*
X0123868Y0032220D02*
X0122688Y0032220D01*
X0122688Y0031631D02*
X0158909Y0031631D01*
X0158909Y0031042D02*
X0122688Y0031042D01*
X0122688Y0030453D02*
X0158909Y0030453D01*
X0158909Y0029864D02*
X0122688Y0029864D01*
X0122688Y0029275D02*
X0158909Y0029275D01*
X0158909Y0028686D02*
X0122688Y0028686D01*
X0122688Y0028097D02*
X0123876Y0028097D01*
X0123143Y0027508D02*
X0122688Y0027508D01*
X0125503Y0027508D02*
X0126094Y0027508D01*
X0126094Y0028097D02*
X0125503Y0028097D01*
X0125503Y0026919D02*
X0126094Y0026919D01*
X0126094Y0026330D02*
X0125503Y0026330D01*
X0125503Y0025741D02*
X0126094Y0025741D01*
X0126094Y0025152D02*
X0152513Y0025152D01*
X0152513Y0024562D02*
X0129492Y0024562D01*
X0129374Y0023973D02*
X0152641Y0023973D01*
X0152885Y0023384D02*
X0129155Y0023384D01*
X0128812Y0022795D02*
X0153293Y0022795D01*
X0153882Y0022206D02*
X0128294Y0022206D01*
X0129406Y0025741D02*
X0152575Y0025741D01*
X0152819Y0026330D02*
X0129221Y0026330D01*
X0128918Y0026919D02*
X0153133Y0026919D01*
X0153722Y0027508D02*
X0128453Y0027508D01*
X0127721Y0028097D02*
X0154841Y0028097D01*
X0156756Y0028097D02*
X0158909Y0028097D01*
X0158909Y0027508D02*
X0157874Y0027508D01*
X0158463Y0026919D02*
X0158909Y0026919D01*
X0158909Y0026330D02*
X0158778Y0026330D01*
X0161271Y0026934D02*
X0161271Y0033860D01*
X0161595Y0033076D01*
X0162520Y0032151D01*
X0163727Y0031651D01*
X0165035Y0031651D01*
X0166242Y0032151D01*
X0167167Y0033076D01*
X0167667Y0034283D01*
X0167667Y0035591D01*
X0167167Y0036798D01*
X0166242Y0037723D01*
X0165035Y0038223D01*
X0163727Y0038223D01*
X0162520Y0037723D01*
X0161595Y0036798D01*
X0161271Y0036014D01*
X0161271Y0043860D01*
X0161595Y0043076D01*
X0162520Y0042151D01*
X0163727Y0041651D01*
X0165035Y0041651D01*
X0166242Y0042151D01*
X0167167Y0043076D01*
X0167667Y0044283D01*
X0167667Y0045591D01*
X0167167Y0046798D01*
X0166242Y0047723D01*
X0165035Y0048223D01*
X0163727Y0048223D01*
X0162520Y0047723D01*
X0161595Y0046798D01*
X0161271Y0046014D01*
X0161271Y0053860D01*
X0161595Y0053076D01*
X0162520Y0052151D01*
X0163727Y0051651D01*
X0165035Y0051651D01*
X0166242Y0052151D01*
X0167167Y0053076D01*
X0167667Y0054283D01*
X0167667Y0055591D01*
X0167167Y0056798D01*
X0166242Y0057723D01*
X0165035Y0058223D01*
X0163727Y0058223D01*
X0162520Y0057723D01*
X0161595Y0056798D01*
X0161271Y0056014D01*
X0161271Y0063860D01*
X0161595Y0063076D01*
X0162520Y0062151D01*
X0163727Y0061651D01*
X0165035Y0061651D01*
X0166242Y0062151D01*
X0167167Y0063076D01*
X0167667Y0064283D01*
X0167667Y0065591D01*
X0167167Y0066798D01*
X0166242Y0067723D01*
X0165035Y0068223D01*
X0163727Y0068223D01*
X0162520Y0067723D01*
X0161595Y0066798D01*
X0161271Y0066014D01*
X0161271Y0073860D01*
X0161595Y0073076D01*
X0162520Y0072151D01*
X0163727Y0071651D01*
X0165035Y0071651D01*
X0166242Y0072151D01*
X0167167Y0073076D01*
X0167667Y0074283D01*
X0167667Y0075591D01*
X0167167Y0076798D01*
X0166242Y0077723D01*
X0165035Y0078223D01*
X0163727Y0078223D01*
X0162520Y0077723D01*
X0161595Y0076798D01*
X0161271Y0076014D01*
X0161271Y0083860D01*
X0161595Y0083076D01*
X0162520Y0082151D01*
X0163727Y0081651D01*
X0165035Y0081651D01*
X0166242Y0082151D01*
X0167167Y0083076D01*
X0167667Y0084283D01*
X0167667Y0085591D01*
X0167167Y0086798D01*
X0166242Y0087723D01*
X0165035Y0088223D01*
X0163727Y0088223D01*
X0162520Y0087723D01*
X0161595Y0086798D01*
X0161271Y0086014D01*
X0161271Y0088402D01*
X0197491Y0088402D01*
X0197491Y0086014D01*
X0197167Y0086798D01*
X0196242Y0087723D01*
X0195035Y0088223D01*
X0193727Y0088223D01*
X0192520Y0087723D01*
X0191595Y0086798D01*
X0191095Y0085591D01*
X0191095Y0084283D01*
X0191595Y0083076D01*
X0192520Y0082151D01*
X0193727Y0081651D01*
X0195035Y0081651D01*
X0196242Y0082151D01*
X0197167Y0083076D01*
X0197491Y0083860D01*
X0197491Y0076014D01*
X0197167Y0076798D01*
X0196242Y0077723D01*
X0195035Y0078223D01*
X0193727Y0078223D01*
X0192520Y0077723D01*
X0191595Y0076798D01*
X0191095Y0075591D01*
X0191095Y0074283D01*
X0191595Y0073076D01*
X0192520Y0072151D01*
X0193727Y0071651D01*
X0195035Y0071651D01*
X0196242Y0072151D01*
X0197167Y0073076D01*
X0197491Y0073860D01*
X0197491Y0066014D01*
X0197167Y0066798D01*
X0196242Y0067723D01*
X0195035Y0068223D01*
X0193727Y0068223D01*
X0192520Y0067723D01*
X0191595Y0066798D01*
X0191095Y0065591D01*
X0191095Y0064283D01*
X0191595Y0063076D01*
X0192520Y0062151D01*
X0193727Y0061651D01*
X0195035Y0061651D01*
X0196242Y0062151D01*
X0197167Y0063076D01*
X0197491Y0063860D01*
X0197491Y0056014D01*
X0197167Y0056798D01*
X0196242Y0057723D01*
X0195035Y0058223D01*
X0193727Y0058223D01*
X0192520Y0057723D01*
X0191595Y0056798D01*
X0191095Y0055591D01*
X0191095Y0054283D01*
X0191595Y0053076D01*
X0192520Y0052151D01*
X0193727Y0051651D01*
X0195035Y0051651D01*
X0196242Y0052151D01*
X0197167Y0053076D01*
X0197491Y0053860D01*
X0197491Y0046014D01*
X0197167Y0046798D01*
X0196242Y0047723D01*
X0195035Y0048223D01*
X0193727Y0048223D01*
X0192520Y0047723D01*
X0191595Y0046798D01*
X0191095Y0045591D01*
X0191095Y0044283D01*
X0191595Y0043076D01*
X0192520Y0042151D01*
X0193727Y0041651D01*
X0195035Y0041651D01*
X0196242Y0042151D01*
X0197167Y0043076D01*
X0197491Y0043860D01*
X0197491Y0036014D01*
X0197167Y0036798D01*
X0196242Y0037723D01*
X0195035Y0038223D01*
X0193727Y0038223D01*
X0192520Y0037723D01*
X0191595Y0036798D01*
X0191095Y0035591D01*
X0191095Y0034283D01*
X0191595Y0033076D01*
X0192520Y0032151D01*
X0193727Y0031651D01*
X0195035Y0031651D01*
X0196242Y0032151D01*
X0197167Y0033076D01*
X0197491Y0033860D01*
X0197491Y0026014D01*
X0197167Y0026798D01*
X0196242Y0027723D01*
X0195035Y0028223D01*
X0193727Y0028223D01*
X0192520Y0027723D01*
X0191595Y0026798D01*
X0191095Y0025591D01*
X0191095Y0024283D01*
X0191595Y0023076D01*
X0192520Y0022151D01*
X0193209Y0021866D01*
X0166436Y0021866D01*
X0166737Y0022067D01*
X0167251Y0022581D01*
X0167656Y0023187D01*
X0167934Y0023859D01*
X0168076Y0024573D01*
X0168076Y0024642D01*
X0164676Y0024642D01*
X0164676Y0025232D01*
X0168076Y0025232D01*
X0168076Y0025301D01*
X0167934Y0026015D01*
X0167656Y0026687D01*
X0167251Y0027293D01*
X0166737Y0027807D01*
X0166131Y0028212D01*
X0165459Y0028490D01*
X0164745Y0028632D01*
X0164676Y0028632D01*
X0164676Y0025232D01*
X0164086Y0025232D01*
X0164086Y0028632D01*
X0164017Y0028632D01*
X0163303Y0028490D01*
X0162631Y0028212D01*
X0162025Y0027807D01*
X0161511Y0027293D01*
X0161271Y0026934D01*
X0161271Y0027508D02*
X0161726Y0027508D01*
X0161271Y0028097D02*
X0162459Y0028097D01*
X0161271Y0028686D02*
X0197491Y0028686D01*
X0197491Y0029275D02*
X0161271Y0029275D01*
X0161271Y0029864D02*
X0197491Y0029864D01*
X0197491Y0030453D02*
X0161271Y0030453D01*
X0161271Y0031042D02*
X0197491Y0031042D01*
X0197491Y0031631D02*
X0161271Y0031631D01*
X0161271Y0032220D02*
X0162451Y0032220D01*
X0161862Y0032809D02*
X0161271Y0032809D01*
X0161271Y0033398D02*
X0161462Y0033398D01*
X0158909Y0033398D02*
X0158718Y0033398D01*
X0158909Y0032809D02*
X0158318Y0032809D01*
X0157729Y0032220D02*
X0158909Y0032220D01*
X0153868Y0032220D02*
X0127729Y0032220D01*
X0128318Y0032809D02*
X0153279Y0032809D01*
X0152879Y0033398D02*
X0128718Y0033398D01*
X0128962Y0033988D02*
X0152635Y0033988D01*
X0152513Y0034577D02*
X0129084Y0034577D01*
X0129084Y0035166D02*
X0152513Y0035166D01*
X0152581Y0035755D02*
X0129016Y0035755D01*
X0128772Y0036344D02*
X0152825Y0036344D01*
X0153147Y0036933D02*
X0128449Y0036933D01*
X0127860Y0037522D02*
X0153736Y0037522D01*
X0154875Y0038111D02*
X0126722Y0038111D01*
X0127743Y0042234D02*
X0153854Y0042234D01*
X0153265Y0042823D02*
X0128332Y0042823D01*
X0128723Y0043412D02*
X0152873Y0043412D01*
X0152629Y0044002D02*
X0128967Y0044002D01*
X0129084Y0044591D02*
X0152513Y0044591D01*
X0152513Y0045180D02*
X0129084Y0045180D01*
X0129010Y0045769D02*
X0152586Y0045769D01*
X0152830Y0046358D02*
X0128766Y0046358D01*
X0128435Y0046947D02*
X0153161Y0046947D01*
X0153750Y0047536D02*
X0127846Y0047536D01*
X0126688Y0048125D02*
X0154909Y0048125D01*
X0156688Y0048125D02*
X0158909Y0048125D01*
X0158909Y0047536D02*
X0157846Y0047536D01*
X0158435Y0046947D02*
X0158909Y0046947D01*
X0158909Y0046358D02*
X0158766Y0046358D01*
X0161271Y0046358D02*
X0161413Y0046358D01*
X0161271Y0046947D02*
X0161744Y0046947D01*
X0161271Y0047536D02*
X0162333Y0047536D01*
X0161271Y0048125D02*
X0163491Y0048125D01*
X0165271Y0048125D02*
X0193491Y0048125D01*
X0192333Y0047536D02*
X0166429Y0047536D01*
X0167018Y0046947D02*
X0191744Y0046947D01*
X0191413Y0046358D02*
X0167349Y0046358D01*
X0167593Y0045769D02*
X0191169Y0045769D01*
X0191095Y0045180D02*
X0167667Y0045180D01*
X0167667Y0044591D02*
X0191095Y0044591D01*
X0191212Y0044002D02*
X0167550Y0044002D01*
X0167306Y0043412D02*
X0191456Y0043412D01*
X0191848Y0042823D02*
X0166914Y0042823D01*
X0166325Y0042234D02*
X0192437Y0042234D01*
X0196325Y0042234D02*
X0197491Y0042234D01*
X0197491Y0041645D02*
X0161271Y0041645D01*
X0161271Y0041056D02*
X0197491Y0041056D01*
X0197491Y0040467D02*
X0161271Y0040467D01*
X0161271Y0039878D02*
X0197491Y0039878D01*
X0197491Y0039289D02*
X0161271Y0039289D01*
X0161271Y0038700D02*
X0197491Y0038700D01*
X0197491Y0038111D02*
X0195305Y0038111D01*
X0196443Y0037522D02*
X0197491Y0037522D01*
X0197491Y0036933D02*
X0197032Y0036933D01*
X0197355Y0036344D02*
X0197491Y0036344D01*
X0197491Y0033398D02*
X0197300Y0033398D01*
X0197491Y0032809D02*
X0196900Y0032809D01*
X0196311Y0032220D02*
X0197491Y0032220D01*
X0197491Y0028097D02*
X0195339Y0028097D01*
X0196457Y0027508D02*
X0197491Y0027508D01*
X0197491Y0026919D02*
X0197046Y0026919D01*
X0197361Y0026330D02*
X0197491Y0026330D01*
X0193423Y0028097D02*
X0166303Y0028097D01*
X0167036Y0027508D02*
X0192305Y0027508D01*
X0191716Y0026919D02*
X0167501Y0026919D01*
X0167804Y0026330D02*
X0191401Y0026330D01*
X0191157Y0025741D02*
X0167989Y0025741D01*
X0168074Y0024562D02*
X0191095Y0024562D01*
X0191095Y0025152D02*
X0164676Y0025152D01*
X0164676Y0025741D02*
X0164086Y0025741D01*
X0164086Y0026330D02*
X0164676Y0026330D01*
X0164676Y0026919D02*
X0164086Y0026919D01*
X0164086Y0027508D02*
X0164676Y0027508D01*
X0164676Y0028097D02*
X0164086Y0028097D01*
X0166311Y0032220D02*
X0192451Y0032220D01*
X0191862Y0032809D02*
X0166900Y0032809D01*
X0167300Y0033398D02*
X0191462Y0033398D01*
X0191218Y0033988D02*
X0167544Y0033988D01*
X0167667Y0034577D02*
X0191095Y0034577D01*
X0191095Y0035166D02*
X0167667Y0035166D01*
X0167599Y0035755D02*
X0191163Y0035755D01*
X0191407Y0036344D02*
X0167355Y0036344D01*
X0167032Y0036933D02*
X0191730Y0036933D01*
X0192319Y0037522D02*
X0166443Y0037522D01*
X0165305Y0038111D02*
X0193457Y0038111D01*
X0196914Y0042823D02*
X0197491Y0042823D01*
X0197491Y0043412D02*
X0197306Y0043412D01*
X0197349Y0046358D02*
X0197491Y0046358D01*
X0197491Y0046947D02*
X0197018Y0046947D01*
X0197491Y0047536D02*
X0196429Y0047536D01*
X0197491Y0048125D02*
X0195271Y0048125D01*
X0197491Y0048714D02*
X0161271Y0048714D01*
X0161271Y0049303D02*
X0197491Y0049303D01*
X0197491Y0049892D02*
X0161271Y0049892D01*
X0161271Y0050481D02*
X0197491Y0050481D01*
X0197491Y0051070D02*
X0161271Y0051070D01*
X0161271Y0051659D02*
X0163708Y0051659D01*
X0165054Y0051659D02*
X0193708Y0051659D01*
X0195054Y0051659D02*
X0197491Y0051659D01*
X0197491Y0052248D02*
X0196339Y0052248D01*
X0196928Y0052837D02*
X0197491Y0052837D01*
X0197491Y0053427D02*
X0197312Y0053427D01*
X0197343Y0056372D02*
X0197491Y0056372D01*
X0197491Y0056961D02*
X0197004Y0056961D01*
X0197491Y0057550D02*
X0196415Y0057550D01*
X0197491Y0058139D02*
X0195237Y0058139D01*
X0193525Y0058139D02*
X0165237Y0058139D01*
X0166415Y0057550D02*
X0192347Y0057550D01*
X0191758Y0056961D02*
X0167004Y0056961D01*
X0167343Y0056372D02*
X0191419Y0056372D01*
X0191175Y0055783D02*
X0167587Y0055783D01*
X0167667Y0055194D02*
X0191095Y0055194D01*
X0191095Y0054605D02*
X0167667Y0054605D01*
X0167556Y0054016D02*
X0191206Y0054016D01*
X0191450Y0053427D02*
X0167312Y0053427D01*
X0166928Y0052837D02*
X0191834Y0052837D01*
X0192423Y0052248D02*
X0166339Y0052248D01*
X0162423Y0052248D02*
X0161271Y0052248D01*
X0161271Y0052837D02*
X0161834Y0052837D01*
X0161450Y0053427D02*
X0161271Y0053427D01*
X0158909Y0053427D02*
X0158729Y0053427D01*
X0158909Y0052837D02*
X0158346Y0052837D01*
X0158909Y0052248D02*
X0157757Y0052248D01*
X0158909Y0051659D02*
X0156472Y0051659D01*
X0155125Y0051659D02*
X0126472Y0051659D01*
X0125125Y0051659D02*
X0122688Y0051659D01*
X0122688Y0051070D02*
X0158909Y0051070D01*
X0158909Y0050481D02*
X0122688Y0050481D01*
X0122688Y0049892D02*
X0158909Y0049892D01*
X0158909Y0049303D02*
X0122688Y0049303D01*
X0122688Y0048714D02*
X0158909Y0048714D01*
X0153840Y0052248D02*
X0127757Y0052248D01*
X0128346Y0052837D02*
X0153251Y0052837D01*
X0152867Y0053427D02*
X0128729Y0053427D01*
X0128973Y0054016D02*
X0152623Y0054016D01*
X0152513Y0054605D02*
X0129084Y0054605D01*
X0129084Y0055194D02*
X0152513Y0055194D01*
X0152592Y0055783D02*
X0129005Y0055783D01*
X0128761Y0056372D02*
X0152836Y0056372D01*
X0153175Y0056961D02*
X0128421Y0056961D01*
X0127832Y0057550D02*
X0153764Y0057550D01*
X0154943Y0058139D02*
X0126654Y0058139D01*
X0124943Y0058139D02*
X0122688Y0058139D01*
X0122688Y0057550D02*
X0123764Y0057550D01*
X0123175Y0056961D02*
X0122688Y0056961D01*
X0122688Y0056372D02*
X0122836Y0056372D01*
X0122688Y0058728D02*
X0158909Y0058728D01*
X0158909Y0058139D02*
X0156654Y0058139D01*
X0157832Y0057550D02*
X0158909Y0057550D01*
X0158909Y0056961D02*
X0158421Y0056961D01*
X0158761Y0056372D02*
X0158909Y0056372D01*
X0161271Y0056372D02*
X0161419Y0056372D01*
X0161271Y0056961D02*
X0161758Y0056961D01*
X0161271Y0057550D02*
X0162347Y0057550D01*
X0161271Y0058139D02*
X0163525Y0058139D01*
X0161271Y0058728D02*
X0197491Y0058728D01*
X0197491Y0059317D02*
X0161271Y0059317D01*
X0161271Y0059906D02*
X0197491Y0059906D01*
X0197491Y0060495D02*
X0161271Y0060495D01*
X0161271Y0061084D02*
X0197491Y0061084D01*
X0197491Y0061673D02*
X0195088Y0061673D01*
X0196353Y0062262D02*
X0197491Y0062262D01*
X0197491Y0062852D02*
X0196942Y0062852D01*
X0197318Y0063441D02*
X0197491Y0063441D01*
X0193674Y0061673D02*
X0165088Y0061673D01*
X0166353Y0062262D02*
X0192409Y0062262D01*
X0191820Y0062852D02*
X0166942Y0062852D01*
X0167318Y0063441D02*
X0191444Y0063441D01*
X0191200Y0064030D02*
X0167562Y0064030D01*
X0167667Y0064619D02*
X0191095Y0064619D01*
X0191095Y0065208D02*
X0167667Y0065208D01*
X0167581Y0065797D02*
X0191181Y0065797D01*
X0191425Y0066386D02*
X0167337Y0066386D01*
X0166990Y0066975D02*
X0191772Y0066975D01*
X0192361Y0067564D02*
X0166401Y0067564D01*
X0165203Y0068153D02*
X0193559Y0068153D01*
X0195203Y0068153D02*
X0197491Y0068153D01*
X0197491Y0067564D02*
X0196401Y0067564D01*
X0196990Y0066975D02*
X0197491Y0066975D01*
X0197491Y0066386D02*
X0197337Y0066386D01*
X0197491Y0068742D02*
X0161271Y0068742D01*
X0161271Y0068153D02*
X0163559Y0068153D01*
X0162361Y0067564D02*
X0161271Y0067564D01*
X0161271Y0066975D02*
X0161772Y0066975D01*
X0161425Y0066386D02*
X0161271Y0066386D01*
X0158909Y0066386D02*
X0158755Y0066386D01*
X0158909Y0066975D02*
X0158407Y0066975D01*
X0158909Y0067564D02*
X0157818Y0067564D01*
X0158909Y0068153D02*
X0156620Y0068153D01*
X0154977Y0068153D02*
X0126620Y0068153D01*
X0127818Y0067564D02*
X0153779Y0067564D01*
X0153189Y0066975D02*
X0128407Y0066975D01*
X0128755Y0066386D02*
X0152842Y0066386D01*
X0152598Y0065797D02*
X0128999Y0065797D01*
X0129084Y0065208D02*
X0152513Y0065208D01*
X0152513Y0064619D02*
X0129084Y0064619D01*
X0128979Y0064030D02*
X0152618Y0064030D01*
X0152862Y0063441D02*
X0128735Y0063441D01*
X0128360Y0062852D02*
X0153237Y0062852D01*
X0153826Y0062262D02*
X0127771Y0062262D01*
X0126506Y0061673D02*
X0155091Y0061673D01*
X0156506Y0061673D02*
X0158909Y0061673D01*
X0158909Y0061084D02*
X0122688Y0061084D01*
X0122688Y0060495D02*
X0158909Y0060495D01*
X0158909Y0059906D02*
X0122688Y0059906D01*
X0122688Y0059317D02*
X0158909Y0059317D01*
X0158909Y0062262D02*
X0157771Y0062262D01*
X0158360Y0062852D02*
X0158909Y0062852D01*
X0158909Y0063441D02*
X0158735Y0063441D01*
X0161271Y0063441D02*
X0161444Y0063441D01*
X0161271Y0062852D02*
X0161820Y0062852D01*
X0161271Y0062262D02*
X0162409Y0062262D01*
X0161271Y0061673D02*
X0163674Y0061673D01*
X0161271Y0069331D02*
X0197491Y0069331D01*
X0197491Y0069920D02*
X0161271Y0069920D01*
X0161271Y0070509D02*
X0197491Y0070509D01*
X0197491Y0071098D02*
X0161271Y0071098D01*
X0161271Y0071688D02*
X0163640Y0071688D01*
X0162395Y0072277D02*
X0161271Y0072277D01*
X0161271Y0072866D02*
X0161806Y0072866D01*
X0161438Y0073455D02*
X0161271Y0073455D01*
X0158909Y0073455D02*
X0158741Y0073455D01*
X0158909Y0072866D02*
X0158374Y0072866D01*
X0158909Y0072277D02*
X0157785Y0072277D01*
X0158909Y0071688D02*
X0156540Y0071688D01*
X0155057Y0071688D02*
X0126540Y0071688D01*
X0127785Y0072277D02*
X0153812Y0072277D01*
X0153223Y0072866D02*
X0128374Y0072866D01*
X0128741Y0073455D02*
X0152856Y0073455D01*
X0152612Y0074044D02*
X0128985Y0074044D01*
X0129084Y0074633D02*
X0152513Y0074633D01*
X0152513Y0075222D02*
X0129084Y0075222D01*
X0128993Y0075811D02*
X0152604Y0075811D01*
X0152848Y0076400D02*
X0128749Y0076400D01*
X0128393Y0076989D02*
X0153204Y0076989D01*
X0153793Y0077578D02*
X0127804Y0077578D01*
X0126586Y0078167D02*
X0155010Y0078167D01*
X0156586Y0078167D02*
X0158909Y0078167D01*
X0158909Y0077578D02*
X0157804Y0077578D01*
X0158393Y0076989D02*
X0158909Y0076989D01*
X0158909Y0076400D02*
X0158749Y0076400D01*
X0158909Y0078756D02*
X0122688Y0078756D01*
X0122688Y0078167D02*
X0125010Y0078167D01*
X0123793Y0077578D02*
X0122688Y0077578D01*
X0122688Y0076989D02*
X0123204Y0076989D01*
X0122848Y0076400D02*
X0122688Y0076400D01*
X0120326Y0076400D02*
X0120166Y0076400D01*
X0120326Y0076989D02*
X0119810Y0076989D01*
X0120326Y0077578D02*
X0119221Y0077578D01*
X0120326Y0078167D02*
X0118004Y0078167D01*
X0116428Y0078167D02*
X0088004Y0078167D01*
X0089221Y0077578D02*
X0115210Y0077578D01*
X0114621Y0076989D02*
X0089810Y0076989D01*
X0090166Y0076400D02*
X0114265Y0076400D01*
X0114021Y0075811D02*
X0090410Y0075811D01*
X0090502Y0075222D02*
X0113930Y0075222D01*
X0113930Y0074633D02*
X0090502Y0074633D01*
X0090402Y0074044D02*
X0114029Y0074044D01*
X0114273Y0073455D02*
X0090158Y0073455D01*
X0089791Y0072866D02*
X0114640Y0072866D01*
X0115229Y0072277D02*
X0089202Y0072277D01*
X0087957Y0071688D02*
X0116474Y0071688D01*
X0117957Y0071688D02*
X0120326Y0071688D01*
X0120326Y0072277D02*
X0119202Y0072277D01*
X0119791Y0072866D02*
X0120326Y0072866D01*
X0120326Y0073455D02*
X0120158Y0073455D01*
X0120326Y0071098D02*
X0084105Y0071098D01*
X0084105Y0070509D02*
X0120326Y0070509D01*
X0120326Y0069920D02*
X0084105Y0069920D01*
X0084105Y0069331D02*
X0120326Y0069331D01*
X0120326Y0068742D02*
X0084105Y0068742D01*
X0084105Y0068153D02*
X0086394Y0068153D01*
X0085196Y0067564D02*
X0084105Y0067564D01*
X0084105Y0066975D02*
X0084607Y0066975D01*
X0084259Y0066386D02*
X0084105Y0066386D01*
X0081743Y0066386D02*
X0081589Y0066386D01*
X0081743Y0066975D02*
X0081242Y0066975D01*
X0081743Y0067564D02*
X0080653Y0067564D01*
X0081743Y0068153D02*
X0079455Y0068153D01*
X0077811Y0068153D02*
X0049455Y0068153D01*
X0050653Y0067564D02*
X0076613Y0067564D01*
X0076024Y0066975D02*
X0051242Y0066975D01*
X0051589Y0066386D02*
X0075677Y0066386D01*
X0075433Y0065797D02*
X0051833Y0065797D01*
X0051919Y0065208D02*
X0075347Y0065208D01*
X0075347Y0064619D02*
X0051919Y0064619D01*
X0051814Y0064030D02*
X0075452Y0064030D01*
X0075696Y0063441D02*
X0051570Y0063441D01*
X0051194Y0062852D02*
X0076072Y0062852D01*
X0076661Y0062262D02*
X0050605Y0062262D01*
X0049340Y0061673D02*
X0077926Y0061673D01*
X0079340Y0061673D02*
X0081743Y0061673D01*
X0081743Y0061084D02*
X0045523Y0061084D01*
X0045523Y0060495D02*
X0081743Y0060495D01*
X0081743Y0059906D02*
X0045523Y0059906D01*
X0045523Y0059317D02*
X0081743Y0059317D01*
X0081743Y0058728D02*
X0045523Y0058728D01*
X0045523Y0058139D02*
X0047777Y0058139D01*
X0046599Y0057550D02*
X0045523Y0057550D01*
X0045523Y0056961D02*
X0046010Y0056961D01*
X0045671Y0056372D02*
X0045523Y0056372D01*
X0045523Y0053427D02*
X0045702Y0053427D01*
X0045523Y0052837D02*
X0046086Y0052837D01*
X0045523Y0052248D02*
X0046675Y0052248D01*
X0050591Y0052248D02*
X0076675Y0052248D01*
X0076086Y0052837D02*
X0051180Y0052837D01*
X0051564Y0053427D02*
X0075702Y0053427D01*
X0075458Y0054016D02*
X0051808Y0054016D01*
X0051919Y0054605D02*
X0075347Y0054605D01*
X0075347Y0055194D02*
X0051919Y0055194D01*
X0051839Y0055783D02*
X0075427Y0055783D01*
X0075671Y0056372D02*
X0051595Y0056372D01*
X0051256Y0056961D02*
X0076010Y0056961D01*
X0076599Y0057550D02*
X0050667Y0057550D01*
X0049489Y0058139D02*
X0077777Y0058139D01*
X0079489Y0058139D02*
X0081743Y0058139D01*
X0081743Y0057550D02*
X0080667Y0057550D01*
X0081256Y0056961D02*
X0081743Y0056961D01*
X0081743Y0056372D02*
X0081595Y0056372D01*
X0084105Y0056372D02*
X0084253Y0056372D01*
X0084105Y0056961D02*
X0084593Y0056961D01*
X0084105Y0057550D02*
X0085182Y0057550D01*
X0084105Y0058139D02*
X0086360Y0058139D01*
X0088072Y0058139D02*
X0116360Y0058139D01*
X0115182Y0057550D02*
X0089250Y0057550D01*
X0089839Y0056961D02*
X0114593Y0056961D01*
X0114253Y0056372D02*
X0090178Y0056372D01*
X0090422Y0055783D02*
X0114009Y0055783D01*
X0113930Y0055194D02*
X0090502Y0055194D01*
X0090502Y0054605D02*
X0113930Y0054605D01*
X0114041Y0054016D02*
X0090391Y0054016D01*
X0090147Y0053427D02*
X0114285Y0053427D01*
X0114668Y0052837D02*
X0089763Y0052837D01*
X0089174Y0052248D02*
X0115257Y0052248D01*
X0119174Y0052248D02*
X0120326Y0052248D01*
X0120326Y0052837D02*
X0119763Y0052837D01*
X0120147Y0053427D02*
X0120326Y0053427D01*
X0122688Y0053427D02*
X0122867Y0053427D01*
X0122688Y0052837D02*
X0123251Y0052837D01*
X0122688Y0052248D02*
X0123840Y0052248D01*
X0120326Y0056372D02*
X0120178Y0056372D01*
X0120326Y0056961D02*
X0119839Y0056961D01*
X0120326Y0057550D02*
X0119250Y0057550D01*
X0120326Y0058139D02*
X0118072Y0058139D01*
X0120326Y0058728D02*
X0084105Y0058728D01*
X0084105Y0059317D02*
X0120326Y0059317D01*
X0120326Y0059906D02*
X0084105Y0059906D01*
X0084105Y0060495D02*
X0120326Y0060495D01*
X0120326Y0061084D02*
X0084105Y0061084D01*
X0084105Y0061673D02*
X0086508Y0061673D01*
X0085243Y0062262D02*
X0084105Y0062262D01*
X0084105Y0062852D02*
X0084654Y0062852D01*
X0084279Y0063441D02*
X0084105Y0063441D01*
X0081743Y0063441D02*
X0081570Y0063441D01*
X0081743Y0062852D02*
X0081194Y0062852D01*
X0081743Y0062262D02*
X0080605Y0062262D01*
X0087923Y0061673D02*
X0116508Y0061673D01*
X0115243Y0062262D02*
X0089188Y0062262D01*
X0089777Y0062852D02*
X0114654Y0062852D01*
X0114279Y0063441D02*
X0090152Y0063441D01*
X0090396Y0064030D02*
X0114035Y0064030D01*
X0113930Y0064619D02*
X0090502Y0064619D01*
X0090502Y0065208D02*
X0113930Y0065208D01*
X0114015Y0065797D02*
X0090416Y0065797D01*
X0090172Y0066386D02*
X0114259Y0066386D01*
X0114607Y0066975D02*
X0089825Y0066975D01*
X0089235Y0067564D02*
X0115196Y0067564D01*
X0116394Y0068153D02*
X0088038Y0068153D01*
X0086474Y0071688D02*
X0084105Y0071688D01*
X0084105Y0072277D02*
X0085229Y0072277D01*
X0084640Y0072866D02*
X0084105Y0072866D01*
X0084105Y0073455D02*
X0084273Y0073455D01*
X0081743Y0073455D02*
X0081576Y0073455D01*
X0081743Y0072866D02*
X0081208Y0072866D01*
X0081743Y0072277D02*
X0080619Y0072277D01*
X0081743Y0071688D02*
X0079374Y0071688D01*
X0077892Y0071688D02*
X0049374Y0071688D01*
X0050619Y0072277D02*
X0076647Y0072277D01*
X0076058Y0072866D02*
X0051208Y0072866D01*
X0051576Y0073455D02*
X0075690Y0073455D01*
X0075446Y0074044D02*
X0051820Y0074044D01*
X0051919Y0074633D02*
X0075347Y0074633D01*
X0075347Y0075222D02*
X0051919Y0075222D01*
X0051828Y0075811D02*
X0075438Y0075811D01*
X0075682Y0076400D02*
X0051584Y0076400D01*
X0051228Y0076989D02*
X0076038Y0076989D01*
X0076627Y0077578D02*
X0050639Y0077578D01*
X0049421Y0078167D02*
X0077845Y0078167D01*
X0079421Y0078167D02*
X0081743Y0078167D01*
X0081743Y0077578D02*
X0080639Y0077578D01*
X0081228Y0076989D02*
X0081743Y0076989D01*
X0081743Y0076400D02*
X0081584Y0076400D01*
X0081743Y0078756D02*
X0045523Y0078756D01*
X0045523Y0078167D02*
X0047845Y0078167D01*
X0046627Y0077578D02*
X0045523Y0077578D01*
X0045523Y0076989D02*
X0046038Y0076989D01*
X0045682Y0076400D02*
X0045523Y0076400D01*
X0045523Y0073455D02*
X0045690Y0073455D01*
X0045523Y0072866D02*
X0046058Y0072866D01*
X0045523Y0072277D02*
X0046647Y0072277D01*
X0045523Y0071688D02*
X0047892Y0071688D01*
X0045523Y0071098D02*
X0081743Y0071098D01*
X0081743Y0070509D02*
X0045523Y0070509D01*
X0045523Y0069920D02*
X0081743Y0069920D01*
X0081743Y0069331D02*
X0045523Y0069331D01*
X0045523Y0068742D02*
X0081743Y0068742D01*
X0084105Y0076400D02*
X0084265Y0076400D01*
X0084105Y0076989D02*
X0084621Y0076989D01*
X0084105Y0077578D02*
X0085210Y0077578D01*
X0084105Y0078167D02*
X0086428Y0078167D01*
X0084105Y0078756D02*
X0120326Y0078756D01*
X0120326Y0079345D02*
X0084105Y0079345D01*
X0084105Y0079934D02*
X0120326Y0079934D01*
X0120326Y0080523D02*
X0084105Y0080523D01*
X0084105Y0081113D02*
X0120326Y0081113D01*
X0120326Y0081702D02*
X0117991Y0081702D01*
X0119216Y0082291D02*
X0120326Y0082291D01*
X0120326Y0082880D02*
X0119805Y0082880D01*
X0120164Y0083469D02*
X0120326Y0083469D01*
X0122688Y0083469D02*
X0122850Y0083469D01*
X0122688Y0082880D02*
X0123209Y0082880D01*
X0122688Y0082291D02*
X0123798Y0082291D01*
X0122688Y0081702D02*
X0125023Y0081702D01*
X0126574Y0081702D02*
X0155023Y0081702D01*
X0153798Y0082291D02*
X0127799Y0082291D01*
X0128388Y0082880D02*
X0153209Y0082880D01*
X0152850Y0083469D02*
X0128747Y0083469D01*
X0128991Y0084058D02*
X0152606Y0084058D01*
X0152513Y0084647D02*
X0129084Y0084647D01*
X0129084Y0085236D02*
X0152513Y0085236D01*
X0152610Y0085825D02*
X0128987Y0085825D01*
X0128743Y0086414D02*
X0152854Y0086414D01*
X0153218Y0087003D02*
X0128379Y0087003D01*
X0127790Y0087592D02*
X0153807Y0087592D01*
X0155044Y0088181D02*
X0126552Y0088181D01*
X0125044Y0088181D02*
X0122688Y0088181D01*
X0122688Y0087592D02*
X0123807Y0087592D01*
X0123218Y0087003D02*
X0122688Y0087003D01*
X0122688Y0086414D02*
X0122854Y0086414D01*
X0120326Y0086414D02*
X0120160Y0086414D01*
X0120326Y0087003D02*
X0119796Y0087003D01*
X0120326Y0087592D02*
X0119207Y0087592D01*
X0120326Y0088181D02*
X0117970Y0088181D01*
X0116462Y0088181D02*
X0087970Y0088181D01*
X0089207Y0087592D02*
X0115224Y0087592D01*
X0114635Y0087003D02*
X0089796Y0087003D01*
X0090160Y0086414D02*
X0114271Y0086414D01*
X0114027Y0085825D02*
X0090404Y0085825D01*
X0090502Y0085236D02*
X0113930Y0085236D01*
X0113930Y0084647D02*
X0090502Y0084647D01*
X0090408Y0084058D02*
X0114023Y0084058D01*
X0114267Y0083469D02*
X0090164Y0083469D01*
X0089805Y0082880D02*
X0114626Y0082880D01*
X0115215Y0082291D02*
X0089216Y0082291D01*
X0087991Y0081702D02*
X0116440Y0081702D01*
X0122688Y0081113D02*
X0158909Y0081113D01*
X0158909Y0081702D02*
X0156574Y0081702D01*
X0157799Y0082291D02*
X0158909Y0082291D01*
X0158909Y0082880D02*
X0158388Y0082880D01*
X0158747Y0083469D02*
X0158909Y0083469D01*
X0161271Y0083469D02*
X0161433Y0083469D01*
X0161271Y0082880D02*
X0161791Y0082880D01*
X0161271Y0082291D02*
X0162381Y0082291D01*
X0161271Y0081702D02*
X0163606Y0081702D01*
X0165156Y0081702D02*
X0193606Y0081702D01*
X0192381Y0082291D02*
X0166382Y0082291D01*
X0166971Y0082880D02*
X0191791Y0082880D01*
X0191433Y0083469D02*
X0167329Y0083469D01*
X0167573Y0084058D02*
X0191189Y0084058D01*
X0191095Y0084647D02*
X0167667Y0084647D01*
X0167667Y0085236D02*
X0191095Y0085236D01*
X0191192Y0085825D02*
X0167570Y0085825D01*
X0167326Y0086414D02*
X0191436Y0086414D01*
X0191800Y0087003D02*
X0166962Y0087003D01*
X0166373Y0087592D02*
X0192389Y0087592D01*
X0193627Y0088181D02*
X0165135Y0088181D01*
X0163627Y0088181D02*
X0161271Y0088181D01*
X0161271Y0087592D02*
X0162389Y0087592D01*
X0161800Y0087003D02*
X0161271Y0087003D01*
X0161271Y0086414D02*
X0161436Y0086414D01*
X0158909Y0086414D02*
X0158743Y0086414D01*
X0158909Y0087003D02*
X0158379Y0087003D01*
X0158909Y0087592D02*
X0157790Y0087592D01*
X0158909Y0088181D02*
X0156552Y0088181D01*
X0154626Y0090764D02*
X0127854Y0090764D01*
X0128154Y0090964D01*
X0128669Y0091479D01*
X0129073Y0092084D01*
X0129352Y0092757D01*
X0129494Y0093471D01*
X0129494Y0093539D01*
X0126094Y0093539D01*
X0126094Y0094130D01*
X0129494Y0094130D01*
X0129494Y0094199D01*
X0129352Y0094913D01*
X0129073Y0095585D01*
X0128669Y0096190D01*
X0128154Y0096705D01*
X0127549Y0097109D01*
X0126876Y0097388D01*
X0126162Y0097530D01*
X0126094Y0097530D01*
X0126094Y0094130D01*
X0125503Y0094130D01*
X0125503Y0097530D01*
X0125434Y0097530D01*
X0124720Y0097388D01*
X0124048Y0097109D01*
X0123443Y0096705D01*
X0122928Y0096190D01*
X0122688Y0095831D01*
X0122688Y0102757D01*
X0123013Y0101973D01*
X0123937Y0101049D01*
X0125145Y0100549D01*
X0126452Y0100549D01*
X0127660Y0101049D01*
X0128584Y0101973D01*
X0129084Y0103181D01*
X0129084Y0104488D01*
X0128584Y0105696D01*
X0127660Y0106620D01*
X0126452Y0107120D01*
X0125145Y0107120D01*
X0123937Y0106620D01*
X0123013Y0105696D01*
X0122688Y0104912D01*
X0122688Y0112757D01*
X0123013Y0111973D01*
X0123937Y0111049D01*
X0125145Y0110549D01*
X0126452Y0110549D01*
X0127660Y0111049D01*
X0128584Y0111973D01*
X0129084Y0113181D01*
X0129084Y0114488D01*
X0128584Y0115696D01*
X0127660Y0116620D01*
X0126452Y0117120D01*
X0125145Y0117120D01*
X0123937Y0116620D01*
X0123013Y0115696D01*
X0122688Y0114912D01*
X0122688Y0122757D01*
X0123013Y0121973D01*
X0123937Y0121049D01*
X0125145Y0120549D01*
X0126452Y0120549D01*
X0127660Y0121049D01*
X0128584Y0121973D01*
X0129084Y0123181D01*
X0129084Y0124488D01*
X0128584Y0125696D01*
X0127660Y0126620D01*
X0126452Y0127120D01*
X0125145Y0127120D01*
X0123937Y0126620D01*
X0123013Y0125696D01*
X0122688Y0124912D01*
X0122688Y0132757D01*
X0123013Y0131973D01*
X0123937Y0131049D01*
X0125145Y0130549D01*
X0126452Y0130549D01*
X0127660Y0131049D01*
X0128584Y0131973D01*
X0129084Y0133181D01*
X0129084Y0134488D01*
X0128584Y0135696D01*
X0127660Y0136620D01*
X0126452Y0137120D01*
X0125145Y0137120D01*
X0123937Y0136620D01*
X0123013Y0135696D01*
X0122688Y0134912D01*
X0122688Y0142757D01*
X0123013Y0141973D01*
X0123937Y0141049D01*
X0125145Y0140549D01*
X0126452Y0140549D01*
X0127660Y0141049D01*
X0128584Y0141973D01*
X0129084Y0143181D01*
X0129084Y0144488D01*
X0128584Y0145696D01*
X0127660Y0146620D01*
X0126452Y0147120D01*
X0125145Y0147120D01*
X0123937Y0146620D01*
X0123013Y0145696D01*
X0122688Y0144912D01*
X0122688Y0152757D01*
X0123013Y0151973D01*
X0123937Y0151049D01*
X0125145Y0150549D01*
X0126452Y0150549D01*
X0127660Y0151049D01*
X0128584Y0151973D01*
X0129084Y0153181D01*
X0129084Y0154488D01*
X0128584Y0155696D01*
X0127660Y0156620D01*
X0126452Y0157120D01*
X0125145Y0157120D01*
X0123937Y0156620D01*
X0123013Y0155696D01*
X0122688Y0154912D01*
X0122688Y0157299D01*
X0158909Y0157299D01*
X0158909Y0154912D01*
X0158584Y0155696D01*
X0157660Y0156620D01*
X0156452Y0157120D01*
X0155145Y0157120D01*
X0153937Y0156620D01*
X0153013Y0155696D01*
X0152513Y0154488D01*
X0152513Y0153181D01*
X0153013Y0151973D01*
X0153937Y0151049D01*
X0155145Y0150549D01*
X0156452Y0150549D01*
X0157660Y0151049D01*
X0158584Y0151973D01*
X0158909Y0152757D01*
X0158909Y0144912D01*
X0158584Y0145696D01*
X0157660Y0146620D01*
X0156452Y0147120D01*
X0155145Y0147120D01*
X0153937Y0146620D01*
X0153013Y0145696D01*
X0152513Y0144488D01*
X0152513Y0143181D01*
X0153013Y0141973D01*
X0153937Y0141049D01*
X0155145Y0140549D01*
X0156452Y0140549D01*
X0157660Y0141049D01*
X0158584Y0141973D01*
X0158909Y0142757D01*
X0158909Y0134912D01*
X0158584Y0135696D01*
X0157660Y0136620D01*
X0156452Y0137120D01*
X0155145Y0137120D01*
X0153937Y0136620D01*
X0153013Y0135696D01*
X0152513Y0134488D01*
X0152513Y0133181D01*
X0153013Y0131973D01*
X0153937Y0131049D01*
X0155145Y0130549D01*
X0156452Y0130549D01*
X0157660Y0131049D01*
X0158584Y0131973D01*
X0158909Y0132757D01*
X0158909Y0124912D01*
X0158584Y0125696D01*
X0157660Y0126620D01*
X0156452Y0127120D01*
X0155145Y0127120D01*
X0153937Y0126620D01*
X0153013Y0125696D01*
X0152513Y0124488D01*
X0152513Y0123181D01*
X0153013Y0121973D01*
X0153937Y0121049D01*
X0155145Y0120549D01*
X0156452Y0120549D01*
X0157660Y0121049D01*
X0158584Y0121973D01*
X0158909Y0122757D01*
X0158909Y0114912D01*
X0158584Y0115696D01*
X0157660Y0116620D01*
X0156452Y0117120D01*
X0155145Y0117120D01*
X0153937Y0116620D01*
X0153013Y0115696D01*
X0152513Y0114488D01*
X0152513Y0113181D01*
X0153013Y0111973D01*
X0153937Y0111049D01*
X0155145Y0110549D01*
X0156452Y0110549D01*
X0157660Y0111049D01*
X0158584Y0111973D01*
X0158909Y0112757D01*
X0158909Y0104912D01*
X0158584Y0105696D01*
X0157660Y0106620D01*
X0156452Y0107120D01*
X0155145Y0107120D01*
X0153937Y0106620D01*
X0153013Y0105696D01*
X0152513Y0104488D01*
X0152513Y0103181D01*
X0153013Y0101973D01*
X0153937Y0101049D01*
X0155145Y0100549D01*
X0156452Y0100549D01*
X0157660Y0101049D01*
X0158584Y0101973D01*
X0158909Y0102757D01*
X0158909Y0094912D01*
X0158584Y0095696D01*
X0157660Y0096620D01*
X0156452Y0097120D01*
X0155145Y0097120D01*
X0153937Y0096620D01*
X0153013Y0095696D01*
X0152513Y0094488D01*
X0152513Y0093181D01*
X0153013Y0091973D01*
X0153937Y0091049D01*
X0154626Y0090764D01*
X0153860Y0091127D02*
X0128316Y0091127D01*
X0128827Y0091716D02*
X0153271Y0091716D01*
X0152876Y0092305D02*
X0129164Y0092305D01*
X0129379Y0092894D02*
X0152632Y0092894D01*
X0152513Y0093483D02*
X0129494Y0093483D01*
X0129402Y0094661D02*
X0152584Y0094661D01*
X0152513Y0094072D02*
X0126094Y0094072D01*
X0126094Y0094661D02*
X0125503Y0094661D01*
X0125503Y0095250D02*
X0126094Y0095250D01*
X0126094Y0095839D02*
X0125503Y0095839D01*
X0125503Y0096428D02*
X0126094Y0096428D01*
X0126094Y0097017D02*
X0125503Y0097017D01*
X0123910Y0097017D02*
X0122688Y0097017D01*
X0122688Y0096428D02*
X0123166Y0096428D01*
X0122693Y0095839D02*
X0122688Y0095839D01*
X0122688Y0097606D02*
X0158909Y0097606D01*
X0158909Y0097017D02*
X0156701Y0097017D01*
X0157852Y0096428D02*
X0158909Y0096428D01*
X0158909Y0095839D02*
X0158441Y0095839D01*
X0158769Y0095250D02*
X0158909Y0095250D01*
X0161271Y0095831D02*
X0161271Y0102757D01*
X0161595Y0101973D01*
X0162520Y0101049D01*
X0163727Y0100549D01*
X0165035Y0100549D01*
X0166242Y0101049D01*
X0167167Y0101973D01*
X0167667Y0103181D01*
X0167667Y0104488D01*
X0167167Y0105696D01*
X0166242Y0106620D01*
X0165035Y0107120D01*
X0163727Y0107120D01*
X0162520Y0106620D01*
X0161595Y0105696D01*
X0161271Y0104912D01*
X0161271Y0112757D01*
X0161595Y0111973D01*
X0162520Y0111049D01*
X0163727Y0110549D01*
X0165035Y0110549D01*
X0166242Y0111049D01*
X0167167Y0111973D01*
X0167667Y0113181D01*
X0167667Y0114488D01*
X0167167Y0115696D01*
X0166242Y0116620D01*
X0165035Y0117120D01*
X0163727Y0117120D01*
X0162520Y0116620D01*
X0161595Y0115696D01*
X0161271Y0114912D01*
X0161271Y0122757D01*
X0161595Y0121973D01*
X0162520Y0121049D01*
X0163727Y0120549D01*
X0165035Y0120549D01*
X0166242Y0121049D01*
X0167167Y0121973D01*
X0167667Y0123181D01*
X0167667Y0124488D01*
X0167167Y0125696D01*
X0166242Y0126620D01*
X0165035Y0127120D01*
X0163727Y0127120D01*
X0162520Y0126620D01*
X0161595Y0125696D01*
X0161271Y0124912D01*
X0161271Y0132757D01*
X0161595Y0131973D01*
X0162520Y0131049D01*
X0163727Y0130549D01*
X0165035Y0130549D01*
X0166242Y0131049D01*
X0167167Y0131973D01*
X0167667Y0133181D01*
X0167667Y0134488D01*
X0167167Y0135696D01*
X0166242Y0136620D01*
X0165035Y0137120D01*
X0163727Y0137120D01*
X0162520Y0136620D01*
X0161595Y0135696D01*
X0161271Y0134912D01*
X0161271Y0142757D01*
X0161595Y0141973D01*
X0162520Y0141049D01*
X0163727Y0140549D01*
X0165035Y0140549D01*
X0166242Y0141049D01*
X0167167Y0141973D01*
X0167667Y0143181D01*
X0167667Y0144488D01*
X0167167Y0145696D01*
X0166242Y0146620D01*
X0165035Y0147120D01*
X0163727Y0147120D01*
X0162520Y0146620D01*
X0161595Y0145696D01*
X0161271Y0144912D01*
X0161271Y0152757D01*
X0161595Y0151973D01*
X0162520Y0151049D01*
X0163727Y0150549D01*
X0165035Y0150549D01*
X0166242Y0151049D01*
X0167167Y0151973D01*
X0167667Y0153181D01*
X0167667Y0154488D01*
X0167167Y0155696D01*
X0166242Y0156620D01*
X0165035Y0157120D01*
X0163727Y0157120D01*
X0162520Y0156620D01*
X0161595Y0155696D01*
X0161271Y0154912D01*
X0161271Y0157299D01*
X0197491Y0157299D01*
X0197491Y0154912D01*
X0197167Y0155696D01*
X0196242Y0156620D01*
X0195035Y0157120D01*
X0193727Y0157120D01*
X0192520Y0156620D01*
X0191595Y0155696D01*
X0191095Y0154488D01*
X0191095Y0153181D01*
X0191595Y0151973D01*
X0192520Y0151049D01*
X0193727Y0150549D01*
X0195035Y0150549D01*
X0196242Y0151049D01*
X0197167Y0151973D01*
X0197491Y0152757D01*
X0197491Y0144912D01*
X0197167Y0145696D01*
X0196242Y0146620D01*
X0195035Y0147120D01*
X0193727Y0147120D01*
X0192520Y0146620D01*
X0191595Y0145696D01*
X0191095Y0144488D01*
X0191095Y0143181D01*
X0191595Y0141973D01*
X0192520Y0141049D01*
X0193727Y0140549D01*
X0195035Y0140549D01*
X0196242Y0141049D01*
X0197167Y0141973D01*
X0197491Y0142757D01*
X0197491Y0134912D01*
X0197167Y0135696D01*
X0196242Y0136620D01*
X0195035Y0137120D01*
X0193727Y0137120D01*
X0192520Y0136620D01*
X0191595Y0135696D01*
X0191095Y0134488D01*
X0191095Y0133181D01*
X0191595Y0131973D01*
X0192520Y0131049D01*
X0193727Y0130549D01*
X0195035Y0130549D01*
X0196242Y0131049D01*
X0197167Y0131973D01*
X0197491Y0132757D01*
X0197491Y0124912D01*
X0197167Y0125696D01*
X0196242Y0126620D01*
X0195035Y0127120D01*
X0193727Y0127120D01*
X0192520Y0126620D01*
X0191595Y0125696D01*
X0191095Y0124488D01*
X0191095Y0123181D01*
X0191595Y0121973D01*
X0192520Y0121049D01*
X0193727Y0120549D01*
X0195035Y0120549D01*
X0196242Y0121049D01*
X0197167Y0121973D01*
X0197491Y0122757D01*
X0197491Y0114912D01*
X0197167Y0115696D01*
X0196242Y0116620D01*
X0195035Y0117120D01*
X0193727Y0117120D01*
X0192520Y0116620D01*
X0191595Y0115696D01*
X0191095Y0114488D01*
X0191095Y0113181D01*
X0191595Y0111973D01*
X0192520Y0111049D01*
X0193727Y0110549D01*
X0195035Y0110549D01*
X0196242Y0111049D01*
X0197167Y0111973D01*
X0197491Y0112757D01*
X0197491Y0104912D01*
X0197167Y0105696D01*
X0196242Y0106620D01*
X0195035Y0107120D01*
X0193727Y0107120D01*
X0192520Y0106620D01*
X0191595Y0105696D01*
X0191095Y0104488D01*
X0191095Y0103181D01*
X0191595Y0101973D01*
X0192520Y0101049D01*
X0193727Y0100549D01*
X0195035Y0100549D01*
X0196242Y0101049D01*
X0197167Y0101973D01*
X0197491Y0102757D01*
X0197491Y0094912D01*
X0197167Y0095696D01*
X0196242Y0096620D01*
X0195035Y0097120D01*
X0193727Y0097120D01*
X0192520Y0096620D01*
X0191595Y0095696D01*
X0191095Y0094488D01*
X0191095Y0093181D01*
X0191595Y0091973D01*
X0192520Y0091049D01*
X0193209Y0090764D01*
X0166436Y0090764D01*
X0166737Y0090964D01*
X0167251Y0091479D01*
X0167656Y0092084D01*
X0167934Y0092757D01*
X0168076Y0093471D01*
X0168076Y0093539D01*
X0164676Y0093539D01*
X0164676Y0094130D01*
X0164086Y0094130D01*
X0164086Y0097530D01*
X0164017Y0097530D01*
X0163303Y0097388D01*
X0162631Y0097109D01*
X0162025Y0096705D01*
X0161511Y0096190D01*
X0161271Y0095831D01*
X0161271Y0095839D02*
X0161276Y0095839D01*
X0161271Y0096428D02*
X0161749Y0096428D01*
X0161271Y0097017D02*
X0162493Y0097017D01*
X0161271Y0097606D02*
X0197491Y0097606D01*
X0197491Y0097017D02*
X0195284Y0097017D01*
X0196434Y0096428D02*
X0197491Y0096428D01*
X0197491Y0095839D02*
X0197023Y0095839D01*
X0197351Y0095250D02*
X0197491Y0095250D01*
X0197491Y0098195D02*
X0161271Y0098195D01*
X0161271Y0098784D02*
X0197491Y0098784D01*
X0197491Y0099373D02*
X0161271Y0099373D01*
X0161271Y0099962D02*
X0197491Y0099962D01*
X0197491Y0100552D02*
X0195041Y0100552D01*
X0193721Y0100552D02*
X0165041Y0100552D01*
X0163721Y0100552D02*
X0161271Y0100552D01*
X0161271Y0101141D02*
X0162428Y0101141D01*
X0161839Y0101730D02*
X0161271Y0101730D01*
X0161271Y0102319D02*
X0161452Y0102319D01*
X0158909Y0102319D02*
X0158727Y0102319D01*
X0158909Y0101730D02*
X0158340Y0101730D01*
X0158909Y0101141D02*
X0157751Y0101141D01*
X0158909Y0100552D02*
X0156459Y0100552D01*
X0155138Y0100552D02*
X0126459Y0100552D01*
X0125138Y0100552D02*
X0122688Y0100552D01*
X0122688Y0101141D02*
X0123846Y0101141D01*
X0123256Y0101730D02*
X0122688Y0101730D01*
X0122688Y0102319D02*
X0122870Y0102319D01*
X0120326Y0102319D02*
X0120144Y0102319D01*
X0120001Y0101973D02*
X0120326Y0102757D01*
X0120326Y0094912D01*
X0120001Y0095696D01*
X0119077Y0096620D01*
X0117869Y0097120D01*
X0116562Y0097120D01*
X0115354Y0096620D01*
X0114430Y0095696D01*
X0113930Y0094488D01*
X0113930Y0093181D01*
X0114430Y0091973D01*
X0115354Y0091049D01*
X0116043Y0090764D01*
X0089271Y0090764D01*
X0089571Y0090964D01*
X0090086Y0091479D01*
X0090490Y0092084D01*
X0090769Y0092757D01*
X0090911Y0093471D01*
X0090911Y0093539D01*
X0087511Y0093539D01*
X0087511Y0094130D01*
X0086920Y0094130D01*
X0086920Y0097530D01*
X0086852Y0097530D01*
X0086138Y0097388D01*
X0085465Y0097109D01*
X0084860Y0096705D01*
X0084345Y0096190D01*
X0084105Y0095831D01*
X0084105Y0102757D01*
X0084430Y0101973D01*
X0085354Y0101049D01*
X0086562Y0100549D01*
X0087869Y0100549D01*
X0089077Y0101049D01*
X0090001Y0101973D01*
X0090502Y0103181D01*
X0090502Y0104488D01*
X0090001Y0105696D01*
X0089077Y0106620D01*
X0087869Y0107120D01*
X0086562Y0107120D01*
X0085354Y0106620D01*
X0084430Y0105696D01*
X0084105Y0104912D01*
X0084105Y0112757D01*
X0084430Y0111973D01*
X0085354Y0111049D01*
X0086562Y0110549D01*
X0087869Y0110549D01*
X0089077Y0111049D01*
X0090001Y0111973D01*
X0090502Y0113181D01*
X0090502Y0114488D01*
X0090001Y0115696D01*
X0089077Y0116620D01*
X0087869Y0117120D01*
X0086562Y0117120D01*
X0085354Y0116620D01*
X0084430Y0115696D01*
X0084105Y0114912D01*
X0084105Y0122757D01*
X0084430Y0121973D01*
X0085354Y0121049D01*
X0086562Y0120549D01*
X0087869Y0120549D01*
X0089077Y0121049D01*
X0090001Y0121973D01*
X0090502Y0123181D01*
X0090502Y0124488D01*
X0090001Y0125696D01*
X0089077Y0126620D01*
X0087869Y0127120D01*
X0086562Y0127120D01*
X0085354Y0126620D01*
X0084430Y0125696D01*
X0084105Y0124912D01*
X0084105Y0132757D01*
X0084430Y0131973D01*
X0085354Y0131049D01*
X0086562Y0130549D01*
X0087869Y0130549D01*
X0089077Y0131049D01*
X0090001Y0131973D01*
X0090502Y0133181D01*
X0090502Y0134488D01*
X0090001Y0135696D01*
X0089077Y0136620D01*
X0087869Y0137120D01*
X0086562Y0137120D01*
X0085354Y0136620D01*
X0084430Y0135696D01*
X0084105Y0134912D01*
X0084105Y0142757D01*
X0084430Y0141973D01*
X0085354Y0141049D01*
X0086562Y0140549D01*
X0087869Y0140549D01*
X0089077Y0141049D01*
X0090001Y0141973D01*
X0090502Y0143181D01*
X0090502Y0144488D01*
X0090001Y0145696D01*
X0089077Y0146620D01*
X0087869Y0147120D01*
X0086562Y0147120D01*
X0085354Y0146620D01*
X0084430Y0145696D01*
X0084105Y0144912D01*
X0084105Y0152757D01*
X0084430Y0151973D01*
X0085354Y0151049D01*
X0086562Y0150549D01*
X0087869Y0150549D01*
X0089077Y0151049D01*
X0090001Y0151973D01*
X0090502Y0153181D01*
X0090502Y0154488D01*
X0090001Y0155696D01*
X0089077Y0156620D01*
X0087869Y0157120D01*
X0086562Y0157120D01*
X0085354Y0156620D01*
X0084430Y0155696D01*
X0084105Y0154912D01*
X0084105Y0157299D01*
X0120326Y0157299D01*
X0120326Y0154912D01*
X0120001Y0155696D01*
X0119077Y0156620D01*
X0117869Y0157120D01*
X0116562Y0157120D01*
X0115354Y0156620D01*
X0114430Y0155696D01*
X0113930Y0154488D01*
X0113930Y0153181D01*
X0114430Y0151973D01*
X0115354Y0151049D01*
X0116562Y0150549D01*
X0117869Y0150549D01*
X0119077Y0151049D01*
X0120001Y0151973D01*
X0120326Y0152757D01*
X0120326Y0144912D01*
X0120001Y0145696D01*
X0119077Y0146620D01*
X0117869Y0147120D01*
X0116562Y0147120D01*
X0115354Y0146620D01*
X0114430Y0145696D01*
X0113930Y0144488D01*
X0113930Y0143181D01*
X0114430Y0141973D01*
X0115354Y0141049D01*
X0116562Y0140549D01*
X0117869Y0140549D01*
X0119077Y0141049D01*
X0120001Y0141973D01*
X0120326Y0142757D01*
X0120326Y0134912D01*
X0120001Y0135696D01*
X0119077Y0136620D01*
X0117869Y0137120D01*
X0116562Y0137120D01*
X0115354Y0136620D01*
X0114430Y0135696D01*
X0113930Y0134488D01*
X0113930Y0133181D01*
X0114430Y0131973D01*
X0115354Y0131049D01*
X0116562Y0130549D01*
X0117869Y0130549D01*
X0119077Y0131049D01*
X0120001Y0131973D01*
X0120326Y0132757D01*
X0120326Y0124912D01*
X0120001Y0125696D01*
X0119077Y0126620D01*
X0117869Y0127120D01*
X0116562Y0127120D01*
X0115354Y0126620D01*
X0114430Y0125696D01*
X0113930Y0124488D01*
X0113930Y0123181D01*
X0114430Y0121973D01*
X0115354Y0121049D01*
X0116562Y0120549D01*
X0117869Y0120549D01*
X0119077Y0121049D01*
X0120001Y0121973D01*
X0120326Y0122757D01*
X0120326Y0114912D01*
X0120001Y0115696D01*
X0119077Y0116620D01*
X0117869Y0117120D01*
X0116562Y0117120D01*
X0115354Y0116620D01*
X0114430Y0115696D01*
X0113930Y0114488D01*
X0113930Y0113181D01*
X0114430Y0111973D01*
X0115354Y0111049D01*
X0116562Y0110549D01*
X0117869Y0110549D01*
X0119077Y0111049D01*
X0120001Y0111973D01*
X0120326Y0112757D01*
X0120326Y0104912D01*
X0120001Y0105696D01*
X0119077Y0106620D01*
X0117869Y0107120D01*
X0116562Y0107120D01*
X0115354Y0106620D01*
X0114430Y0105696D01*
X0113930Y0104488D01*
X0113930Y0103181D01*
X0114430Y0101973D01*
X0115354Y0101049D01*
X0116562Y0100549D01*
X0117869Y0100549D01*
X0119077Y0101049D01*
X0120001Y0101973D01*
X0119758Y0101730D02*
X0120326Y0101730D01*
X0120326Y0101141D02*
X0119169Y0101141D01*
X0120326Y0100552D02*
X0117876Y0100552D01*
X0116555Y0100552D02*
X0087876Y0100552D01*
X0086555Y0100552D02*
X0084105Y0100552D01*
X0084105Y0101141D02*
X0085263Y0101141D01*
X0084674Y0101730D02*
X0084105Y0101730D01*
X0084105Y0102319D02*
X0084287Y0102319D01*
X0081743Y0102319D02*
X0081562Y0102319D01*
X0081419Y0101973D02*
X0081743Y0102757D01*
X0081743Y0094912D01*
X0081419Y0095696D01*
X0080494Y0096620D01*
X0079287Y0097120D01*
X0077979Y0097120D01*
X0076772Y0096620D01*
X0075847Y0095696D01*
X0075347Y0094488D01*
X0075347Y0093181D01*
X0075847Y0091973D01*
X0076772Y0091049D01*
X0077460Y0090764D01*
X0050688Y0090764D01*
X0050989Y0090964D01*
X0051503Y0091479D01*
X0051908Y0092084D01*
X0052186Y0092757D01*
X0052328Y0093471D01*
X0052328Y0093539D01*
X0048928Y0093539D01*
X0048928Y0094130D01*
X0048338Y0094130D01*
X0048338Y0097530D01*
X0048269Y0097530D01*
X0047555Y0097388D01*
X0046883Y0097109D01*
X0046277Y0096705D01*
X0045763Y0096190D01*
X0045523Y0095831D01*
X0045523Y0102757D01*
X0045847Y0101973D01*
X0046772Y0101049D01*
X0047979Y0100549D01*
X0049287Y0100549D01*
X0050494Y0101049D01*
X0051419Y0101973D01*
X0051919Y0103181D01*
X0051919Y0104488D01*
X0051419Y0105696D01*
X0050494Y0106620D01*
X0049287Y0107120D01*
X0047979Y0107120D01*
X0046772Y0106620D01*
X0045847Y0105696D01*
X0045523Y0104912D01*
X0045523Y0112757D01*
X0045847Y0111973D01*
X0046772Y0111049D01*
X0047979Y0110549D01*
X0049287Y0110549D01*
X0050494Y0111049D01*
X0051419Y0111973D01*
X0051919Y0113181D01*
X0051919Y0114488D01*
X0051419Y0115696D01*
X0050494Y0116620D01*
X0049287Y0117120D01*
X0047979Y0117120D01*
X0046772Y0116620D01*
X0045847Y0115696D01*
X0045523Y0114912D01*
X0045523Y0122757D01*
X0045847Y0121973D01*
X0046772Y0121049D01*
X0047979Y0120549D01*
X0049287Y0120549D01*
X0050494Y0121049D01*
X0051419Y0121973D01*
X0051919Y0123181D01*
X0051919Y0124488D01*
X0051419Y0125696D01*
X0050494Y0126620D01*
X0049287Y0127120D01*
X0047979Y0127120D01*
X0046772Y0126620D01*
X0045847Y0125696D01*
X0045523Y0124912D01*
X0045523Y0132757D01*
X0045847Y0131973D01*
X0046772Y0131049D01*
X0047979Y0130549D01*
X0049287Y0130549D01*
X0050494Y0131049D01*
X0051419Y0131973D01*
X0051919Y0133181D01*
X0051919Y0134488D01*
X0051419Y0135696D01*
X0050494Y0136620D01*
X0049287Y0137120D01*
X0047979Y0137120D01*
X0046772Y0136620D01*
X0045847Y0135696D01*
X0045523Y0134912D01*
X0045523Y0142757D01*
X0045847Y0141973D01*
X0046772Y0141049D01*
X0047979Y0140549D01*
X0049287Y0140549D01*
X0050494Y0141049D01*
X0051419Y0141973D01*
X0051919Y0143181D01*
X0051919Y0144488D01*
X0051419Y0145696D01*
X0050494Y0146620D01*
X0049287Y0147120D01*
X0047979Y0147120D01*
X0046772Y0146620D01*
X0045847Y0145696D01*
X0045523Y0144912D01*
X0045523Y0152757D01*
X0045847Y0151973D01*
X0046772Y0151049D01*
X0047979Y0150549D01*
X0049287Y0150549D01*
X0050494Y0151049D01*
X0051419Y0151973D01*
X0051919Y0153181D01*
X0051919Y0154488D01*
X0051419Y0155696D01*
X0050494Y0156620D01*
X0049287Y0157120D01*
X0047979Y0157120D01*
X0046772Y0156620D01*
X0045847Y0155696D01*
X0045523Y0154912D01*
X0045523Y0157299D01*
X0081743Y0157299D01*
X0081743Y0154912D01*
X0081419Y0155696D01*
X0080494Y0156620D01*
X0079287Y0157120D01*
X0077979Y0157120D01*
X0076772Y0156620D01*
X0075847Y0155696D01*
X0075347Y0154488D01*
X0075347Y0153181D01*
X0075847Y0151973D01*
X0076772Y0151049D01*
X0077979Y0150549D01*
X0079287Y0150549D01*
X0080494Y0151049D01*
X0081419Y0151973D01*
X0081743Y0152757D01*
X0081743Y0144912D01*
X0081419Y0145696D01*
X0080494Y0146620D01*
X0079287Y0147120D01*
X0077979Y0147120D01*
X0076772Y0146620D01*
X0075847Y0145696D01*
X0075347Y0144488D01*
X0075347Y0143181D01*
X0075847Y0141973D01*
X0076772Y0141049D01*
X0077979Y0140549D01*
X0079287Y0140549D01*
X0080494Y0141049D01*
X0081419Y0141973D01*
X0081743Y0142757D01*
X0081743Y0134912D01*
X0081419Y0135696D01*
X0080494Y0136620D01*
X0079287Y0137120D01*
X0077979Y0137120D01*
X0076772Y0136620D01*
X0075847Y0135696D01*
X0075347Y0134488D01*
X0075347Y0133181D01*
X0075847Y0131973D01*
X0076772Y0131049D01*
X0077979Y0130549D01*
X0079287Y0130549D01*
X0080494Y0131049D01*
X0081419Y0131973D01*
X0081743Y0132757D01*
X0081743Y0124912D01*
X0081419Y0125696D01*
X0080494Y0126620D01*
X0079287Y0127120D01*
X0077979Y0127120D01*
X0076772Y0126620D01*
X0075847Y0125696D01*
X0075347Y0124488D01*
X0075347Y0123181D01*
X0075847Y0121973D01*
X0076772Y0121049D01*
X0077979Y0120549D01*
X0079287Y0120549D01*
X0080494Y0121049D01*
X0081419Y0121973D01*
X0081743Y0122757D01*
X0081743Y0114912D01*
X0081419Y0115696D01*
X0080494Y0116620D01*
X0079287Y0117120D01*
X0077979Y0117120D01*
X0076772Y0116620D01*
X0075847Y0115696D01*
X0075347Y0114488D01*
X0075347Y0113181D01*
X0075847Y0111973D01*
X0076772Y0111049D01*
X0077979Y0110549D01*
X0079287Y0110549D01*
X0080494Y0111049D01*
X0081419Y0111973D01*
X0081743Y0112757D01*
X0081743Y0104912D01*
X0081419Y0105696D01*
X0080494Y0106620D01*
X0079287Y0107120D01*
X0077979Y0107120D01*
X0076772Y0106620D01*
X0075847Y0105696D01*
X0075347Y0104488D01*
X0075347Y0103181D01*
X0075847Y0101973D01*
X0076772Y0101049D01*
X0077979Y0100549D01*
X0079287Y0100549D01*
X0080494Y0101049D01*
X0081419Y0101973D01*
X0081175Y0101730D02*
X0081743Y0101730D01*
X0081743Y0101141D02*
X0080586Y0101141D01*
X0081743Y0100552D02*
X0079293Y0100552D01*
X0077973Y0100552D02*
X0049293Y0100552D01*
X0047973Y0100552D02*
X0045523Y0100552D01*
X0045523Y0101141D02*
X0046680Y0101141D01*
X0046091Y0101730D02*
X0045523Y0101730D01*
X0045523Y0102319D02*
X0045704Y0102319D01*
X0045669Y0105264D02*
X0045523Y0105264D01*
X0045523Y0105853D02*
X0046005Y0105853D01*
X0045523Y0106442D02*
X0046594Y0106442D01*
X0045523Y0107031D02*
X0047764Y0107031D01*
X0049502Y0107031D02*
X0077764Y0107031D01*
X0076594Y0106442D02*
X0050672Y0106442D01*
X0051261Y0105853D02*
X0076005Y0105853D01*
X0075669Y0105264D02*
X0051597Y0105264D01*
X0051841Y0104675D02*
X0075425Y0104675D01*
X0075347Y0104086D02*
X0051919Y0104086D01*
X0051919Y0103497D02*
X0075347Y0103497D01*
X0075460Y0102908D02*
X0051806Y0102908D01*
X0051562Y0102319D02*
X0075704Y0102319D01*
X0076091Y0101730D02*
X0051175Y0101730D01*
X0050586Y0101141D02*
X0076680Y0101141D01*
X0077730Y0097017D02*
X0050521Y0097017D01*
X0050383Y0097109D02*
X0049711Y0097388D01*
X0048997Y0097530D01*
X0048928Y0097530D01*
X0048928Y0094130D01*
X0052328Y0094130D01*
X0052328Y0094199D01*
X0052186Y0094913D01*
X0051908Y0095585D01*
X0051503Y0096190D01*
X0050989Y0096705D01*
X0050383Y0097109D01*
X0051265Y0096428D02*
X0076580Y0096428D01*
X0075991Y0095839D02*
X0051738Y0095839D01*
X0052046Y0095250D02*
X0075663Y0095250D01*
X0075419Y0094661D02*
X0052236Y0094661D01*
X0052328Y0093483D02*
X0075347Y0093483D01*
X0075347Y0094072D02*
X0048928Y0094072D01*
X0048928Y0094661D02*
X0048338Y0094661D01*
X0048338Y0095250D02*
X0048928Y0095250D01*
X0048928Y0095839D02*
X0048338Y0095839D01*
X0048338Y0096428D02*
X0048928Y0096428D01*
X0048928Y0097017D02*
X0048338Y0097017D01*
X0046745Y0097017D02*
X0045523Y0097017D01*
X0045523Y0096428D02*
X0046001Y0096428D01*
X0045528Y0095839D02*
X0045523Y0095839D01*
X0045523Y0097606D02*
X0081743Y0097606D01*
X0081743Y0097017D02*
X0079536Y0097017D01*
X0080686Y0096428D02*
X0081743Y0096428D01*
X0081743Y0095839D02*
X0081275Y0095839D01*
X0081603Y0095250D02*
X0081743Y0095250D01*
X0084105Y0095839D02*
X0084111Y0095839D01*
X0084105Y0096428D02*
X0084583Y0096428D01*
X0084105Y0097017D02*
X0085327Y0097017D01*
X0084105Y0097606D02*
X0120326Y0097606D01*
X0120326Y0097017D02*
X0118119Y0097017D01*
X0119269Y0096428D02*
X0120326Y0096428D01*
X0120326Y0095839D02*
X0119858Y0095839D01*
X0120186Y0095250D02*
X0120326Y0095250D01*
X0120326Y0098195D02*
X0084105Y0098195D01*
X0084105Y0098784D02*
X0120326Y0098784D01*
X0120326Y0099373D02*
X0084105Y0099373D01*
X0084105Y0099962D02*
X0120326Y0099962D01*
X0122688Y0099962D02*
X0158909Y0099962D01*
X0158909Y0099373D02*
X0122688Y0099373D01*
X0122688Y0098784D02*
X0158909Y0098784D01*
X0158909Y0098195D02*
X0122688Y0098195D01*
X0127687Y0097017D02*
X0154895Y0097017D01*
X0153745Y0096428D02*
X0128431Y0096428D01*
X0128903Y0095839D02*
X0153156Y0095839D01*
X0152828Y0095250D02*
X0129212Y0095250D01*
X0127751Y0101141D02*
X0153846Y0101141D01*
X0153256Y0101730D02*
X0128340Y0101730D01*
X0128727Y0102319D02*
X0152870Y0102319D01*
X0152626Y0102908D02*
X0128971Y0102908D01*
X0129084Y0103497D02*
X0152513Y0103497D01*
X0152513Y0104086D02*
X0129084Y0104086D01*
X0129007Y0104675D02*
X0152590Y0104675D01*
X0152834Y0105264D02*
X0128763Y0105264D01*
X0128427Y0105853D02*
X0153170Y0105853D01*
X0153759Y0106442D02*
X0127838Y0106442D01*
X0126667Y0107031D02*
X0154929Y0107031D01*
X0156667Y0107031D02*
X0158909Y0107031D01*
X0158909Y0106442D02*
X0157838Y0106442D01*
X0158427Y0105853D02*
X0158909Y0105853D01*
X0158909Y0105264D02*
X0158763Y0105264D01*
X0161271Y0105264D02*
X0161417Y0105264D01*
X0161271Y0105853D02*
X0161753Y0105853D01*
X0161271Y0106442D02*
X0162342Y0106442D01*
X0161271Y0107031D02*
X0163512Y0107031D01*
X0165250Y0107031D02*
X0193512Y0107031D01*
X0192342Y0106442D02*
X0166420Y0106442D01*
X0167009Y0105853D02*
X0191753Y0105853D01*
X0191417Y0105264D02*
X0167346Y0105264D01*
X0167590Y0104675D02*
X0191173Y0104675D01*
X0191095Y0104086D02*
X0167667Y0104086D01*
X0167667Y0103497D02*
X0191095Y0103497D01*
X0191208Y0102908D02*
X0167554Y0102908D01*
X0167310Y0102319D02*
X0191452Y0102319D01*
X0191839Y0101730D02*
X0166923Y0101730D01*
X0166334Y0101141D02*
X0192428Y0101141D01*
X0196334Y0101141D02*
X0197491Y0101141D01*
X0197491Y0101730D02*
X0196923Y0101730D01*
X0197310Y0102319D02*
X0197491Y0102319D01*
X0197491Y0105264D02*
X0197346Y0105264D01*
X0197491Y0105853D02*
X0197009Y0105853D01*
X0197491Y0106442D02*
X0196420Y0106442D01*
X0197491Y0107031D02*
X0195250Y0107031D01*
X0197491Y0107620D02*
X0161271Y0107620D01*
X0161271Y0108209D02*
X0197491Y0108209D01*
X0197491Y0108798D02*
X0161271Y0108798D01*
X0161271Y0109387D02*
X0197491Y0109387D01*
X0197491Y0109977D02*
X0161271Y0109977D01*
X0161271Y0110566D02*
X0163687Y0110566D01*
X0165075Y0110566D02*
X0193687Y0110566D01*
X0195075Y0110566D02*
X0197491Y0110566D01*
X0197491Y0111155D02*
X0196348Y0111155D01*
X0196937Y0111744D02*
X0197491Y0111744D01*
X0197491Y0112333D02*
X0197316Y0112333D01*
X0197340Y0115278D02*
X0197491Y0115278D01*
X0197491Y0115867D02*
X0196995Y0115867D01*
X0197491Y0116456D02*
X0196406Y0116456D01*
X0197491Y0117045D02*
X0195216Y0117045D01*
X0193546Y0117045D02*
X0165216Y0117045D01*
X0166406Y0116456D02*
X0192356Y0116456D01*
X0191767Y0115867D02*
X0166995Y0115867D01*
X0167340Y0115278D02*
X0191422Y0115278D01*
X0191178Y0114689D02*
X0167584Y0114689D01*
X0167667Y0114100D02*
X0191095Y0114100D01*
X0191095Y0113511D02*
X0167667Y0113511D01*
X0167559Y0112922D02*
X0191203Y0112922D01*
X0191447Y0112333D02*
X0167316Y0112333D01*
X0166937Y0111744D02*
X0191825Y0111744D01*
X0192414Y0111155D02*
X0166348Y0111155D01*
X0162414Y0111155D02*
X0161271Y0111155D01*
X0161271Y0111744D02*
X0161825Y0111744D01*
X0161447Y0112333D02*
X0161271Y0112333D01*
X0158909Y0112333D02*
X0158733Y0112333D01*
X0158909Y0111744D02*
X0158354Y0111744D01*
X0158909Y0111155D02*
X0157765Y0111155D01*
X0158909Y0110566D02*
X0156493Y0110566D01*
X0155104Y0110566D02*
X0126493Y0110566D01*
X0125104Y0110566D02*
X0122688Y0110566D01*
X0122688Y0111155D02*
X0123831Y0111155D01*
X0123242Y0111744D02*
X0122688Y0111744D01*
X0122688Y0112333D02*
X0122864Y0112333D01*
X0122688Y0109977D02*
X0158909Y0109977D01*
X0158909Y0109387D02*
X0122688Y0109387D01*
X0122688Y0108798D02*
X0158909Y0108798D01*
X0158909Y0108209D02*
X0122688Y0108209D01*
X0122688Y0107620D02*
X0158909Y0107620D01*
X0153831Y0111155D02*
X0127765Y0111155D01*
X0128354Y0111744D02*
X0153242Y0111744D01*
X0152864Y0112333D02*
X0128733Y0112333D01*
X0128977Y0112922D02*
X0152620Y0112922D01*
X0152513Y0113511D02*
X0129084Y0113511D01*
X0129084Y0114100D02*
X0152513Y0114100D01*
X0152596Y0114689D02*
X0129001Y0114689D01*
X0128757Y0115278D02*
X0152840Y0115278D01*
X0153184Y0115867D02*
X0128413Y0115867D01*
X0127824Y0116456D02*
X0153773Y0116456D01*
X0154963Y0117045D02*
X0126633Y0117045D01*
X0124963Y0117045D02*
X0122688Y0117045D01*
X0122688Y0116456D02*
X0123773Y0116456D01*
X0123184Y0115867D02*
X0122688Y0115867D01*
X0122688Y0115278D02*
X0122840Y0115278D01*
X0122688Y0117634D02*
X0158909Y0117634D01*
X0158909Y0117045D02*
X0156633Y0117045D01*
X0157824Y0116456D02*
X0158909Y0116456D01*
X0158909Y0115867D02*
X0158413Y0115867D01*
X0158757Y0115278D02*
X0158909Y0115278D01*
X0161271Y0115278D02*
X0161422Y0115278D01*
X0161271Y0115867D02*
X0161767Y0115867D01*
X0161271Y0116456D02*
X0162356Y0116456D01*
X0161271Y0117045D02*
X0163546Y0117045D01*
X0161271Y0117634D02*
X0197491Y0117634D01*
X0197491Y0118223D02*
X0161271Y0118223D01*
X0161271Y0118812D02*
X0197491Y0118812D01*
X0197491Y0119402D02*
X0161271Y0119402D01*
X0161271Y0119991D02*
X0197491Y0119991D01*
X0197491Y0120580D02*
X0195109Y0120580D01*
X0196362Y0121169D02*
X0197491Y0121169D01*
X0197491Y0121758D02*
X0196951Y0121758D01*
X0197321Y0122347D02*
X0197491Y0122347D01*
X0197491Y0125292D02*
X0197334Y0125292D01*
X0197491Y0125881D02*
X0196981Y0125881D01*
X0197491Y0126470D02*
X0196392Y0126470D01*
X0197491Y0127059D02*
X0195182Y0127059D01*
X0193580Y0127059D02*
X0165182Y0127059D01*
X0166392Y0126470D02*
X0192370Y0126470D01*
X0191781Y0125881D02*
X0166981Y0125881D01*
X0167334Y0125292D02*
X0191428Y0125292D01*
X0191184Y0124703D02*
X0167578Y0124703D01*
X0167667Y0124114D02*
X0191095Y0124114D01*
X0191095Y0123525D02*
X0167667Y0123525D01*
X0167565Y0122936D02*
X0191197Y0122936D01*
X0191441Y0122347D02*
X0167321Y0122347D01*
X0166951Y0121758D02*
X0191811Y0121758D01*
X0192400Y0121169D02*
X0166362Y0121169D01*
X0165109Y0120580D02*
X0193653Y0120580D01*
X0197491Y0127648D02*
X0161271Y0127648D01*
X0161271Y0127059D02*
X0163580Y0127059D01*
X0162370Y0126470D02*
X0161271Y0126470D01*
X0161271Y0125881D02*
X0161781Y0125881D01*
X0161428Y0125292D02*
X0161271Y0125292D01*
X0158909Y0125292D02*
X0158751Y0125292D01*
X0158909Y0125881D02*
X0158399Y0125881D01*
X0158909Y0126470D02*
X0157810Y0126470D01*
X0158909Y0127059D02*
X0156599Y0127059D01*
X0154997Y0127059D02*
X0126599Y0127059D01*
X0127810Y0126470D02*
X0153787Y0126470D01*
X0153198Y0125881D02*
X0128399Y0125881D01*
X0128751Y0125292D02*
X0152846Y0125292D01*
X0152602Y0124703D02*
X0128995Y0124703D01*
X0129084Y0124114D02*
X0152513Y0124114D01*
X0152513Y0123525D02*
X0129084Y0123525D01*
X0128983Y0122936D02*
X0152614Y0122936D01*
X0152858Y0122347D02*
X0128739Y0122347D01*
X0128368Y0121758D02*
X0153228Y0121758D01*
X0153817Y0121169D02*
X0127779Y0121169D01*
X0126526Y0120580D02*
X0155070Y0120580D01*
X0156526Y0120580D02*
X0158909Y0120580D01*
X0158909Y0121169D02*
X0157779Y0121169D01*
X0158368Y0121758D02*
X0158909Y0121758D01*
X0158909Y0122347D02*
X0158739Y0122347D01*
X0161271Y0122347D02*
X0161441Y0122347D01*
X0161271Y0121758D02*
X0161811Y0121758D01*
X0161271Y0121169D02*
X0162400Y0121169D01*
X0161271Y0120580D02*
X0163653Y0120580D01*
X0158909Y0119991D02*
X0122688Y0119991D01*
X0122688Y0120580D02*
X0125070Y0120580D01*
X0123817Y0121169D02*
X0122688Y0121169D01*
X0122688Y0121758D02*
X0123228Y0121758D01*
X0122858Y0122347D02*
X0122688Y0122347D01*
X0120326Y0122347D02*
X0120156Y0122347D01*
X0120326Y0121758D02*
X0119786Y0121758D01*
X0120326Y0121169D02*
X0119197Y0121169D01*
X0120326Y0120580D02*
X0117944Y0120580D01*
X0116488Y0120580D02*
X0087944Y0120580D01*
X0089197Y0121169D02*
X0115235Y0121169D01*
X0114646Y0121758D02*
X0089786Y0121758D01*
X0090156Y0122347D02*
X0114275Y0122347D01*
X0114031Y0122936D02*
X0090400Y0122936D01*
X0090502Y0123525D02*
X0113930Y0123525D01*
X0113930Y0124114D02*
X0090502Y0124114D01*
X0090412Y0124703D02*
X0114019Y0124703D01*
X0114263Y0125292D02*
X0090169Y0125292D01*
X0089816Y0125881D02*
X0114615Y0125881D01*
X0115204Y0126470D02*
X0089227Y0126470D01*
X0088017Y0127059D02*
X0116415Y0127059D01*
X0118017Y0127059D02*
X0120326Y0127059D01*
X0120326Y0126470D02*
X0119227Y0126470D01*
X0119816Y0125881D02*
X0120326Y0125881D01*
X0120326Y0125292D02*
X0120169Y0125292D01*
X0122688Y0125292D02*
X0122846Y0125292D01*
X0122688Y0125881D02*
X0123198Y0125881D01*
X0122688Y0126470D02*
X0123787Y0126470D01*
X0122688Y0127059D02*
X0124997Y0127059D01*
X0122688Y0127648D02*
X0158909Y0127648D01*
X0158909Y0128237D02*
X0122688Y0128237D01*
X0122688Y0128827D02*
X0158909Y0128827D01*
X0158909Y0129416D02*
X0122688Y0129416D01*
X0122688Y0130005D02*
X0158909Y0130005D01*
X0158909Y0130594D02*
X0156560Y0130594D01*
X0157793Y0131183D02*
X0158909Y0131183D01*
X0158909Y0131772D02*
X0158382Y0131772D01*
X0158744Y0132361D02*
X0158909Y0132361D01*
X0161271Y0132361D02*
X0161435Y0132361D01*
X0161271Y0131772D02*
X0161797Y0131772D01*
X0161271Y0131183D02*
X0162386Y0131183D01*
X0161271Y0130594D02*
X0163619Y0130594D01*
X0165143Y0130594D02*
X0193619Y0130594D01*
X0192386Y0131183D02*
X0166376Y0131183D01*
X0166965Y0131772D02*
X0191797Y0131772D01*
X0191435Y0132361D02*
X0167327Y0132361D01*
X0167571Y0132950D02*
X0191191Y0132950D01*
X0191095Y0133539D02*
X0167667Y0133539D01*
X0167667Y0134128D02*
X0191095Y0134128D01*
X0191190Y0134717D02*
X0167572Y0134717D01*
X0167328Y0135306D02*
X0191434Y0135306D01*
X0191795Y0135895D02*
X0166967Y0135895D01*
X0166378Y0136484D02*
X0192384Y0136484D01*
X0193614Y0137073D02*
X0165148Y0137073D01*
X0163614Y0137073D02*
X0161271Y0137073D01*
X0161271Y0136484D02*
X0162384Y0136484D01*
X0161795Y0135895D02*
X0161271Y0135895D01*
X0161271Y0135306D02*
X0161434Y0135306D01*
X0161271Y0137663D02*
X0197491Y0137663D01*
X0197491Y0138252D02*
X0161271Y0138252D01*
X0161271Y0138841D02*
X0197491Y0138841D01*
X0197491Y0139430D02*
X0161271Y0139430D01*
X0161271Y0140019D02*
X0197491Y0140019D01*
X0197491Y0140608D02*
X0195177Y0140608D01*
X0196390Y0141197D02*
X0197491Y0141197D01*
X0197491Y0141786D02*
X0196979Y0141786D01*
X0197333Y0142375D02*
X0197491Y0142375D01*
X0193585Y0140608D02*
X0165177Y0140608D01*
X0166390Y0141197D02*
X0192372Y0141197D01*
X0191783Y0141786D02*
X0166979Y0141786D01*
X0167333Y0142375D02*
X0191429Y0142375D01*
X0191185Y0142964D02*
X0167577Y0142964D01*
X0167667Y0143553D02*
X0191095Y0143553D01*
X0191095Y0144142D02*
X0167667Y0144142D01*
X0167566Y0144731D02*
X0191196Y0144731D01*
X0191440Y0145320D02*
X0167322Y0145320D01*
X0166953Y0145909D02*
X0191809Y0145909D01*
X0192398Y0146498D02*
X0166364Y0146498D01*
X0165114Y0147088D02*
X0193648Y0147088D01*
X0195114Y0147088D02*
X0197491Y0147088D01*
X0197491Y0147677D02*
X0161271Y0147677D01*
X0161271Y0148266D02*
X0197491Y0148266D01*
X0197491Y0148855D02*
X0161271Y0148855D01*
X0161271Y0149444D02*
X0197491Y0149444D01*
X0197491Y0150033D02*
X0161271Y0150033D01*
X0161271Y0150622D02*
X0163551Y0150622D01*
X0162358Y0151211D02*
X0161271Y0151211D01*
X0161271Y0151800D02*
X0161769Y0151800D01*
X0161423Y0152389D02*
X0161271Y0152389D01*
X0158909Y0152389D02*
X0158756Y0152389D01*
X0158909Y0151800D02*
X0158411Y0151800D01*
X0158909Y0151211D02*
X0157822Y0151211D01*
X0158909Y0150622D02*
X0156628Y0150622D01*
X0154968Y0150622D02*
X0126628Y0150622D01*
X0127822Y0151211D02*
X0153775Y0151211D01*
X0153186Y0151800D02*
X0128411Y0151800D01*
X0128756Y0152389D02*
X0152841Y0152389D01*
X0152597Y0152978D02*
X0129000Y0152978D01*
X0129084Y0153567D02*
X0152513Y0153567D01*
X0152513Y0154156D02*
X0129084Y0154156D01*
X0128978Y0154745D02*
X0152619Y0154745D01*
X0152863Y0155334D02*
X0128734Y0155334D01*
X0128356Y0155923D02*
X0153240Y0155923D01*
X0153829Y0156513D02*
X0127767Y0156513D01*
X0126498Y0157102D02*
X0155099Y0157102D01*
X0156498Y0157102D02*
X0158909Y0157102D01*
X0158909Y0156513D02*
X0157767Y0156513D01*
X0158356Y0155923D02*
X0158909Y0155923D01*
X0158909Y0155334D02*
X0158734Y0155334D01*
X0161271Y0155334D02*
X0161446Y0155334D01*
X0161271Y0155923D02*
X0161823Y0155923D01*
X0161271Y0156513D02*
X0162412Y0156513D01*
X0161271Y0157102D02*
X0163682Y0157102D01*
X0165080Y0157102D02*
X0193682Y0157102D01*
X0195080Y0157102D02*
X0197491Y0157102D01*
X0197491Y0156513D02*
X0196350Y0156513D01*
X0196939Y0155923D02*
X0197491Y0155923D01*
X0197491Y0155334D02*
X0197316Y0155334D01*
X0197339Y0152389D02*
X0197491Y0152389D01*
X0197491Y0151800D02*
X0196993Y0151800D01*
X0197491Y0151211D02*
X0196404Y0151211D01*
X0197491Y0150622D02*
X0195211Y0150622D01*
X0193551Y0150622D02*
X0165211Y0150622D01*
X0166404Y0151211D02*
X0192358Y0151211D01*
X0191769Y0151800D02*
X0166993Y0151800D01*
X0167339Y0152389D02*
X0191423Y0152389D01*
X0191179Y0152978D02*
X0167583Y0152978D01*
X0167667Y0153567D02*
X0191095Y0153567D01*
X0191095Y0154156D02*
X0167667Y0154156D01*
X0167560Y0154745D02*
X0191202Y0154745D01*
X0191446Y0155334D02*
X0167316Y0155334D01*
X0166939Y0155923D02*
X0191823Y0155923D01*
X0192412Y0156513D02*
X0166350Y0156513D01*
X0158909Y0150033D02*
X0122688Y0150033D01*
X0122688Y0150622D02*
X0124968Y0150622D01*
X0123775Y0151211D02*
X0122688Y0151211D01*
X0122688Y0151800D02*
X0123186Y0151800D01*
X0122841Y0152389D02*
X0122688Y0152389D01*
X0120326Y0152389D02*
X0120173Y0152389D01*
X0120326Y0151800D02*
X0119828Y0151800D01*
X0120326Y0151211D02*
X0119239Y0151211D01*
X0120326Y0150622D02*
X0118046Y0150622D01*
X0116386Y0150622D02*
X0088046Y0150622D01*
X0089239Y0151211D02*
X0115193Y0151211D01*
X0114603Y0151800D02*
X0089828Y0151800D01*
X0090173Y0152389D02*
X0114258Y0152389D01*
X0114014Y0152978D02*
X0090417Y0152978D01*
X0090502Y0153567D02*
X0113930Y0153567D01*
X0113930Y0154156D02*
X0090502Y0154156D01*
X0090395Y0154745D02*
X0114036Y0154745D01*
X0114280Y0155334D02*
X0090151Y0155334D01*
X0089774Y0155923D02*
X0114658Y0155923D01*
X0115247Y0156513D02*
X0089185Y0156513D01*
X0087915Y0157102D02*
X0116516Y0157102D01*
X0117915Y0157102D02*
X0120326Y0157102D01*
X0120326Y0156513D02*
X0119185Y0156513D01*
X0119774Y0155923D02*
X0120326Y0155923D01*
X0120326Y0155334D02*
X0120151Y0155334D01*
X0122688Y0155334D02*
X0122863Y0155334D01*
X0122688Y0155923D02*
X0123240Y0155923D01*
X0122688Y0156513D02*
X0123829Y0156513D01*
X0122688Y0157102D02*
X0125099Y0157102D01*
X0122688Y0149444D02*
X0158909Y0149444D01*
X0158909Y0148855D02*
X0122688Y0148855D01*
X0122688Y0148266D02*
X0158909Y0148266D01*
X0158909Y0147677D02*
X0122688Y0147677D01*
X0122688Y0147088D02*
X0125065Y0147088D01*
X0123815Y0146498D02*
X0122688Y0146498D01*
X0122688Y0145909D02*
X0123226Y0145909D01*
X0122857Y0145320D02*
X0122688Y0145320D01*
X0120326Y0145320D02*
X0120157Y0145320D01*
X0120326Y0145909D02*
X0119788Y0145909D01*
X0120326Y0146498D02*
X0119199Y0146498D01*
X0120326Y0147088D02*
X0117949Y0147088D01*
X0116483Y0147088D02*
X0087949Y0147088D01*
X0089199Y0146498D02*
X0115233Y0146498D01*
X0114644Y0145909D02*
X0089788Y0145909D01*
X0090157Y0145320D02*
X0114275Y0145320D01*
X0114031Y0144731D02*
X0090401Y0144731D01*
X0090502Y0144142D02*
X0113930Y0144142D01*
X0113930Y0143553D02*
X0090502Y0143553D01*
X0090412Y0142964D02*
X0114020Y0142964D01*
X0114264Y0142375D02*
X0090168Y0142375D01*
X0089814Y0141786D02*
X0114618Y0141786D01*
X0115207Y0141197D02*
X0089225Y0141197D01*
X0088012Y0140608D02*
X0116420Y0140608D01*
X0118012Y0140608D02*
X0120326Y0140608D01*
X0120326Y0141197D02*
X0119225Y0141197D01*
X0119814Y0141786D02*
X0120326Y0141786D01*
X0120326Y0142375D02*
X0120168Y0142375D01*
X0120326Y0140019D02*
X0084105Y0140019D01*
X0084105Y0140608D02*
X0086420Y0140608D01*
X0085207Y0141197D02*
X0084105Y0141197D01*
X0084105Y0141786D02*
X0084618Y0141786D01*
X0084264Y0142375D02*
X0084105Y0142375D01*
X0081743Y0142375D02*
X0081585Y0142375D01*
X0081743Y0141786D02*
X0081231Y0141786D01*
X0081743Y0141197D02*
X0080642Y0141197D01*
X0081743Y0140608D02*
X0079429Y0140608D01*
X0077837Y0140608D02*
X0049429Y0140608D01*
X0050642Y0141197D02*
X0076624Y0141197D01*
X0076035Y0141786D02*
X0051231Y0141786D01*
X0051585Y0142375D02*
X0075681Y0142375D01*
X0075437Y0142964D02*
X0051829Y0142964D01*
X0051919Y0143553D02*
X0075347Y0143553D01*
X0075347Y0144142D02*
X0051919Y0144142D01*
X0051818Y0144731D02*
X0075448Y0144731D01*
X0075692Y0145320D02*
X0051574Y0145320D01*
X0051205Y0145909D02*
X0076061Y0145909D01*
X0076650Y0146498D02*
X0050616Y0146498D01*
X0049366Y0147088D02*
X0077900Y0147088D01*
X0079366Y0147088D02*
X0081743Y0147088D01*
X0081743Y0147677D02*
X0045523Y0147677D01*
X0045523Y0148266D02*
X0081743Y0148266D01*
X0081743Y0148855D02*
X0045523Y0148855D01*
X0045523Y0149444D02*
X0081743Y0149444D01*
X0081743Y0150033D02*
X0045523Y0150033D01*
X0045523Y0150622D02*
X0047803Y0150622D01*
X0046610Y0151211D02*
X0045523Y0151211D01*
X0045523Y0151800D02*
X0046021Y0151800D01*
X0045675Y0152389D02*
X0045523Y0152389D01*
X0045523Y0155334D02*
X0045698Y0155334D01*
X0045523Y0155923D02*
X0046075Y0155923D01*
X0045523Y0156513D02*
X0046664Y0156513D01*
X0045523Y0157102D02*
X0047934Y0157102D01*
X0049332Y0157102D02*
X0077934Y0157102D01*
X0079332Y0157102D02*
X0081743Y0157102D01*
X0081743Y0156513D02*
X0080602Y0156513D01*
X0081191Y0155923D02*
X0081743Y0155923D01*
X0081743Y0155334D02*
X0081568Y0155334D01*
X0084105Y0155334D02*
X0084280Y0155334D01*
X0084105Y0155923D02*
X0084658Y0155923D01*
X0084105Y0156513D02*
X0085247Y0156513D01*
X0084105Y0157102D02*
X0086516Y0157102D01*
X0084258Y0152389D02*
X0084105Y0152389D01*
X0084105Y0151800D02*
X0084603Y0151800D01*
X0084105Y0151211D02*
X0085193Y0151211D01*
X0084105Y0150622D02*
X0086386Y0150622D01*
X0084105Y0150033D02*
X0120326Y0150033D01*
X0120326Y0149444D02*
X0084105Y0149444D01*
X0084105Y0148855D02*
X0120326Y0148855D01*
X0120326Y0148266D02*
X0084105Y0148266D01*
X0084105Y0147677D02*
X0120326Y0147677D01*
X0126532Y0147088D02*
X0155065Y0147088D01*
X0153815Y0146498D02*
X0127781Y0146498D01*
X0128370Y0145909D02*
X0153226Y0145909D01*
X0152857Y0145320D02*
X0128740Y0145320D01*
X0128984Y0144731D02*
X0152613Y0144731D01*
X0152513Y0144142D02*
X0129084Y0144142D01*
X0129084Y0143553D02*
X0152513Y0143553D01*
X0152602Y0142964D02*
X0128994Y0142964D01*
X0128750Y0142375D02*
X0152846Y0142375D01*
X0153200Y0141786D02*
X0128397Y0141786D01*
X0127807Y0141197D02*
X0153789Y0141197D01*
X0155002Y0140608D02*
X0126594Y0140608D01*
X0125002Y0140608D02*
X0122688Y0140608D01*
X0122688Y0141197D02*
X0123789Y0141197D01*
X0123200Y0141786D02*
X0122688Y0141786D01*
X0122688Y0142375D02*
X0122846Y0142375D01*
X0122688Y0140019D02*
X0158909Y0140019D01*
X0158909Y0140608D02*
X0156594Y0140608D01*
X0157807Y0141197D02*
X0158909Y0141197D01*
X0158909Y0141786D02*
X0158397Y0141786D01*
X0158750Y0142375D02*
X0158909Y0142375D01*
X0161271Y0142375D02*
X0161429Y0142375D01*
X0161271Y0141786D02*
X0161783Y0141786D01*
X0161271Y0141197D02*
X0162372Y0141197D01*
X0161271Y0140608D02*
X0163585Y0140608D01*
X0158909Y0139430D02*
X0122688Y0139430D01*
X0122688Y0138841D02*
X0158909Y0138841D01*
X0158909Y0138252D02*
X0122688Y0138252D01*
X0122688Y0137663D02*
X0158909Y0137663D01*
X0158909Y0137073D02*
X0156565Y0137073D01*
X0157795Y0136484D02*
X0158909Y0136484D01*
X0158909Y0135895D02*
X0158385Y0135895D01*
X0158745Y0135306D02*
X0158909Y0135306D01*
X0155031Y0137073D02*
X0126565Y0137073D01*
X0127795Y0136484D02*
X0153801Y0136484D01*
X0153212Y0135895D02*
X0128385Y0135895D01*
X0128745Y0135306D02*
X0152851Y0135306D01*
X0152607Y0134717D02*
X0128989Y0134717D01*
X0129084Y0134128D02*
X0152513Y0134128D01*
X0152513Y0133539D02*
X0129084Y0133539D01*
X0128988Y0132950D02*
X0152608Y0132950D01*
X0152852Y0132361D02*
X0128744Y0132361D01*
X0128382Y0131772D02*
X0153214Y0131772D01*
X0153803Y0131183D02*
X0127793Y0131183D01*
X0126560Y0130594D02*
X0155036Y0130594D01*
X0161271Y0130005D02*
X0197491Y0130005D01*
X0197491Y0130594D02*
X0195143Y0130594D01*
X0196376Y0131183D02*
X0197491Y0131183D01*
X0197491Y0131772D02*
X0196965Y0131772D01*
X0197327Y0132361D02*
X0197491Y0132361D01*
X0197491Y0129416D02*
X0161271Y0129416D01*
X0161271Y0128827D02*
X0197491Y0128827D01*
X0197491Y0128237D02*
X0161271Y0128237D01*
X0158909Y0119402D02*
X0122688Y0119402D01*
X0122688Y0118812D02*
X0158909Y0118812D01*
X0158909Y0118223D02*
X0122688Y0118223D01*
X0120326Y0118223D02*
X0084105Y0118223D01*
X0084105Y0117634D02*
X0120326Y0117634D01*
X0120326Y0117045D02*
X0118051Y0117045D01*
X0119241Y0116456D02*
X0120326Y0116456D01*
X0120326Y0115867D02*
X0119830Y0115867D01*
X0120174Y0115278D02*
X0120326Y0115278D01*
X0120326Y0112333D02*
X0120150Y0112333D01*
X0120326Y0111744D02*
X0119772Y0111744D01*
X0120326Y0111155D02*
X0119183Y0111155D01*
X0120326Y0110566D02*
X0117910Y0110566D01*
X0116522Y0110566D02*
X0087910Y0110566D01*
X0086522Y0110566D02*
X0084105Y0110566D01*
X0084105Y0111155D02*
X0085249Y0111155D01*
X0084660Y0111744D02*
X0084105Y0111744D01*
X0084105Y0112333D02*
X0084281Y0112333D01*
X0084105Y0109977D02*
X0120326Y0109977D01*
X0120326Y0109387D02*
X0084105Y0109387D01*
X0084105Y0108798D02*
X0120326Y0108798D01*
X0120326Y0108209D02*
X0084105Y0108209D01*
X0084105Y0107620D02*
X0120326Y0107620D01*
X0120326Y0107031D02*
X0118085Y0107031D01*
X0119255Y0106442D02*
X0120326Y0106442D01*
X0120326Y0105853D02*
X0119844Y0105853D01*
X0120180Y0105264D02*
X0120326Y0105264D01*
X0122688Y0105264D02*
X0122834Y0105264D01*
X0122688Y0105853D02*
X0123170Y0105853D01*
X0122688Y0106442D02*
X0123759Y0106442D01*
X0122688Y0107031D02*
X0124929Y0107031D01*
X0116347Y0107031D02*
X0088085Y0107031D01*
X0089255Y0106442D02*
X0115176Y0106442D01*
X0114587Y0105853D02*
X0089844Y0105853D01*
X0090180Y0105264D02*
X0114251Y0105264D01*
X0114007Y0104675D02*
X0090424Y0104675D01*
X0090502Y0104086D02*
X0113930Y0104086D01*
X0113930Y0103497D02*
X0090502Y0103497D01*
X0090388Y0102908D02*
X0114043Y0102908D01*
X0114287Y0102319D02*
X0090144Y0102319D01*
X0089758Y0101730D02*
X0114674Y0101730D01*
X0115263Y0101141D02*
X0089169Y0101141D01*
X0088294Y0097388D02*
X0087580Y0097530D01*
X0087511Y0097530D01*
X0087511Y0094130D01*
X0090911Y0094130D01*
X0090911Y0094199D01*
X0090769Y0094913D01*
X0090490Y0095585D01*
X0090086Y0096190D01*
X0089571Y0096705D01*
X0088966Y0097109D01*
X0088294Y0097388D01*
X0087511Y0097017D02*
X0086920Y0097017D01*
X0086920Y0096428D02*
X0087511Y0096428D01*
X0087511Y0095839D02*
X0086920Y0095839D01*
X0086920Y0095250D02*
X0087511Y0095250D01*
X0087511Y0094661D02*
X0086920Y0094661D01*
X0087511Y0094072D02*
X0113930Y0094072D01*
X0113930Y0093483D02*
X0090911Y0093483D01*
X0090796Y0092894D02*
X0114049Y0092894D01*
X0114293Y0092305D02*
X0090582Y0092305D01*
X0090244Y0091716D02*
X0114688Y0091716D01*
X0115277Y0091127D02*
X0089734Y0091127D01*
X0090819Y0094661D02*
X0114001Y0094661D01*
X0114245Y0095250D02*
X0090629Y0095250D01*
X0090321Y0095839D02*
X0114573Y0095839D01*
X0115162Y0096428D02*
X0089848Y0096428D01*
X0089104Y0097017D02*
X0116313Y0097017D01*
X0115249Y0111155D02*
X0089183Y0111155D01*
X0089772Y0111744D02*
X0114660Y0111744D01*
X0114281Y0112333D02*
X0090150Y0112333D01*
X0090394Y0112922D02*
X0114037Y0112922D01*
X0113930Y0113511D02*
X0090502Y0113511D01*
X0090502Y0114100D02*
X0113930Y0114100D01*
X0114013Y0114689D02*
X0090418Y0114689D01*
X0090174Y0115278D02*
X0114257Y0115278D01*
X0114601Y0115867D02*
X0089830Y0115867D01*
X0089241Y0116456D02*
X0115190Y0116456D01*
X0116381Y0117045D02*
X0088051Y0117045D01*
X0086381Y0117045D02*
X0084105Y0117045D01*
X0084105Y0116456D02*
X0085190Y0116456D01*
X0084601Y0115867D02*
X0084105Y0115867D01*
X0084105Y0115278D02*
X0084257Y0115278D01*
X0081743Y0115278D02*
X0081592Y0115278D01*
X0081743Y0115867D02*
X0081247Y0115867D01*
X0081743Y0116456D02*
X0080658Y0116456D01*
X0081743Y0117045D02*
X0079468Y0117045D01*
X0077798Y0117045D02*
X0049468Y0117045D01*
X0050658Y0116456D02*
X0076608Y0116456D01*
X0076019Y0115867D02*
X0051247Y0115867D01*
X0051592Y0115278D02*
X0075674Y0115278D01*
X0075430Y0114689D02*
X0051836Y0114689D01*
X0051919Y0114100D02*
X0075347Y0114100D01*
X0075347Y0113511D02*
X0051919Y0113511D01*
X0051811Y0112922D02*
X0075455Y0112922D01*
X0075699Y0112333D02*
X0051567Y0112333D01*
X0051189Y0111744D02*
X0076077Y0111744D01*
X0076666Y0111155D02*
X0050600Y0111155D01*
X0049327Y0110566D02*
X0077939Y0110566D01*
X0079327Y0110566D02*
X0081743Y0110566D01*
X0081743Y0111155D02*
X0080600Y0111155D01*
X0081189Y0111744D02*
X0081743Y0111744D01*
X0081743Y0112333D02*
X0081567Y0112333D01*
X0081743Y0109977D02*
X0045523Y0109977D01*
X0045523Y0110566D02*
X0047939Y0110566D01*
X0046666Y0111155D02*
X0045523Y0111155D01*
X0045523Y0111744D02*
X0046077Y0111744D01*
X0045699Y0112333D02*
X0045523Y0112333D01*
X0045523Y0109387D02*
X0081743Y0109387D01*
X0081743Y0108798D02*
X0045523Y0108798D01*
X0045523Y0108209D02*
X0081743Y0108209D01*
X0081743Y0107620D02*
X0045523Y0107620D01*
X0045523Y0115278D02*
X0045674Y0115278D01*
X0045523Y0115867D02*
X0046019Y0115867D01*
X0045523Y0116456D02*
X0046608Y0116456D01*
X0045523Y0117045D02*
X0047798Y0117045D01*
X0045523Y0117634D02*
X0081743Y0117634D01*
X0081743Y0118223D02*
X0045523Y0118223D01*
X0045523Y0118812D02*
X0081743Y0118812D01*
X0081743Y0119402D02*
X0045523Y0119402D01*
X0045523Y0119991D02*
X0081743Y0119991D01*
X0081743Y0120580D02*
X0079361Y0120580D01*
X0080614Y0121169D02*
X0081743Y0121169D01*
X0081743Y0121758D02*
X0081203Y0121758D01*
X0081573Y0122347D02*
X0081743Y0122347D01*
X0084105Y0122347D02*
X0084275Y0122347D01*
X0084105Y0121758D02*
X0084646Y0121758D01*
X0084105Y0121169D02*
X0085235Y0121169D01*
X0084105Y0120580D02*
X0086488Y0120580D01*
X0084105Y0119991D02*
X0120326Y0119991D01*
X0120326Y0119402D02*
X0084105Y0119402D01*
X0084105Y0118812D02*
X0120326Y0118812D01*
X0120326Y0127648D02*
X0084105Y0127648D01*
X0084105Y0127059D02*
X0086415Y0127059D01*
X0085204Y0126470D02*
X0084105Y0126470D01*
X0084105Y0125881D02*
X0084615Y0125881D01*
X0084263Y0125292D02*
X0084105Y0125292D01*
X0081743Y0125292D02*
X0081586Y0125292D01*
X0081743Y0125881D02*
X0081233Y0125881D01*
X0081743Y0126470D02*
X0080644Y0126470D01*
X0081743Y0127059D02*
X0079434Y0127059D01*
X0077832Y0127059D02*
X0049434Y0127059D01*
X0050644Y0126470D02*
X0076622Y0126470D01*
X0076033Y0125881D02*
X0051233Y0125881D01*
X0051586Y0125292D02*
X0075680Y0125292D01*
X0075436Y0124703D02*
X0051830Y0124703D01*
X0051919Y0124114D02*
X0075347Y0124114D01*
X0075347Y0123525D02*
X0051919Y0123525D01*
X0051817Y0122936D02*
X0075449Y0122936D01*
X0075693Y0122347D02*
X0051573Y0122347D01*
X0051203Y0121758D02*
X0076063Y0121758D01*
X0076652Y0121169D02*
X0050614Y0121169D01*
X0049361Y0120580D02*
X0077905Y0120580D01*
X0081743Y0127648D02*
X0045523Y0127648D01*
X0045523Y0127059D02*
X0047832Y0127059D01*
X0046622Y0126470D02*
X0045523Y0126470D01*
X0045523Y0125881D02*
X0046033Y0125881D01*
X0045680Y0125292D02*
X0045523Y0125292D01*
X0045523Y0122347D02*
X0045693Y0122347D01*
X0045523Y0121758D02*
X0046063Y0121758D01*
X0045523Y0121169D02*
X0046652Y0121169D01*
X0045523Y0120580D02*
X0047905Y0120580D01*
X0045523Y0128237D02*
X0081743Y0128237D01*
X0081743Y0128827D02*
X0045523Y0128827D01*
X0045523Y0129416D02*
X0081743Y0129416D01*
X0081743Y0130005D02*
X0045523Y0130005D01*
X0045523Y0130594D02*
X0047871Y0130594D01*
X0046638Y0131183D02*
X0045523Y0131183D01*
X0045523Y0131772D02*
X0046049Y0131772D01*
X0045687Y0132361D02*
X0045523Y0132361D01*
X0045523Y0135306D02*
X0045686Y0135306D01*
X0045523Y0135895D02*
X0046047Y0135895D01*
X0045523Y0136484D02*
X0046636Y0136484D01*
X0045523Y0137073D02*
X0047866Y0137073D01*
X0049400Y0137073D02*
X0077866Y0137073D01*
X0076636Y0136484D02*
X0050630Y0136484D01*
X0051219Y0135895D02*
X0076047Y0135895D01*
X0075686Y0135306D02*
X0051580Y0135306D01*
X0051824Y0134717D02*
X0075442Y0134717D01*
X0075347Y0134128D02*
X0051919Y0134128D01*
X0051919Y0133539D02*
X0075347Y0133539D01*
X0075443Y0132950D02*
X0051823Y0132950D01*
X0051579Y0132361D02*
X0075687Y0132361D01*
X0076049Y0131772D02*
X0051217Y0131772D01*
X0050628Y0131183D02*
X0076638Y0131183D01*
X0077871Y0130594D02*
X0049395Y0130594D01*
X0045523Y0137663D02*
X0081743Y0137663D01*
X0081743Y0138252D02*
X0045523Y0138252D01*
X0045523Y0138841D02*
X0081743Y0138841D01*
X0081743Y0139430D02*
X0045523Y0139430D01*
X0045523Y0140019D02*
X0081743Y0140019D01*
X0084105Y0139430D02*
X0120326Y0139430D01*
X0120326Y0138841D02*
X0084105Y0138841D01*
X0084105Y0138252D02*
X0120326Y0138252D01*
X0120326Y0137663D02*
X0084105Y0137663D01*
X0084105Y0137073D02*
X0086449Y0137073D01*
X0085219Y0136484D02*
X0084105Y0136484D01*
X0084105Y0135895D02*
X0084629Y0135895D01*
X0084269Y0135306D02*
X0084105Y0135306D01*
X0081743Y0135306D02*
X0081580Y0135306D01*
X0081743Y0135895D02*
X0081219Y0135895D01*
X0081743Y0136484D02*
X0080630Y0136484D01*
X0081743Y0137073D02*
X0079400Y0137073D01*
X0081579Y0132361D02*
X0081743Y0132361D01*
X0081743Y0131772D02*
X0081217Y0131772D01*
X0081743Y0131183D02*
X0080628Y0131183D01*
X0081743Y0130594D02*
X0079395Y0130594D01*
X0084105Y0130594D02*
X0086454Y0130594D01*
X0085221Y0131183D02*
X0084105Y0131183D01*
X0084105Y0131772D02*
X0084632Y0131772D01*
X0084270Y0132361D02*
X0084105Y0132361D01*
X0084105Y0130005D02*
X0120326Y0130005D01*
X0120326Y0130594D02*
X0117978Y0130594D01*
X0119211Y0131183D02*
X0120326Y0131183D01*
X0120326Y0131772D02*
X0119800Y0131772D01*
X0120162Y0132361D02*
X0120326Y0132361D01*
X0122688Y0132361D02*
X0122852Y0132361D01*
X0122688Y0131772D02*
X0123214Y0131772D01*
X0122688Y0131183D02*
X0123803Y0131183D01*
X0122688Y0130594D02*
X0125036Y0130594D01*
X0120326Y0129416D02*
X0084105Y0129416D01*
X0084105Y0128827D02*
X0120326Y0128827D01*
X0120326Y0128237D02*
X0084105Y0128237D01*
X0087978Y0130594D02*
X0116454Y0130594D01*
X0115221Y0131183D02*
X0089211Y0131183D01*
X0089800Y0131772D02*
X0114632Y0131772D01*
X0114270Y0132361D02*
X0090162Y0132361D01*
X0090406Y0132950D02*
X0114026Y0132950D01*
X0113930Y0133539D02*
X0090502Y0133539D01*
X0090502Y0134128D02*
X0113930Y0134128D01*
X0114025Y0134717D02*
X0090407Y0134717D01*
X0090163Y0135306D02*
X0114269Y0135306D01*
X0114629Y0135895D02*
X0089802Y0135895D01*
X0089213Y0136484D02*
X0115219Y0136484D01*
X0116449Y0137073D02*
X0087983Y0137073D01*
X0084275Y0145320D02*
X0084105Y0145320D01*
X0084105Y0145909D02*
X0084644Y0145909D01*
X0084105Y0146498D02*
X0085233Y0146498D01*
X0084105Y0147088D02*
X0086483Y0147088D01*
X0081743Y0146498D02*
X0080616Y0146498D01*
X0081205Y0145909D02*
X0081743Y0145909D01*
X0081743Y0145320D02*
X0081574Y0145320D01*
X0081743Y0150622D02*
X0079463Y0150622D01*
X0080656Y0151211D02*
X0081743Y0151211D01*
X0081743Y0151800D02*
X0081245Y0151800D01*
X0081591Y0152389D02*
X0081743Y0152389D01*
X0077803Y0150622D02*
X0049463Y0150622D01*
X0050656Y0151211D02*
X0076610Y0151211D01*
X0076021Y0151800D02*
X0051245Y0151800D01*
X0051591Y0152389D02*
X0075675Y0152389D01*
X0075431Y0152978D02*
X0051835Y0152978D01*
X0051919Y0153567D02*
X0075347Y0153567D01*
X0075347Y0154156D02*
X0051919Y0154156D01*
X0051812Y0154745D02*
X0075454Y0154745D01*
X0075698Y0155334D02*
X0051568Y0155334D01*
X0051191Y0155923D02*
X0076075Y0155923D01*
X0076664Y0156513D02*
X0050602Y0156513D01*
X0047900Y0147088D02*
X0045523Y0147088D01*
X0045523Y0146498D02*
X0046650Y0146498D01*
X0046061Y0145909D02*
X0045523Y0145909D01*
X0045523Y0145320D02*
X0045692Y0145320D01*
X0045681Y0142375D02*
X0045523Y0142375D01*
X0045523Y0141786D02*
X0046035Y0141786D01*
X0045523Y0141197D02*
X0046624Y0141197D01*
X0045523Y0140608D02*
X0047837Y0140608D01*
X0079502Y0107031D02*
X0081743Y0107031D01*
X0081743Y0106442D02*
X0080672Y0106442D01*
X0081261Y0105853D02*
X0081743Y0105853D01*
X0081743Y0105264D02*
X0081597Y0105264D01*
X0084105Y0105264D02*
X0084251Y0105264D01*
X0084105Y0105853D02*
X0084587Y0105853D01*
X0084105Y0106442D02*
X0085176Y0106442D01*
X0084105Y0107031D02*
X0086347Y0107031D01*
X0081743Y0099962D02*
X0045523Y0099962D01*
X0045523Y0099373D02*
X0081743Y0099373D01*
X0081743Y0098784D02*
X0045523Y0098784D01*
X0045523Y0098195D02*
X0081743Y0098195D01*
X0075466Y0092894D02*
X0052214Y0092894D01*
X0051999Y0092305D02*
X0075710Y0092305D01*
X0076105Y0091716D02*
X0051661Y0091716D01*
X0051151Y0091127D02*
X0076694Y0091127D01*
X0077879Y0088181D02*
X0049387Y0088181D01*
X0050625Y0087592D02*
X0076641Y0087592D01*
X0076052Y0087003D02*
X0051214Y0087003D01*
X0051578Y0086414D02*
X0075688Y0086414D01*
X0075444Y0085825D02*
X0051822Y0085825D01*
X0051919Y0085236D02*
X0075347Y0085236D01*
X0075347Y0084647D02*
X0051919Y0084647D01*
X0051825Y0084058D02*
X0075441Y0084058D01*
X0075685Y0083469D02*
X0051581Y0083469D01*
X0051223Y0082880D02*
X0076043Y0082880D01*
X0076633Y0082291D02*
X0050633Y0082291D01*
X0049408Y0081702D02*
X0077858Y0081702D01*
X0079408Y0081702D02*
X0081743Y0081702D01*
X0081743Y0082291D02*
X0080633Y0082291D01*
X0081223Y0082880D02*
X0081743Y0082880D01*
X0081743Y0083469D02*
X0081581Y0083469D01*
X0081743Y0081113D02*
X0045523Y0081113D01*
X0045523Y0081702D02*
X0047858Y0081702D01*
X0046633Y0082291D02*
X0045523Y0082291D01*
X0045523Y0082880D02*
X0046043Y0082880D01*
X0045685Y0083469D02*
X0045523Y0083469D01*
X0045523Y0086414D02*
X0045688Y0086414D01*
X0045523Y0087003D02*
X0046052Y0087003D01*
X0045523Y0087592D02*
X0046641Y0087592D01*
X0045523Y0088181D02*
X0047879Y0088181D01*
X0045523Y0080523D02*
X0081743Y0080523D01*
X0081743Y0079934D02*
X0045523Y0079934D01*
X0045523Y0079345D02*
X0081743Y0079345D01*
X0084105Y0081702D02*
X0086440Y0081702D01*
X0085215Y0082291D02*
X0084105Y0082291D01*
X0084105Y0082880D02*
X0084626Y0082880D01*
X0084267Y0083469D02*
X0084105Y0083469D01*
X0084105Y0086414D02*
X0084271Y0086414D01*
X0084105Y0087003D02*
X0084635Y0087003D01*
X0084105Y0087592D02*
X0085224Y0087592D01*
X0084105Y0088181D02*
X0086462Y0088181D01*
X0081743Y0088181D02*
X0079387Y0088181D01*
X0080625Y0087592D02*
X0081743Y0087592D01*
X0081743Y0087003D02*
X0081214Y0087003D01*
X0081578Y0086414D02*
X0081743Y0086414D01*
X0047811Y0068153D02*
X0045523Y0068153D01*
X0045523Y0067564D02*
X0046613Y0067564D01*
X0046024Y0066975D02*
X0045523Y0066975D01*
X0045523Y0066386D02*
X0045677Y0066386D01*
X0045696Y0063441D02*
X0045523Y0063441D01*
X0045523Y0062852D02*
X0046072Y0062852D01*
X0045523Y0062262D02*
X0046661Y0062262D01*
X0045523Y0061673D02*
X0047926Y0061673D01*
X0046571Y0037522D02*
X0045523Y0037522D01*
X0045523Y0036933D02*
X0045982Y0036933D01*
X0045659Y0036344D02*
X0045523Y0036344D01*
X0117923Y0061673D02*
X0120326Y0061673D01*
X0120326Y0062262D02*
X0119188Y0062262D01*
X0119777Y0062852D02*
X0120326Y0062852D01*
X0120326Y0063441D02*
X0120152Y0063441D01*
X0122688Y0063441D02*
X0122862Y0063441D01*
X0122688Y0062852D02*
X0123237Y0062852D01*
X0122688Y0062262D02*
X0123826Y0062262D01*
X0122688Y0061673D02*
X0125091Y0061673D01*
X0122842Y0066386D02*
X0122688Y0066386D01*
X0122688Y0066975D02*
X0123189Y0066975D01*
X0122688Y0067564D02*
X0123779Y0067564D01*
X0122688Y0068153D02*
X0124977Y0068153D01*
X0122688Y0068742D02*
X0158909Y0068742D01*
X0158909Y0069331D02*
X0122688Y0069331D01*
X0122688Y0069920D02*
X0158909Y0069920D01*
X0158909Y0070509D02*
X0122688Y0070509D01*
X0122688Y0071098D02*
X0158909Y0071098D01*
X0161271Y0076400D02*
X0161430Y0076400D01*
X0161271Y0076989D02*
X0161786Y0076989D01*
X0161271Y0077578D02*
X0162375Y0077578D01*
X0161271Y0078167D02*
X0163593Y0078167D01*
X0165169Y0078167D02*
X0193593Y0078167D01*
X0192375Y0077578D02*
X0166387Y0077578D01*
X0166976Y0076989D02*
X0191786Y0076989D01*
X0191430Y0076400D02*
X0167332Y0076400D01*
X0167576Y0075811D02*
X0191186Y0075811D01*
X0191095Y0075222D02*
X0167667Y0075222D01*
X0167667Y0074633D02*
X0191095Y0074633D01*
X0191194Y0074044D02*
X0167568Y0074044D01*
X0167324Y0073455D02*
X0191438Y0073455D01*
X0191806Y0072866D02*
X0166957Y0072866D01*
X0166367Y0072277D02*
X0192395Y0072277D01*
X0193640Y0071688D02*
X0165122Y0071688D01*
X0161271Y0078756D02*
X0197491Y0078756D01*
X0197491Y0078167D02*
X0195169Y0078167D01*
X0196387Y0077578D02*
X0197491Y0077578D01*
X0197491Y0076989D02*
X0196976Y0076989D01*
X0197332Y0076400D02*
X0197491Y0076400D01*
X0197491Y0073455D02*
X0197324Y0073455D01*
X0197491Y0072866D02*
X0196957Y0072866D01*
X0197491Y0072277D02*
X0196367Y0072277D01*
X0197491Y0071688D02*
X0195122Y0071688D01*
X0197491Y0079345D02*
X0161271Y0079345D01*
X0161271Y0079934D02*
X0197491Y0079934D01*
X0197491Y0080523D02*
X0161271Y0080523D01*
X0161271Y0081113D02*
X0197491Y0081113D01*
X0197491Y0081702D02*
X0195156Y0081702D01*
X0196382Y0082291D02*
X0197491Y0082291D01*
X0197491Y0082880D02*
X0196971Y0082880D01*
X0197329Y0083469D02*
X0197491Y0083469D01*
X0197491Y0086414D02*
X0197326Y0086414D01*
X0197491Y0087003D02*
X0196962Y0087003D01*
X0197491Y0087592D02*
X0196373Y0087592D01*
X0197491Y0088181D02*
X0195135Y0088181D01*
X0192442Y0091127D02*
X0166899Y0091127D01*
X0167409Y0091716D02*
X0191853Y0091716D01*
X0191458Y0092305D02*
X0167747Y0092305D01*
X0167962Y0092894D02*
X0191214Y0092894D01*
X0191095Y0093483D02*
X0168076Y0093483D01*
X0168076Y0094130D02*
X0168076Y0094199D01*
X0167934Y0094913D01*
X0167656Y0095585D01*
X0167251Y0096190D01*
X0166737Y0096705D01*
X0166131Y0097109D01*
X0165459Y0097388D01*
X0164745Y0097530D01*
X0164676Y0097530D01*
X0164676Y0094130D01*
X0168076Y0094130D01*
X0167984Y0094661D02*
X0191167Y0094661D01*
X0191095Y0094072D02*
X0164676Y0094072D01*
X0164676Y0094661D02*
X0164086Y0094661D01*
X0164086Y0095250D02*
X0164676Y0095250D01*
X0164676Y0095839D02*
X0164086Y0095839D01*
X0164086Y0096428D02*
X0164676Y0096428D01*
X0164676Y0097017D02*
X0164086Y0097017D01*
X0166269Y0097017D02*
X0193478Y0097017D01*
X0192328Y0096428D02*
X0167013Y0096428D01*
X0167486Y0095839D02*
X0191739Y0095839D01*
X0191411Y0095250D02*
X0167795Y0095250D01*
X0158909Y0080523D02*
X0122688Y0080523D01*
X0122688Y0079934D02*
X0158909Y0079934D01*
X0158909Y0079345D02*
X0122688Y0079345D01*
X0122688Y0073455D02*
X0122856Y0073455D01*
X0122688Y0072866D02*
X0123223Y0072866D01*
X0122688Y0072277D02*
X0123812Y0072277D01*
X0122688Y0071688D02*
X0125057Y0071688D01*
X0120326Y0068153D02*
X0118038Y0068153D01*
X0119235Y0067564D02*
X0120326Y0067564D01*
X0120326Y0066975D02*
X0119825Y0066975D01*
X0120172Y0066386D02*
X0120326Y0066386D01*
X0120326Y0048125D02*
X0118105Y0048125D01*
X0119264Y0047536D02*
X0120326Y0047536D01*
X0120326Y0046947D02*
X0119853Y0046947D01*
X0120184Y0046358D02*
X0120326Y0046358D01*
X0122688Y0046358D02*
X0122830Y0046358D01*
X0122688Y0046947D02*
X0123161Y0046947D01*
X0122688Y0047536D02*
X0123750Y0047536D01*
X0122688Y0048125D02*
X0124909Y0048125D01*
X0156722Y0038111D02*
X0158909Y0038111D01*
X0158909Y0037522D02*
X0157860Y0037522D01*
X0158449Y0036933D02*
X0158909Y0036933D01*
X0158909Y0036344D02*
X0158772Y0036344D01*
X0161271Y0036344D02*
X0161407Y0036344D01*
X0161271Y0036933D02*
X0161730Y0036933D01*
X0161271Y0037522D02*
X0162319Y0037522D01*
X0161271Y0038111D02*
X0163457Y0038111D01*
X0162437Y0042234D02*
X0161271Y0042234D01*
X0161271Y0042823D02*
X0161848Y0042823D01*
X0161456Y0043412D02*
X0161271Y0043412D01*
X0158909Y0043412D02*
X0158723Y0043412D01*
X0158909Y0042823D02*
X0158332Y0042823D01*
X0158909Y0042234D02*
X0157743Y0042234D01*
X0167957Y0023973D02*
X0191224Y0023973D01*
X0191468Y0023384D02*
X0167738Y0023384D01*
X0167394Y0022795D02*
X0191876Y0022795D01*
X0192465Y0022206D02*
X0166876Y0022206D01*
X0197328Y0135306D02*
X0197491Y0135306D01*
X0197491Y0135895D02*
X0196967Y0135895D01*
X0197491Y0136484D02*
X0196378Y0136484D01*
X0197491Y0137073D02*
X0195148Y0137073D01*
X0197322Y0145320D02*
X0197491Y0145320D01*
X0197491Y0145909D02*
X0196953Y0145909D01*
X0197491Y0146498D02*
X0196364Y0146498D01*
X0163648Y0147088D02*
X0161271Y0147088D01*
X0161271Y0146498D02*
X0162398Y0146498D01*
X0161809Y0145909D02*
X0161271Y0145909D01*
X0161271Y0145320D02*
X0161440Y0145320D01*
X0158909Y0145320D02*
X0158740Y0145320D01*
X0158909Y0145909D02*
X0158370Y0145909D01*
X0158909Y0146498D02*
X0157781Y0146498D01*
X0158909Y0147088D02*
X0156532Y0147088D01*
X0125031Y0137073D02*
X0122688Y0137073D01*
X0122688Y0136484D02*
X0123801Y0136484D01*
X0123212Y0135895D02*
X0122688Y0135895D01*
X0122688Y0135306D02*
X0122851Y0135306D01*
X0120326Y0135306D02*
X0120163Y0135306D01*
X0120326Y0135895D02*
X0119802Y0135895D01*
X0120326Y0136484D02*
X0119213Y0136484D01*
X0120326Y0137073D02*
X0117983Y0137073D01*
D12*
X0102216Y0123835D03*
X0063633Y0123835D03*
X0140798Y0123835D03*
X0179381Y0123835D03*
X0179381Y0054937D03*
X0140798Y0054937D03*
X0102216Y0054937D03*
X0063633Y0054937D03*
D13*
X0063633Y0039937D01*
X0048633Y0024937D01*
X0087216Y0024937D02*
X0102216Y0039937D01*
X0102216Y0054937D01*
X0125798Y0024937D02*
X0140798Y0039937D01*
X0140798Y0054937D01*
X0164381Y0024937D02*
X0179381Y0039937D01*
X0179381Y0054937D01*
X0164381Y0093835D02*
X0179381Y0108835D01*
X0179381Y0123835D01*
X0140798Y0123835D02*
X0140798Y0108835D01*
X0125798Y0093835D01*
X0102216Y0108835D02*
X0087216Y0093835D01*
X0102216Y0108835D02*
X0102216Y0123835D01*
X0063633Y0123835D02*
X0063633Y0108835D01*
X0048633Y0093835D01*
D14*
X0064027Y0168323D03*
X0209696Y0168323D03*
X0182137Y0010843D03*
M02*
