G75*
%MOIN*%
%OFA0B0*%
%FSLAX25Y25*%
%IPPOS*%
%LPD*%
%AMOC8*
5,1,8,0,0,1.08239X$1,22.5*
%
%ADD10C,0.05600*%
%ADD11C,0.03162*%
%ADD12C,0.06400*%
D10*
X0048633Y0024937D03*
X0048633Y0034937D03*
X0048633Y0044937D03*
X0048633Y0054937D03*
X0048633Y0064937D03*
X0048633Y0074937D03*
X0048633Y0084937D03*
X0048633Y0093835D03*
X0048633Y0103835D03*
X0048633Y0113835D03*
X0048633Y0123835D03*
X0048633Y0133835D03*
X0048633Y0143835D03*
X0048633Y0153835D03*
X0078633Y0153835D03*
X0087216Y0153835D03*
X0087216Y0143835D03*
X0078633Y0143835D03*
X0078633Y0133835D03*
X0087216Y0133835D03*
X0087216Y0123835D03*
X0078633Y0123835D03*
X0078633Y0113835D03*
X0087216Y0113835D03*
X0087216Y0103835D03*
X0078633Y0103835D03*
X0078633Y0093835D03*
X0087216Y0093835D03*
X0087216Y0084937D03*
X0078633Y0084937D03*
X0078633Y0074937D03*
X0087216Y0074937D03*
X0087216Y0064937D03*
X0078633Y0064937D03*
X0078633Y0054937D03*
X0087216Y0054937D03*
X0087216Y0044937D03*
X0078633Y0044937D03*
X0078633Y0034937D03*
X0087216Y0034937D03*
X0087216Y0024937D03*
X0078633Y0024937D03*
X0117216Y0024937D03*
X0125798Y0024937D03*
X0125798Y0034937D03*
X0117216Y0034937D03*
X0117216Y0044937D03*
X0125798Y0044937D03*
X0125798Y0054937D03*
X0117216Y0054937D03*
X0117216Y0064937D03*
X0125798Y0064937D03*
X0125798Y0074937D03*
X0117216Y0074937D03*
X0117216Y0084937D03*
X0125798Y0084937D03*
X0125798Y0093835D03*
X0117216Y0093835D03*
X0117216Y0103835D03*
X0125798Y0103835D03*
X0125798Y0113835D03*
X0117216Y0113835D03*
X0117216Y0123835D03*
X0125798Y0123835D03*
X0125798Y0133835D03*
X0117216Y0133835D03*
X0117216Y0143835D03*
X0125798Y0143835D03*
X0125798Y0153835D03*
X0117216Y0153835D03*
X0155798Y0153835D03*
X0164381Y0153835D03*
X0164381Y0143835D03*
X0155798Y0143835D03*
X0155798Y0133835D03*
X0164381Y0133835D03*
X0164381Y0123835D03*
X0155798Y0123835D03*
X0155798Y0113835D03*
X0164381Y0113835D03*
X0164381Y0103835D03*
X0155798Y0103835D03*
X0155798Y0093835D03*
X0164381Y0093835D03*
X0164381Y0084937D03*
X0155798Y0084937D03*
X0155798Y0074937D03*
X0164381Y0074937D03*
X0164381Y0064937D03*
X0155798Y0064937D03*
X0155798Y0054937D03*
X0164381Y0054937D03*
X0164381Y0044937D03*
X0155798Y0044937D03*
X0155798Y0034937D03*
X0164381Y0034937D03*
X0164381Y0024937D03*
X0155798Y0024937D03*
X0194381Y0024937D03*
X0194381Y0034937D03*
X0194381Y0044937D03*
X0194381Y0054937D03*
X0194381Y0064937D03*
X0194381Y0074937D03*
X0194381Y0084937D03*
X0194381Y0093835D03*
X0194381Y0103835D03*
X0194381Y0113835D03*
X0194381Y0123835D03*
X0194381Y0133835D03*
X0194381Y0143835D03*
X0194381Y0153835D03*
D11*
X0179381Y0123835D03*
X0140798Y0123835D03*
X0102216Y0123835D03*
X0063633Y0123835D03*
X0063633Y0054937D03*
X0102216Y0054937D03*
X0140798Y0054937D03*
X0179381Y0054937D03*
D12*
X0182137Y0010843D03*
X0209696Y0168323D03*
X0064027Y0168323D03*
M02*
