G75*
%MOIN*%
%OFA0B0*%
%FSLAX25Y25*%
%IPPOS*%
%LPD*%
%AMOC8*
5,1,8,0,0,1.08239X$1,22.5*
%
%ADD10R,0.01181X0.03937*%
%ADD11R,0.03937X0.01181*%
%ADD12C,0.05600*%
%ADD13C,0.03162*%
%ADD14C,0.06400*%
D10*
X0062846Y0050606D03*
X0064420Y0050606D03*
X0064420Y0059268D03*
X0062846Y0059268D03*
X0101428Y0059268D03*
X0103003Y0059268D03*
X0103003Y0050606D03*
X0101428Y0050606D03*
X0140011Y0050606D03*
X0141586Y0050606D03*
X0141586Y0059268D03*
X0140011Y0059268D03*
X0178594Y0059268D03*
X0180168Y0059268D03*
X0180168Y0050606D03*
X0178594Y0050606D03*
X0178594Y0119504D03*
X0180168Y0119504D03*
X0180168Y0128165D03*
X0178594Y0128165D03*
X0141586Y0128165D03*
X0140011Y0128165D03*
X0140011Y0119504D03*
X0141586Y0119504D03*
X0103003Y0119504D03*
X0101428Y0119504D03*
X0101428Y0128165D03*
X0103003Y0128165D03*
X0064420Y0128165D03*
X0062846Y0128165D03*
X0062846Y0119504D03*
X0064420Y0119504D03*
D11*
X0067570Y0120685D03*
X0067570Y0122260D03*
X0067570Y0123835D03*
X0067570Y0125409D03*
X0067570Y0126984D03*
X0059696Y0126984D03*
X0059696Y0125409D03*
X0059696Y0123835D03*
X0059696Y0122260D03*
X0059696Y0120685D03*
X0098279Y0120685D03*
X0098279Y0122260D03*
X0098279Y0123835D03*
X0098279Y0125409D03*
X0098279Y0126984D03*
X0106153Y0126984D03*
X0106153Y0125409D03*
X0106153Y0123835D03*
X0106153Y0122260D03*
X0106153Y0120685D03*
X0136861Y0120685D03*
X0136861Y0122260D03*
X0136861Y0123835D03*
X0136861Y0125409D03*
X0136861Y0126984D03*
X0144735Y0126984D03*
X0144735Y0125409D03*
X0144735Y0123835D03*
X0144735Y0122260D03*
X0144735Y0120685D03*
X0175444Y0120685D03*
X0175444Y0122260D03*
X0175444Y0123835D03*
X0175444Y0125409D03*
X0175444Y0126984D03*
X0183318Y0126984D03*
X0183318Y0125409D03*
X0183318Y0123835D03*
X0183318Y0122260D03*
X0183318Y0120685D03*
X0183318Y0058087D03*
X0183318Y0056512D03*
X0183318Y0054937D03*
X0183318Y0053362D03*
X0183318Y0051787D03*
X0175444Y0051787D03*
X0175444Y0053362D03*
X0175444Y0054937D03*
X0175444Y0056512D03*
X0175444Y0058087D03*
X0144735Y0058087D03*
X0144735Y0056512D03*
X0144735Y0054937D03*
X0144735Y0053362D03*
X0144735Y0051787D03*
X0136861Y0051787D03*
X0136861Y0053362D03*
X0136861Y0054937D03*
X0136861Y0056512D03*
X0136861Y0058087D03*
X0106153Y0058087D03*
X0106153Y0056512D03*
X0106153Y0054937D03*
X0106153Y0053362D03*
X0106153Y0051787D03*
X0098279Y0051787D03*
X0098279Y0053362D03*
X0098279Y0054937D03*
X0098279Y0056512D03*
X0098279Y0058087D03*
X0067570Y0058087D03*
X0067570Y0056512D03*
X0067570Y0054937D03*
X0067570Y0053362D03*
X0067570Y0051787D03*
X0059696Y0051787D03*
X0059696Y0053362D03*
X0059696Y0054937D03*
X0059696Y0056512D03*
X0059696Y0058087D03*
D12*
X0048633Y0024937D03*
X0048633Y0034937D03*
X0048633Y0044937D03*
X0048633Y0054937D03*
X0048633Y0064937D03*
X0048633Y0074937D03*
X0048633Y0084937D03*
X0048633Y0093835D03*
X0048633Y0103835D03*
X0048633Y0113835D03*
X0048633Y0123835D03*
X0048633Y0133835D03*
X0048633Y0143835D03*
X0048633Y0153835D03*
X0078633Y0153835D03*
X0087216Y0153835D03*
X0087216Y0143835D03*
X0078633Y0143835D03*
X0078633Y0133835D03*
X0087216Y0133835D03*
X0087216Y0123835D03*
X0078633Y0123835D03*
X0078633Y0113835D03*
X0087216Y0113835D03*
X0087216Y0103835D03*
X0078633Y0103835D03*
X0078633Y0093835D03*
X0087216Y0093835D03*
X0087216Y0084937D03*
X0078633Y0084937D03*
X0078633Y0074937D03*
X0087216Y0074937D03*
X0087216Y0064937D03*
X0078633Y0064937D03*
X0078633Y0054937D03*
X0087216Y0054937D03*
X0087216Y0044937D03*
X0078633Y0044937D03*
X0078633Y0034937D03*
X0087216Y0034937D03*
X0087216Y0024937D03*
X0078633Y0024937D03*
X0117216Y0024937D03*
X0125798Y0024937D03*
X0125798Y0034937D03*
X0117216Y0034937D03*
X0117216Y0044937D03*
X0125798Y0044937D03*
X0125798Y0054937D03*
X0117216Y0054937D03*
X0117216Y0064937D03*
X0125798Y0064937D03*
X0125798Y0074937D03*
X0117216Y0074937D03*
X0117216Y0084937D03*
X0125798Y0084937D03*
X0125798Y0093835D03*
X0117216Y0093835D03*
X0117216Y0103835D03*
X0125798Y0103835D03*
X0125798Y0113835D03*
X0117216Y0113835D03*
X0117216Y0123835D03*
X0125798Y0123835D03*
X0125798Y0133835D03*
X0117216Y0133835D03*
X0117216Y0143835D03*
X0125798Y0143835D03*
X0125798Y0153835D03*
X0117216Y0153835D03*
X0155798Y0153835D03*
X0164381Y0153835D03*
X0164381Y0143835D03*
X0155798Y0143835D03*
X0155798Y0133835D03*
X0164381Y0133835D03*
X0164381Y0123835D03*
X0155798Y0123835D03*
X0155798Y0113835D03*
X0164381Y0113835D03*
X0164381Y0103835D03*
X0155798Y0103835D03*
X0155798Y0093835D03*
X0164381Y0093835D03*
X0164381Y0084937D03*
X0155798Y0084937D03*
X0155798Y0074937D03*
X0164381Y0074937D03*
X0164381Y0064937D03*
X0155798Y0064937D03*
X0155798Y0054937D03*
X0164381Y0054937D03*
X0164381Y0044937D03*
X0155798Y0044937D03*
X0155798Y0034937D03*
X0164381Y0034937D03*
X0164381Y0024937D03*
X0155798Y0024937D03*
X0194381Y0024937D03*
X0194381Y0034937D03*
X0194381Y0044937D03*
X0194381Y0054937D03*
X0194381Y0064937D03*
X0194381Y0074937D03*
X0194381Y0084937D03*
X0194381Y0093835D03*
X0194381Y0103835D03*
X0194381Y0113835D03*
X0194381Y0123835D03*
X0194381Y0133835D03*
X0194381Y0143835D03*
X0194381Y0153835D03*
D13*
X0179381Y0123835D03*
X0140798Y0123835D03*
X0102216Y0123835D03*
X0063633Y0123835D03*
X0063633Y0054937D03*
X0102216Y0054937D03*
X0140798Y0054937D03*
X0179381Y0054937D03*
D14*
X0182137Y0010843D03*
X0209696Y0168323D03*
X0064027Y0168323D03*
M02*
