%
M48
M72
T01C0.01181
T02C0.03200
%
T01
X63633Y54937
X102216Y54937
X140798Y54937
X179381Y54937
X182137Y10843
X179381Y123835
X140798Y123835
X102216Y123835
X63633Y123835
X64027Y168323
X209696Y168323
T02
X48633Y24937
X48633Y34937
X48633Y44937
X48633Y54937
X48633Y64937
X48633Y74937
X48633Y84937
X48633Y93835
X48633Y103835
X48633Y113835
X48633Y123835
X48633Y133835
X48633Y143835
X48633Y153835
X78633Y153835
X87216Y153835
X87216Y143835
X78633Y143835
X78633Y133835
X87216Y133835
X87216Y123835
X78633Y123835
X78633Y113835
X87216Y113835
X87216Y103835
X78633Y103835
X78633Y93835
X87216Y93835
X87216Y84937
X78633Y84937
X78633Y74937
X87216Y74937
X87216Y64937
X78633Y64937
X78633Y54937
X87216Y54937
X87216Y44937
X78633Y44937
X78633Y34937
X87216Y34937
X87216Y24937
X78633Y24937
X117216Y24937
X125798Y24937
X125798Y34937
X117216Y34937
X117216Y44937
X125798Y44937
X125798Y54937
X117216Y54937
X117216Y64937
X125798Y64937
X125798Y74937
X117216Y74937
X117216Y84937
X125798Y84937
X125798Y93835
X117216Y93835
X117216Y103835
X125798Y103835
X125798Y113835
X117216Y113835
X117216Y123835
X125798Y123835
X125798Y133835
X117216Y133835
X117216Y143835
X125798Y143835
X125798Y153835
X117216Y153835
X155798Y153835
X164381Y153835
X164381Y143835
X155798Y143835
X155798Y133835
X164381Y133835
X164381Y123835
X155798Y123835
X155798Y113835
X164381Y113835
X164381Y103835
X155798Y103835
X155798Y93835
X164381Y93835
X164381Y84937
X155798Y84937
X155798Y74937
X164381Y74937
X164381Y64937
X155798Y64937
X155798Y54937
X164381Y54937
X164381Y44937
X155798Y44937
X155798Y34937
X164381Y34937
X164381Y24937
X155798Y24937
X194381Y24937
X194381Y34937
X194381Y44937
X194381Y54937
X194381Y64937
X194381Y74937
X194381Y84937
X194381Y93835
X194381Y103835
X194381Y113835
X194381Y123835
X194381Y133835
X194381Y143835
X194381Y153835
M30
